<?xml version="1.0" encoding="UTF-8"?>
<!DOCTYPE svg PUBLIC "-//W3C//DTD SVG 1.1//EN" "http://www.w3.org/Graphics/SVG/1.1/DTD/svg11.dtd">
<svg xmlns="http://www.w3.org/2000/svg" version="1.1" width="387px" height="283px" style="shape-rendering:geometricPrecision; text-rendering:geometricPrecision; image-rendering:optimizeQuality; fill-rule:evenodd; clip-rule:evenodd" xmlns:xlink="http://www.w3.org/1999/xlink">
<g><path style="opacity:1" fill="#cdccce" d="M 346.5,241.5 C 345.833,241.5 345.5,241.833 345.5,242.5C 332.87,234.525 320.537,226.192 308.5,217.5C 307.839,175.736 307.172,134.069 306.5,92.5C 299.181,91.5087 291.681,90.842 284,90.5C 281.31,90.5029 278.81,90.8362 276.5,91.5C 274.265,91.7947 272.265,91.4614 270.5,90.5C 272.199,90.6602 273.866,90.4935 275.5,90C 269.171,89.4448 262.838,88.9448 256.5,88.5C 253.975,88.5034 251.641,88.8367 249.5,89.5C 247.901,89.7678 246.568,89.4345 245.5,88.5C 242.278,87.4982 238.278,87.1649 233.5,87.5C 233.169,116.671 233.502,145.671 234.5,174.5C 236.754,175.124 238.421,176.457 239.5,178.5C 239.577,179.75 240.244,180.583 241.5,181C 231.658,181.825 221.991,181.658 212.5,180.5C 213.791,179.458 213.791,178.292 212.5,177C 206.5,176.667 200.5,176.333 194.5,176C 198.061,174.768 201.394,173.268 204.5,171.5C 205.78,170.069 207.447,169.402 209.5,169.5C 209.5,168.167 209.5,166.833 209.5,165.5C 206.988,164.133 204.655,164.466 202.5,166.5C 197.463,169.071 192.129,171.071 186.5,172.5C 184.063,172.756 181.729,173.423 179.5,174.5C 178.702,174.043 178.369,173.376 178.5,172.5C 183.563,170.316 184.563,166.983 181.5,162.5C 177.53,168.071 172.863,173.071 167.5,177.5C 166.032,177.694 165.365,179.028 165.5,181.5C 160.637,181.181 155.97,181.514 151.5,182.5C 151.119,187.802 152.119,192.802 154.5,197.5C 147.484,201.675 140.151,205.341 132.5,208.5C 130.83,208.751 129.33,209.418 128,210.5C 127.768,209.263 127.268,208.263 126.5,207.5C 126.552,198.487 126.219,189.487 125.5,180.5C 125.426,174.275 126.426,168.275 128.5,162.5C 144.827,152 161.494,142 178.5,132.5C 185.315,129.927 191.649,126.594 197.5,122.5C 198.748,121.666 199.415,120.333 199.5,118.5C 199.828,115.499 198.828,113.166 196.5,111.5C 192.788,108.789 189.788,105.456 187.5,101.5C 186.581,98.9108 184.914,96.9108 182.5,95.5C 181.5,95.1667 180.833,94.5 180.5,93.5C 179.527,90.865 177.86,88.865 175.5,87.5C 172.139,85.1051 169.472,82.1051 167.5,78.5C 169.846,72.1927 168.013,67.526 162,64.5C 161.809,62.2922 161.309,60.2922 160.5,58.5C 159.498,53.9947 157.165,53.3281 153.5,56.5C 149.412,55.8254 147.412,57.8254 147.5,62.5C 145.883,63.038 144.216,63.3713 142.5,63.5C 142.662,61.4727 142.495,59.4727 142,57.5C 140.933,58.1905 139.766,58.6905 138.5,59C 137.483,60.0495 137.316,61.2161 138,62.5C 139.24,59.0832 140.407,58.9165 141.5,62C 140.564,65.4135 139.064,65.9135 137,63.5C 136.727,65.3289 135.893,66.8289 134.5,68C 126.074,67.9204 118.407,70.2537 111.5,75C 110.242,76.7409 109.242,78.5742 108.5,80.5C 96.8333,80.5 85.1667,80.5 73.5,80.5C 73.5,79.5 73.5,78.5 73.5,77.5C 73.3253,75.3792 73.6586,73.3792 74.5,71.5C 93.2401,66.6272 110.573,58.7939 126.5,48C 139.548,37.2843 152.881,26.951 166.5,17C 191.63,1.69395 218.63,-2.63938 247.5,4C 286.529,11.5821 318.362,30.7487 343,61.5C 369.833,108.33 377.166,157.997 365,210.5C 360.862,222.12 354.695,232.453 346.5,241.5 Z"/></g>
<g><path style="opacity:1" fill="#2b373d" d="M 203.5,7.5 C 226.84,7.00754 238.34,18.3409 238,41.5C 232.289,59.2796 220.122,66.7796 201.5,64C 182.5,55.1564 177,40.9898 185,21.5C 189.526,14.5054 195.693,9.83875 203.5,7.5 Z"/></g>
<g><path style="opacity:1" fill="#ccccce" d="M 202.5,13.5 C 223.821,11.6546 233.654,21.3213 232,42.5C 227.112,55.031 217.945,60.531 204.5,59C 188.752,52.7628 183.585,41.5961 189,25.5C 192.454,20.206 196.954,16.206 202.5,13.5 Z"/></g>
<g><path style="opacity:0.922" fill="#131118" d="M 72.5,55.5 C 66.9327,56.804 61.266,56.804 55.5,55.5C 55.0388,53.4496 54.3721,51.4496 53.5,49.5C 54.7185,49.891 55.5518,49.2244 56,47.5C 57.0646,49.3963 57.8979,49.563 58.5,48C 57.1686,42.5171 56.3353,37.0171 56,31.5C 57.5909,34.3516 58.9242,37.3516 60,40.5C 60.7914,35.1263 61.7914,29.793 63,24.5C 63.8128,29.8149 64.4794,35.1483 65,40.5C 65.2896,38.9559 65.9563,37.6226 67,36.5C 67.3333,37.1667 67.6667,37.8333 68,38.5C 69.1667,35 70.3333,31.5 71.5,28C 71.8499,26.7425 72.5165,26.4092 73.5,27C 72.4123,32.9396 71.4123,38.9396 70.5,45C 70.6696,47.5269 71.6696,48.0269 73.5,46.5C 74.5,46.8333 75.1667,47.5 75.5,48.5C 74.6876,50.9446 73.6876,53.2779 72.5,55.5 Z"/></g>
<g><path style="opacity:1" fill="#394349" d="M 212.5,38.5 C 210.708,38.366 209.042,38.6993 207.5,39.5C 206.756,36.0504 208.09,34.3838 211.5,34.5C 211.433,35.9587 211.766,37.2921 212.5,38.5 Z"/></g>
<g><path style="opacity:1" fill="#555d63" d="M 207.5,39.5 C 207.573,41.0269 206.906,42.0269 205.5,42.5C 205.427,40.9731 206.094,39.9731 207.5,39.5 Z"/></g>
<g><path style="opacity:1" fill="#5c6469" d="M 212.5,38.5 C 214.886,39.3733 216.886,40.8733 218.5,43C 215.879,42.5735 213.879,41.0735 212.5,38.5 Z"/></g>
<g><path style="opacity:1" fill="#5e666a" d="M 205.5,42.5 C 205.205,44.4233 204.372,46.0899 203,47.5C 202.751,45.332 203.584,43.6653 205.5,42.5 Z"/></g>
<g><path style="opacity:1" fill="#757c80" d="M 160.5,58.5 C 158.536,54.5263 156.369,54.5263 154,58.5C 153.536,57.9056 153.369,57.2389 153.5,56.5C 157.165,53.3281 159.498,53.9947 160.5,58.5 Z"/></g>
<g><path style="opacity:1" fill="#eff0f0" d="M 153.5,56.5 C 153.369,57.2389 153.536,57.9056 154,58.5C 156.369,54.5263 158.536,54.5263 160.5,58.5C 160.5,60.1667 160.5,61.8333 160.5,63.5C 156.19,62.9198 151.857,62.5865 147.5,62.5C 147.412,57.8254 149.412,55.8254 153.5,56.5 Z"/></g>
<g><path style="opacity:1" fill="#2a353b" d="M 147.5,62.5 C 151.857,62.5865 156.19,62.9198 160.5,63.5C 160.5,61.8333 160.5,60.1667 160.5,58.5C 161.309,60.2922 161.809,62.2922 162,64.5C 168.013,67.526 169.846,72.1927 167.5,78.5C 165.659,79.4023 164.326,80.7356 163.5,82.5C 163.167,82.5 162.833,82.5 162.5,82.5C 154.543,81.6015 146.543,82.2681 138.5,84.5C 137.479,85.0016 137.312,85.6683 138,86.5C 140.827,88.4945 143.327,90.8278 145.5,93.5C 142.804,96.2733 139.971,98.94 137,101.5C 136.542,104.096 137.375,106.263 139.5,108C 135.998,108.174 134.165,110.007 134,113.5C 133.261,109.615 131.927,105.948 130,102.5C 126.914,100.78 124.581,101.447 123,104.5C 122.892,108.177 122.892,111.843 123,115.5C 122.943,113.09 121.776,111.756 119.5,111.5C 120.201,105.246 117.867,100.579 112.5,97.5C 112.068,96.2905 111.401,95.2905 110.5,94.5C 109.25,91.994 108.584,89.3274 108.5,86.5C 108.5,84.5 108.5,82.5 108.5,80.5C 109.242,78.5742 110.242,76.7409 111.5,75C 118.407,70.2537 126.074,67.9204 134.5,68C 135.893,66.8289 136.727,65.3289 137,63.5C 139.064,65.9135 140.564,65.4135 141.5,62C 140.407,58.9165 139.24,59.0832 138,62.5C 137.316,61.2161 137.483,60.0495 138.5,59C 139.766,58.6905 140.933,58.1905 142,57.5C 142.495,59.4727 142.662,61.4727 142.5,63.5C 144.216,63.3713 145.883,63.038 147.5,62.5 Z"/></g>
<g><path style="opacity:1" fill="#aaafb1" d="M 163.5,72.5 C 162.518,71.8592 161.518,71.1925 160.5,70.5C 159.833,71.5 159.167,72.5 158.5,73.5C 157.27,69.9174 158.604,68.7507 162.5,70C 163.252,70.6708 163.586,71.5041 163.5,72.5 Z"/></g>
<g><path style="opacity:1" fill="#bfc3c4" d="M 163.5,72.5 C 164.139,73.0968 164.472,73.9302 164.5,75C 164.613,76.6991 163.947,77.8658 162.5,78.5C 163.15,76.5648 163.483,74.5648 163.5,72.5 Z"/></g>
<g><path style="opacity:1" fill="#90969a" d="M 132.5,79.5 C 142.319,78.506 152.319,78.1726 162.5,78.5C 162.389,79.1174 162.056,79.6174 161.5,80C 152.506,80.4998 143.506,80.6664 134.5,80.5C 134.158,79.6618 133.492,79.3284 132.5,79.5 Z"/></g>
<g><path style="opacity:1" fill="#fafafa" d="M 167.5,78.5 C 169.472,82.1051 172.139,85.1051 175.5,87.5C 176.443,90.1092 178.11,92.1092 180.5,93.5C 180.833,94.5 181.5,95.1667 182.5,95.5C 183.419,98.0892 185.086,100.089 187.5,101.5C 189.788,105.456 192.788,108.789 196.5,111.5C 198.485,115.059 198.818,118.726 197.5,122.5C 190.685,125.073 184.351,128.406 178.5,132.5C 161.494,142 144.827,152 128.5,162.5C 127.93,157.374 126.096,156.707 123,160.5C 122.617,159.944 122.117,159.611 121.5,159.5C 120.326,158.486 119.66,157.153 119.5,155.5C 119.25,153.326 118.25,151.659 116.5,150.5C 115.662,150.158 115.328,149.492 115.5,148.5C 115.573,146.973 114.906,145.973 113.5,145.5C 113.573,143.973 112.906,142.973 111.5,142.5C 111.573,140.973 110.906,139.973 109.5,139.5C 109.573,137.973 108.906,136.973 107.5,136.5C 110.688,134.31 113.855,131.976 117,129.5C 121.522,135.9 126.022,142.233 130.5,148.5C 130.369,147.624 130.702,146.957 131.5,146.5C 141.532,140.48 152.199,136.147 163.5,133.5C 164.04,132.252 164.707,131.085 165.5,130C 173.746,125.207 182.413,121.54 191.5,119C 189.671,118.727 188.171,117.893 187,116.5C 179.391,104.926 171.558,93.593 163.5,82.5C 164.326,80.7356 165.659,79.4023 167.5,78.5 Z"/></g>
<g><path style="opacity:1" fill="#586165" d="M 73.5,77.5 C 73.5,78.5 73.5,79.5 73.5,80.5C 85.1667,80.5 96.8333,80.5 108.5,80.5C 108.5,82.5 108.5,84.5 108.5,86.5C 107.549,85.0813 107.216,83.4147 107.5,81.5C 95.8333,81.5 84.1667,81.5 72.5,81.5C 72.2322,79.901 72.5655,78.5676 73.5,77.5 Z"/></g>
<g><path style="opacity:1" fill="#bbbfc1" d="M 132.5,79.5 C 133.492,79.3284 134.158,79.6618 134.5,80.5C 131.123,80.9595 127.789,81.6261 124.5,82.5C 126.684,80.4152 129.351,79.4152 132.5,79.5 Z"/></g>
<g><path style="opacity:1" fill="#f7f8f8" d="M 72.5,81.5 C 84.1667,81.5 95.8333,81.5 107.5,81.5C 107.216,83.4147 107.549,85.0813 108.5,86.5C 108.584,89.3274 109.25,91.994 110.5,94.5C 110.666,103.839 110.5,113.173 110,122.5C 109.586,122.957 109.086,123.291 108.5,123.5C 107.824,111.271 107.157,99.1048 106.5,87C 84.996,86.1706 63.6627,86.3373 42.5,87.5C 42.5,103.167 42.5,118.833 42.5,134.5C 59.17,134.333 75.8367,134.5 92.5,135C 91.2899,136.039 90.2899,137.206 89.5,138.5C 87.5,138.5 86.5,139.5 86.5,141.5C 71.8333,141.5 57.1667,141.5 42.5,141.5C 42.815,145.371 42.4816,149.038 41.5,152.5C 41.2914,151.078 40.7914,149.745 40,148.5C 39.5,126.169 39.3334,103.836 39.5,81.5C 50.5,81.5 61.5,81.5 72.5,81.5 Z"/></g>
<g><path style="opacity:1" fill="#b7babc" d="M 124.5,82.5 C 123.341,84.2503 121.674,85.2503 119.5,85.5C 120.659,83.7497 122.326,82.7497 124.5,82.5 Z"/></g>
<g><path style="opacity:1" fill="#fefefe" d="M 43.5,88.5 C 64.1667,88.5 84.8333,88.5 105.5,88.5C 105.832,101.184 105.499,113.851 104.5,126.5C 101.743,129.27 98.743,131.604 95.5,133.5C 78.1667,133.5 60.8333,133.5 43.5,133.5C 43.5,118.5 43.5,103.5 43.5,88.5 Z"/></g>
<g><path style="opacity:1" fill="#9ba1a4" d="M 119.5,85.5 C 118.121,88.0735 116.121,89.5735 113.5,90C 115.114,87.8733 117.114,86.3733 119.5,85.5 Z"/></g>
<g><path style="opacity:1" fill="#586166" d="M 245.5,88.5 C 241.833,88.5 238.167,88.5 234.5,88.5C 234.5,117.167 234.5,145.833 234.5,174.5C 233.502,145.671 233.169,116.671 233.5,87.5C 238.278,87.1649 242.278,87.4982 245.5,88.5 Z"/></g>
<g><path style="opacity:1" fill="#808589" d="M 249.5,89.5 C 251.641,88.8367 253.975,88.5034 256.5,88.5C 262.838,88.9448 269.171,89.4448 275.5,90C 273.866,90.4935 272.199,90.6602 270.5,90.5C 263.504,90.1064 256.504,89.7731 249.5,89.5 Z"/></g>
<g><path style="opacity:1" fill="#7f8589" d="M 175.5,87.5 C 177.86,88.865 179.527,90.865 180.5,93.5C 178.11,92.1092 176.443,90.1092 175.5,87.5 Z"/></g>
<g><path style="opacity:1" fill="#777d81" d="M 276.5,91.5 C 278.81,90.8362 281.31,90.5029 284,90.5C 291.681,90.842 299.181,91.5087 306.5,92.5C 304.167,92.5 301.833,92.5 299.5,92.5C 291.821,92.4038 284.154,92.0705 276.5,91.5 Z"/></g>
<g><path style="opacity:1" fill="#cacacc" d="M 37.5,90.5 C 38.662,108.329 38.8287,126.329 38,144.5C 36.2739,143.424 34.4406,143.257 32.5,144C 34.9856,144.705 34.9856,145.538 32.5,146.5C 31.5768,145.697 30.5768,145.53 29.5,146C 21.8333,151.5 14.1667,157 6.5,162.5C 6.85549,163.522 7.52216,164.189 8.5,164.5C 10.588,166.336 11.9213,168.669 12.5,171.5C 14.2996,177.404 15.7996,183.404 17,189.5C 17.7958,192.039 17.6291,194.372 16.5,196.5C -1.82195,165.23 -0.321948,134.897 21,105.5C 26.0713,99.9239 31.5713,94.9239 37.5,90.5 Z"/></g>
<g><path style="opacity:1" fill="#263238" d="M 299.5,92.5 C 301.833,92.5 304.167,92.5 306.5,92.5C 306.5,137.167 306.5,181.833 306.5,226.5C 304.167,226.5 301.833,226.5 299.5,226.5C 299.5,181.833 299.5,137.167 299.5,92.5 Z"/></g>
<g><path style="opacity:1" fill="#6c7276" d="M 306.5,92.5 C 307.172,134.069 307.839,175.736 308.5,217.5C 307.833,220.5 307.167,223.5 306.5,226.5C 306.5,181.833 306.5,137.167 306.5,92.5 Z"/></g>
<g><path style="opacity:1" fill="#7e8589" d="M 182.5,95.5 C 184.914,96.9108 186.581,98.9108 187.5,101.5C 185.086,100.089 183.419,98.0892 182.5,95.5 Z"/></g>
<g><path style="opacity:1" fill="#5a6267" d="M 220.5,101.5 C 224.335,101.722 228.002,103.222 231.5,106C 227.691,105.104 224.025,103.604 220.5,101.5 Z"/></g>
<g><path style="opacity:1" fill="#303c42" d="M 62.5,106.5 C 70.8333,106.5 79.1667,106.5 87.5,106.5C 87.5,109.5 87.5,112.5 87.5,115.5C 79.1667,115.5 70.8333,115.5 62.5,115.5C 62.5,112.5 62.5,109.5 62.5,106.5 Z"/></g>
<g><path style="opacity:1" fill="#7c8286" d="M 196.5,111.5 C 198.828,113.166 199.828,115.499 199.5,118.5C 199.415,120.333 198.748,121.666 197.5,122.5C 198.818,118.726 198.485,115.059 196.5,111.5 Z"/></g>
<g><path style="opacity:1" fill="#7e8487" d="M 197.5,122.5 C 191.649,126.594 185.315,129.927 178.5,132.5C 184.351,128.406 190.685,125.073 197.5,122.5 Z"/></g>
<g><path style="opacity:1" fill="#676e72" d="M 208.5,127.5 C 212.105,126.133 215.771,126.3 219.5,128C 215.83,128.279 212.163,128.112 208.5,127.5 Z"/></g>
<g><path style="opacity:1" fill="#7c8286" d="M 222.5,127.5 C 223.978,127.238 225.311,127.571 226.5,128.5C 225.833,128.833 225.167,129.167 224.5,129.5C 223.287,129.253 222.62,128.586 222.5,127.5 Z"/></g>
<g><path style="opacity:1" fill="#86868a" d="M 162.5,82.5 C 162.833,82.5 163.167,82.5 163.5,82.5C 171.558,93.593 179.391,104.926 187,116.5C 188.171,117.893 189.671,118.727 191.5,119C 182.413,121.54 173.746,125.207 165.5,130C 164.707,131.085 164.04,132.252 163.5,133.5C 152.199,136.147 141.532,140.48 131.5,146.5C 130.702,146.957 130.369,147.624 130.5,148.5C 126.022,142.233 121.522,135.9 117,129.5C 113.855,131.976 110.688,134.31 107.5,136.5C 103.663,142.17 100.33,148.17 97.5,154.5C 92.7032,151.325 88.8699,152.325 86,157.5C 82.6442,163.757 81.6442,170.424 83,177.5C 86.9323,194.297 92.2657,210.63 99,226.5C 100.388,227.554 101.888,227.72 103.5,227C 106.034,225.066 108.701,223.732 111.5,223C 109.704,226.76 108.038,230.593 106.5,234.5C 106.833,234.833 107.167,235.167 107.5,235.5C 124.219,227.473 140.886,219.473 157.5,211.5C 148.127,219.54 138.46,227.207 128.5,234.5C 125.044,236.783 121.71,239.283 118.5,242C 119.423,244.041 119.756,246.208 119.5,248.5C 118.698,247.048 118.198,245.382 118,243.5C 114.266,246.952 110.1,249.785 105.5,252C 103.765,252.651 102.098,252.485 100.5,251.5C 95.1875,240.534 90.6875,229.2 87,217.5C 84.8356,232.794 84.0023,248.128 84.5,263.5C 95.5161,254.684 97.0161,256.017 89,267.5C 87.9207,270.063 87.4207,272.729 87.5,275.5C 77.8333,275.5 68.1667,275.5 58.5,275.5C 58.4403,272.659 57.7736,269.993 56.5,267.5C 58.1765,266.817 58.8432,265.483 58.5,263.5C 59.8333,256.167 59.8333,248.833 58.5,241.5C 59.6892,226.743 61.3559,212.076 63.5,197.5C 64.8333,195.833 64.8333,194.167 63.5,192.5C 63.5,191.5 63.5,190.5 63.5,189.5C 58.8333,189.5 54.1667,189.5 49.5,189.5C 49.5,188.833 49.5,188.167 49.5,187.5C 54.5,187.5 59.5,187.5 64.5,187.5C 64.9608,181.836 66.2941,176.503 68.5,171.5C 70.4032,168.47 71.7365,165.137 72.5,161.5C 69.1667,161.5 65.8333,161.5 62.5,161.5C 62.5,164.167 62.5,166.833 62.5,169.5C 61.5233,166.713 61.19,163.713 61.5,160.5C 65.1817,160.665 68.8484,160.499 72.5,160C 75.9098,153.99 79.9098,148.49 84.5,143.5C 85.5,143.167 86.1667,142.5 86.5,141.5C 86.5,139.5 87.5,138.5 89.5,138.5C 92.0892,137.581 94.0892,135.914 95.5,133.5C 98.743,131.604 101.743,129.27 104.5,126.5C 105.499,113.851 105.832,101.184 105.5,88.5C 84.8333,88.5 64.1667,88.5 43.5,88.5C 43.5,87.8333 43.1667,87.5 42.5,87.5C 63.6627,86.3373 84.996,86.1706 106.5,87C 107.157,99.1048 107.824,111.271 108.5,123.5C 109.086,123.291 109.586,122.957 110,122.5C 110.5,113.173 110.666,103.839 110.5,94.5C 111.401,95.2905 112.068,96.2905 112.5,97.5C 112.334,105.507 112.5,113.507 113,121.5C 114.333,124.167 115.667,124.167 117,121.5C 119.006,118.464 119.84,115.131 119.5,111.5C 121.776,111.756 122.943,113.09 123,115.5C 122.892,111.843 122.892,108.177 123,104.5C 124.581,101.447 126.914,100.78 130,102.5C 131.927,105.948 133.261,109.615 134,113.5C 134.165,110.007 135.998,108.174 139.5,108C 137.375,106.263 136.542,104.096 137,101.5C 139.971,98.94 142.804,96.2733 145.5,93.5C 143.327,90.8278 140.827,88.4945 138,86.5C 137.312,85.6683 137.479,85.0016 138.5,84.5C 146.543,82.2681 154.543,81.6015 162.5,82.5 Z"/></g>
<g><path style="opacity:1" fill="#c9c9cb" d="M 165.5,112.5 C 165.973,111.094 166.973,110.427 168.5,110.5C 169.376,110.631 170.043,110.298 170.5,109.5C 169.172,105.201 168.338,100.868 168,96.5C 171.368,102.375 174.535,108.375 177.5,114.5C 174.021,117.234 170.021,118.901 165.5,119.5C 165.5,117.167 165.5,114.833 165.5,112.5 Z"/></g>
<g><path style="opacity:1" fill="#cacacc" d="M 112.5,97.5 C 117.867,100.579 120.201,105.246 119.5,111.5C 119.84,115.131 119.006,118.464 117,121.5C 115.667,124.167 114.333,124.167 113,121.5C 112.5,113.507 112.334,105.507 112.5,97.5 Z"/></g>
<g><path style="opacity:1" fill="#b4b9bb" d="M 121.5,95.5 C 120.746,97.4459 119.412,98.2793 117.5,98C 118.471,96.5187 119.804,95.6854 121.5,95.5 Z"/></g>
<g><path style="opacity:1" fill="#c1c4c6" d="M 134.5,93.5 C 133.448,95.6551 134.114,95.9884 136.5,94.5C 137.696,94.8457 137.696,95.3457 136.5,96C 134.5,96.6667 132.5,96.6667 130.5,96C 131.471,94.5187 132.804,93.6854 134.5,93.5 Z"/></g>
<g><path style="opacity:1" fill="#b7bbbd" d="M 124.5,93.5 C 124.027,94.9063 123.027,95.573 121.5,95.5C 121.973,94.0937 122.973,93.427 124.5,93.5 Z"/></g>
<g><path style="opacity:1" fill="#c2c5c7" d="M 137.5,91.5 C 136.726,90.8529 135.726,90.5195 134.5,90.5C 131.024,91.1037 127.691,92.1037 124.5,93.5C 125.975,91.5905 127.975,90.4238 130.5,90C 133.5,89.3333 136.5,89.3333 139.5,90C 138.956,90.7172 138.289,91.2172 137.5,91.5 Z"/></g>
<g><path style="opacity:1" fill="#bfc3c4" d="M 137.5,91.5 C 137.027,92.9063 136.027,93.573 134.5,93.5C 134.973,92.0937 135.973,91.427 137.5,91.5 Z"/></g>
<g><path style="opacity:1" fill="#fcfcfc" d="M 162.5,82.5 C 165.135,91.673 167.135,101.006 168.5,110.5C 166.973,110.427 165.973,111.094 165.5,112.5C 164.565,119.374 163.565,126.374 162.5,133.5C 155.958,134.011 149.624,133.178 143.5,131C 143,130.5 142.5,130 142,129.5C 141.021,117.517 142.521,105.85 146.5,94.5C 146.109,91.2187 144.776,88.3854 142.5,86C 149.123,84.5083 155.79,83.3416 162.5,82.5 Z"/></g>
<g><path style="opacity:1" fill="#414b51" d="M 151.5,117.5 C 152.5,117.5 153.5,117.5 154.5,117.5C 154.499,121.252 152.833,122.252 149.5,120.5C 150.193,119.482 150.859,118.482 151.5,117.5 Z"/></g>
<g><path style="opacity:1" fill="#555f63" d="M 157.5,98.5 C 158.649,98.7911 159.316,99.6244 159.5,101C 159.167,101.833 158.833,102.667 158.5,103.5C 157.548,101.955 157.215,100.288 157.5,98.5 Z"/></g>
<g><path style="opacity:1" fill="#374147" d="M 155.5,88.5 C 157.527,88.3379 159.527,88.5045 161.5,89C 163.106,92.0904 162.44,92.9237 159.5,91.5C 157.303,91.8481 155.47,92.8481 154,94.5C 153.252,92.1599 153.752,90.1599 155.5,88.5 Z"/></g>
<g><path style="opacity:1" fill="#454f54" d="M 42.5,87.5 C 43.1667,87.5 43.5,87.8333 43.5,88.5C 43.5,103.5 43.5,118.5 43.5,133.5C 60.8333,133.5 78.1667,133.5 95.5,133.5C 94.0892,135.914 92.0892,137.581 89.5,138.5C 90.2899,137.206 91.2899,136.039 92.5,135C 75.8367,134.5 59.17,134.333 42.5,134.5C 42.5,118.833 42.5,103.167 42.5,87.5 Z"/></g>
<g><path style="opacity:1" fill="#fdfdfd" d="M 107.5,136.5 C 107.427,138.027 108.094,139.027 109.5,139.5C 109.427,141.027 110.094,142.027 111.5,142.5C 111.427,144.027 112.094,145.027 113.5,145.5C 113.427,147.027 114.094,148.027 115.5,148.5C 115.328,149.492 115.662,150.158 116.5,150.5C 116.75,152.674 117.75,154.341 119.5,155.5C 119.66,157.153 120.326,158.486 121.5,159.5C 121.5,160.167 121.5,160.833 121.5,161.5C 121.5,165.833 121.5,170.167 121.5,174.5C 120.596,175.209 120.263,176.209 120.5,177.5C 118.84,189.445 117.674,201.445 117,213.5C 115.432,208.286 113.599,203.286 111.5,198.5C 108.791,187.652 105.791,176.986 102.5,166.5C 102.186,163.053 101.352,159.72 100,156.5C 99.5831,155.244 98.7498,154.577 97.5,154.5C 100.33,148.17 103.663,142.17 107.5,136.5 Z"/></g>
<g><path style="opacity:1" fill="#838a8d" d="M 107.5,136.5 C 108.906,136.973 109.573,137.973 109.5,139.5C 108.094,139.027 107.427,138.027 107.5,136.5 Z"/></g>
<g><path style="opacity:1" fill="#434d53" d="M 86.5,141.5 C 86.1667,142.5 85.5,143.167 84.5,143.5C 71.0102,142.504 57.3435,142.171 43.5,142.5C 43.5,146.833 43.5,151.167 43.5,155.5C 42.0937,155.027 41.427,154.027 41.5,152.5C 42.4816,149.038 42.815,145.371 42.5,141.5C 57.1667,141.5 71.8333,141.5 86.5,141.5 Z"/></g>
<g><path style="opacity:1" fill="#7f878a" d="M 109.5,139.5 C 110.906,139.973 111.573,140.973 111.5,142.5C 110.094,142.027 109.427,141.027 109.5,139.5 Z"/></g>
<g><path style="opacity:1" fill="#fdfdfd" d="M 84.5,143.5 C 79.9098,148.49 75.9098,153.99 72.5,160C 68.8484,160.499 65.1817,160.665 61.5,160.5C 61.19,163.713 61.5233,166.713 62.5,169.5C 65.0821,169.025 67.0821,169.692 68.5,171.5C 66.2941,176.503 64.9608,181.836 64.5,187.5C 59.5,187.5 54.5,187.5 49.5,187.5C 49.1707,176.52 47.1707,165.853 43.5,155.5C 43.5,151.167 43.5,146.833 43.5,142.5C 57.3435,142.171 71.0102,142.504 84.5,143.5 Z"/></g>
<g><path style="opacity:1" fill="#838a8d" d="M 111.5,142.5 C 112.906,142.973 113.573,143.973 113.5,145.5C 112.094,145.027 111.427,144.027 111.5,142.5 Z"/></g>
<g><path style="opacity:1" fill="#28343a" d="M 55.5,55.5 C 61.266,56.804 66.9327,56.804 72.5,55.5C 73.8333,55.5 75.1667,55.5 76.5,55.5C 76.4833,60.9299 75.8166,66.2632 74.5,71.5C 73.6586,73.3792 73.3253,75.3792 73.5,77.5C 72.5655,78.5676 72.2322,79.901 72.5,81.5C 61.5,81.5 50.5,81.5 39.5,81.5C 39.3334,103.836 39.5,126.169 40,148.5C 40.7914,149.745 41.2914,151.078 41.5,152.5C 41.427,154.027 42.0937,155.027 43.5,155.5C 47.1707,165.853 49.1707,176.52 49.5,187.5C 49.5,188.167 49.5,188.833 49.5,189.5C 49.5,191.5 49.5,193.5 49.5,195.5C 54.1667,195.5 58.8333,195.5 63.5,195.5C 63.5,194.5 63.5,193.5 63.5,192.5C 64.8333,194.167 64.8333,195.833 63.5,197.5C 59.03,196.514 54.3633,196.181 49.5,196.5C 50.2823,211.888 51.6156,227.221 53.5,242.5C 55.4147,242.784 57.0813,242.451 58.5,241.5C 59.8333,248.833 59.8333,256.167 58.5,263.5C 58.5,256.833 58.5,250.167 58.5,243.5C 56.8333,243.5 55.1667,243.5 53.5,243.5C 54.6863,251.471 55.6863,259.471 56.5,267.5C 57.7736,269.993 58.4403,272.659 58.5,275.5C 48.1667,275.5 37.8333,275.5 27.5,275.5C 24.4647,262.687 22.6314,249.687 22,236.5C 21.6667,221.833 21.3333,207.167 21,192.5C 19.7695,181.639 16.2695,171.639 10.5,162.5C 17.5533,156.78 24.8866,151.447 32.5,146.5C 34.9856,145.538 34.9856,144.705 32.5,144C 34.4406,143.257 36.2739,143.424 38,144.5C 38.8287,126.329 38.662,108.329 37.5,90.5C 37.5,87.1667 37.5,83.8333 37.5,80.5C 43.561,80.7904 49.561,80.4571 55.5,79.5C 55.8333,79 56.1667,78.5 56.5,78C 55.1112,70.8323 53.7778,63.6656 52.5,56.5C 53.325,55.6143 54.325,55.281 55.5,55.5 Z"/></g>
<g><path style="opacity:1" fill="#747b80" d="M 113.5,145.5 C 114.906,145.973 115.573,146.973 115.5,148.5C 114.094,148.027 113.427,147.027 113.5,145.5 Z"/></g>
<g><path style="opacity:1" fill="#969c9f" d="M 32.5,146.5 C 24.8866,151.447 17.5533,156.78 10.5,162.5C 9.16667,162.5 8.5,163.167 8.5,164.5C 7.52216,164.189 6.85549,163.522 6.5,162.5C 14.1667,157 21.8333,151.5 29.5,146C 30.5768,145.53 31.5768,145.697 32.5,146.5 Z"/></g>
<g><path style="opacity:1" fill="#6a7276" d="M 116.5,150.5 C 118.25,151.659 119.25,153.326 119.5,155.5C 117.75,154.341 116.75,152.674 116.5,150.5 Z"/></g>
<g><path style="opacity:1" fill="#8f9598" d="M 130.5,148.5 C 133.052,150.163 132.886,151.83 130,153.5C 130.019,151.893 130.185,150.226 130.5,148.5 Z"/></g>
<g><path style="opacity:1" fill="#fdfdfd" d="M 97.5,154.5 C 99.1848,158.571 100.852,162.571 102.5,166.5C 104.276,177.615 107.276,188.282 111.5,198.5C 112.685,204.227 114.185,209.894 116,215.5C 118.118,216.739 119.951,216.405 121.5,214.5C 123.368,213.737 125.035,212.737 126.5,211.5C 129.089,211.539 131.089,210.539 132.5,208.5C 140.151,205.341 147.484,201.675 154.5,197.5C 155.79,198.058 156.623,199.058 157,200.5C 157.062,198.885 157.229,197.552 157.5,196.5C 158.807,195.847 160.14,195.18 161.5,194.5C 162.735,195.34 163.735,196.34 164.5,197.5C 164.328,198.492 164.662,199.158 165.5,199.5C 165.33,200.822 165.663,201.989 166.5,203C 165.29,204.039 164.29,205.206 163.5,206.5C 160.979,206.836 158.979,208.503 157.5,211.5C 140.886,219.473 124.219,227.473 107.5,235.5C 107.167,235.167 106.833,234.833 106.5,234.5C 108.038,230.593 109.704,226.76 111.5,223C 108.701,223.732 106.034,225.066 103.5,227C 101.888,227.72 100.388,227.554 99,226.5C 92.2657,210.63 86.9323,194.297 83,177.5C 81.6442,170.424 82.6442,163.757 86,157.5C 88.8699,152.325 92.7032,151.325 97.5,154.5 Z"/></g>
<g><path style="opacity:1" fill="#8b9194" d="M 97.5,154.5 C 98.7498,154.577 99.5831,155.244 100,156.5C 101.352,159.72 102.186,163.053 102.5,166.5C 100.852,162.571 99.1848,158.571 97.5,154.5 Z"/></g>
<g><path style="opacity:1" fill="#6a7176" d="M 223.5,153.5 C 225.379,153.393 225.712,153.893 224.5,155C 220.414,156.531 216.414,157.364 212.5,157.5C 216.271,156.135 219.937,154.802 223.5,153.5 Z"/></g>
<g><path style="opacity:1" fill="#2b363c" d="M 68.5,171.5 C 67.0821,169.692 65.0821,169.025 62.5,169.5C 62.5,166.833 62.5,164.167 62.5,161.5C 65.8333,161.5 69.1667,161.5 72.5,161.5C 71.7365,165.137 70.4032,168.47 68.5,171.5 Z"/></g>
<g><path style="opacity:1" fill="#fafbfb" d="M 181.5,162.5 C 182.143,166.433 181.143,169.766 178.5,172.5C 175.926,173.992 176.26,174.992 179.5,175.5C 182.176,175.061 184.509,174.061 186.5,172.5C 192.129,171.071 197.463,169.071 202.5,166.5C 204.806,166.007 207.139,165.674 209.5,165.5C 209.5,166.833 209.5,168.167 209.5,169.5C 207.447,169.402 205.78,170.069 204.5,171.5C 200.314,172.229 196.314,173.562 192.5,175.5C 191.479,176.002 191.312,176.668 192,177.5C 198.42,177.865 204.92,178.031 211.5,178C 212.252,178.671 212.586,179.504 212.5,180.5C 205.604,181.756 198.604,182.423 191.5,182.5C 191.33,183.822 191.663,184.989 192.5,186C 197.827,186.943 203.16,187.777 208.5,188.5C 208.5,189.5 208.5,190.5 208.5,191.5C 203.501,190.916 198.501,190.749 193.5,191C 195.577,192.705 197.91,193.872 200.5,194.5C 201.11,195.391 201.443,196.391 201.5,197.5C 198.037,196.901 194.704,195.901 191.5,194.5C 189.833,193.167 188.167,193.167 186.5,194.5C 185.167,194.5 183.833,194.5 182.5,194.5C 179.15,194.335 175.817,194.502 172.5,195C 171.944,195.383 171.611,195.883 171.5,196.5C 169.973,196.427 168.973,197.094 168.5,198.5C 167.391,198.557 166.391,198.89 165.5,199.5C 164.662,199.158 164.328,198.492 164.5,197.5C 164.007,195.194 163.674,192.861 163.5,190.5C 165.781,186.561 167.114,182.228 167.5,177.5C 172.863,173.071 177.53,168.071 181.5,162.5 Z"/></g>
<g><path style="opacity:1" fill="#898f92" d="M 181.5,162.5 C 184.563,166.983 183.563,170.316 178.5,172.5C 181.143,169.766 182.143,166.433 181.5,162.5 Z"/></g>
<g><path style="opacity:1" fill="#777d81" d="M 209.5,165.5 C 207.139,165.674 204.806,166.007 202.5,166.5C 204.655,164.466 206.988,164.133 209.5,165.5 Z"/></g>
<g><path style="opacity:1" fill="#636b70" d="M 121.5,161.5 C 122.657,164.273 123.324,167.273 123.5,170.5C 122.833,171.833 122.167,173.167 121.5,174.5C 121.5,170.167 121.5,165.833 121.5,161.5 Z"/></g>
<g><path style="opacity:1" fill="#848b8e" d="M 102.5,166.5 C 105.791,176.986 108.791,187.652 111.5,198.5C 107.276,188.282 104.276,177.615 102.5,166.5 Z"/></g>
<g><path style="opacity:1" fill="#edeeef" d="M 10.5,162.5 C 16.2695,171.639 19.7695,181.639 21,192.5C 21.3333,207.167 21.6667,221.833 22,236.5C 22.6314,249.687 24.4647,262.687 27.5,275.5C 26.8333,275.5 26.1667,275.5 25.5,275.5C 22.6015,265.384 20.7682,255.05 20,244.5C 19.5001,230.171 19.3334,215.837 19.5,201.5C 19.3414,190.873 17.0081,180.873 12.5,171.5C 11.9213,168.669 10.588,166.336 8.5,164.5C 8.5,163.167 9.16667,162.5 10.5,162.5 Z"/></g>
<g><path style="opacity:1" fill="#7e8487" d="M 12.5,171.5 C 17.0081,180.873 19.3414,190.873 19.5,201.5C 18.8333,200.833 18.1667,200.167 17.5,199.5C 16.8902,198.609 16.5569,197.609 16.5,196.5C 17.6291,194.372 17.7958,192.039 17,189.5C 15.7996,183.404 14.2996,177.404 12.5,171.5 Z"/></g>
<g><path style="opacity:1" fill="#7b8185" d="M 178.5,172.5 C 178.369,173.376 178.702,174.043 179.5,174.5C 181.729,173.423 184.063,172.756 186.5,172.5C 184.509,174.061 182.176,175.061 179.5,175.5C 176.26,174.992 175.926,173.992 178.5,172.5 Z"/></g>
<g><path style="opacity:1" fill="#888d91" d="M 204.5,171.5 C 201.394,173.268 198.061,174.768 194.5,176C 200.5,176.333 206.5,176.667 212.5,177C 213.791,178.292 213.791,179.458 212.5,180.5C 212.586,179.504 212.252,178.671 211.5,178C 204.92,178.031 198.42,177.865 192,177.5C 191.312,176.668 191.479,176.002 192.5,175.5C 196.314,173.562 200.314,172.229 204.5,171.5 Z"/></g>
<g><path style="opacity:1" fill="#c6c6c8" d="M 123.5,170.5 C 122.723,183.827 122.056,197.161 121.5,210.5C 120.71,211.609 120.21,212.942 120,214.5C 119.184,203.275 119.684,192.109 121.5,181C 121.486,179.615 121.152,178.449 120.5,177.5C 120.263,176.209 120.596,175.209 121.5,174.5C 122.167,173.167 122.833,171.833 123.5,170.5 Z"/></g>
<g><path style="opacity:1" fill="#4f565b" d="M 81.5,198.5 C 76.3347,187.483 74.1681,175.817 75,163.5C 75.4709,161.754 76.1376,160.087 77,158.5C 75.7109,164.038 75.3775,169.705 76,175.5C 77.9437,183.159 79.777,190.826 81.5,198.5 Z"/></g>
<g><path style="opacity:1" fill="#808589" d="M 239.5,178.5 C 241.754,179.124 243.421,180.457 244.5,182.5C 230.99,182.171 217.656,182.504 204.5,183.5C 190.071,183.415 190.071,184.415 204.5,186.5C 206.375,186.37 208.208,186.037 210,185.5C 212.074,186.072 213.24,187.405 213.5,189.5C 212.518,188.859 211.518,188.193 210.5,187.5C 209.893,187.624 209.56,187.957 209.5,188.5C 209.167,188.5 208.833,188.5 208.5,188.5C 203.16,187.777 197.827,186.943 192.5,186C 191.663,184.989 191.33,183.822 191.5,182.5C 198.604,182.423 205.604,181.756 212.5,180.5C 221.991,181.658 231.658,181.825 241.5,181C 240.244,180.583 239.577,179.75 239.5,178.5 Z"/></g>
<g><path style="opacity:1" fill="#999ea1" d="M 167.5,177.5 C 167.114,182.228 165.781,186.561 163.5,190.5C 163.993,188.194 164.326,185.861 164.5,183.5C 160.629,183.185 156.962,183.518 153.5,184.5C 152.833,183.833 152.167,183.167 151.5,182.5C 155.97,181.514 160.637,181.181 165.5,181.5C 165.365,179.028 166.032,177.694 167.5,177.5 Z"/></g>
<g><path style="opacity:1" fill="#aeb3b5" d="M 204.5,183.5 C 217.656,182.504 230.99,182.171 244.5,182.5C 246.749,183.08 248.415,184.413 249.5,186.5C 247.804,186.315 246.471,185.481 245.5,184C 231.837,183.5 218.171,183.333 204.5,183.5 Z"/></g>
<g><path style="opacity:1" fill="#303b41" d="M 128.5,162.5 C 126.426,168.275 125.426,174.275 125.5,180.5C 126.219,189.487 126.552,198.487 126.5,207.5C 126.5,208.833 126.5,210.167 126.5,211.5C 125.035,212.737 123.368,213.737 121.5,214.5C 121.5,213.167 121.5,211.833 121.5,210.5C 122.056,197.161 122.723,183.827 123.5,170.5C 123.324,167.273 122.657,164.273 121.5,161.5C 121.5,160.833 121.5,160.167 121.5,159.5C 122.117,159.611 122.617,159.944 123,160.5C 126.096,156.707 127.93,157.374 128.5,162.5 Z"/></g>
<g><path style="opacity:1" fill="#fafbfb" d="M 163.5,190.5 C 162.237,192.807 160.237,194.141 157.5,194.5C 156.167,191.167 154.833,187.833 153.5,184.5C 156.962,183.518 160.629,183.185 164.5,183.5C 164.326,185.861 163.993,188.194 163.5,190.5 Z"/></g>
<g><path style="opacity:0.99" fill="#fdfdfd" d="M 245.5,88.5 C 246.568,89.4345 247.901,89.7678 249.5,89.5C 256.504,89.7731 263.504,90.1064 270.5,90.5C 272.265,91.4614 274.265,91.7947 276.5,91.5C 284.154,92.0705 291.821,92.4038 299.5,92.5C 299.5,137.167 299.5,181.833 299.5,226.5C 301.833,226.5 304.167,226.5 306.5,226.5C 307.167,223.5 307.833,220.5 308.5,217.5C 320.537,226.192 332.87,234.525 345.5,242.5C 357.953,250.375 369.953,258.709 381.5,267.5C 346.812,269.168 312.146,271.168 277.5,273.5C 279.954,272.379 282.621,271.546 285.5,271C 286.381,270.292 287.047,269.458 287.5,268.5C 288.295,263.451 285.962,260.951 280.5,261C 287.563,263.436 287.896,265.602 281.5,267.5C 272.105,269.021 262.771,270.854 253.5,273C 254.737,273.232 255.737,273.732 256.5,274.5C 236.5,275.833 216.5,277.167 196.5,278.5C 184.99,254.808 173.99,230.808 163.5,206.5C 166.966,205.891 167.966,204.058 166.5,201C 167.381,200.292 168.047,199.458 168.5,198.5C 170.027,198.573 171.027,197.906 171.5,196.5C 174.167,200.5 176.833,204.5 179.5,208.5C 180.326,211.485 181.659,214.151 183.5,216.5C 184.742,220.655 186.742,224.322 189.5,227.5C 190.326,230.485 191.659,233.151 193.5,235.5C 194.742,239.655 196.742,243.322 199.5,246.5C 199.328,247.492 199.662,248.158 200.5,248.5C 200.5,249.833 200.5,251.167 200.5,252.5C 218.5,248.833 236.5,245.167 254.5,241.5C 254.33,240.178 254.663,239.011 255.5,238C 254.956,237.283 254.289,236.783 253.5,236.5C 252.92,234.251 251.587,232.585 249.5,231.5C 249.5,230.167 248.833,229.5 247.5,229.5C 246.92,227.251 245.587,225.585 243.5,224.5C 243.5,223.167 242.833,222.5 241.5,222.5C 240.581,219.911 238.914,217.911 236.5,216.5C 235.243,213.573 233.243,211.239 230.5,209.5C 229.243,206.573 227.243,204.239 224.5,202.5C 223.92,200.251 222.587,198.585 220.5,197.5C 220.5,196.167 219.833,195.5 218.5,195.5C 217.581,192.911 215.914,190.911 213.5,189.5C 213.24,187.405 212.074,186.072 210,185.5C 208.208,186.037 206.375,186.37 204.5,186.5C 190.071,184.415 190.071,183.415 204.5,183.5C 218.171,183.333 231.837,183.5 245.5,184C 246.471,185.481 247.804,186.315 249.5,186.5C 248.415,184.413 246.749,183.08 244.5,182.5C 243.421,180.457 241.754,179.124 239.5,178.5C 238.421,176.457 236.754,175.124 234.5,174.5C 234.5,145.833 234.5,117.167 234.5,88.5C 238.167,88.5 241.833,88.5 245.5,88.5 Z"/></g>
<g><path style="opacity:1" fill="#424b50" d="M 289.5,96.5 C 291.167,96.5 292.833,96.5 294.5,96.5C 294.833,130.84 294.5,165.173 293.5,199.5C 292.893,199.376 292.56,199.043 292.5,198.5C 293.498,165.004 293.832,131.337 293.5,97.5C 291.901,97.7678 290.568,97.4345 289.5,96.5 Z"/></g>
<g><path style="opacity:1" fill="#18181e" d="M 242.5,92.5 C 258.211,93.4264 273.878,94.7598 289.5,96.5C 290.568,97.4345 291.901,97.7678 293.5,97.5C 293.832,131.337 293.498,165.004 292.5,198.5C 274.194,188.013 256.194,177.013 238.5,165.5C 238.5,141.167 238.5,116.833 238.5,92.5C 239.833,92.5 241.167,92.5 242.5,92.5 Z"/></g>
<g><path style="opacity:1" fill="#353c42" d="M 288.5,107.5 C 289.829,134.336 289.829,161.336 288.5,188.5C 287.893,188.376 287.56,188.043 287.5,187.5C 288.498,161.005 288.831,134.339 288.5,107.5 Z"/></g>
<g><path style="opacity:1" fill="#353d43" d="M 248.5,97.5 C 246.5,97.5 244.5,97.5 242.5,97.5C 242.178,119.242 242.512,140.909 243.5,162.5C 241.511,140.859 240.844,118.859 241.5,96.5C 244.059,96.1984 246.393,96.5318 248.5,97.5 Z"/></g>
<g><path style="opacity:1" fill="#f1f2f2" d="M 248.5,97.5 C 252.306,97.5025 254.973,99.1691 256.5,102.5C 267.082,104.726 277.749,106.393 288.5,107.5C 288.831,134.339 288.498,161.005 287.5,187.5C 273.166,178.664 258.5,170.331 243.5,162.5C 242.512,140.909 242.178,119.242 242.5,97.5C 244.5,97.5 246.5,97.5 248.5,97.5 Z"/></g>
<g><path style="opacity:1" fill="#3c454b" d="M 284.5,111.5 C 285.832,122.981 286.499,134.814 286.5,147C 286.333,158.833 286.167,170.667 286,182.5C 285.005,181.934 284.172,181.267 283.5,180.5C 284.832,169.52 285.499,158.187 285.5,146.5C 285.49,134.76 285.157,123.093 284.5,111.5 Z"/></g>
<g><path style="opacity:1" fill="#15131a" d="M 249.5,105.5 C 261.29,106.965 272.957,108.965 284.5,111.5C 285.157,123.093 285.49,134.76 285.5,146.5C 285.499,158.187 284.832,169.52 283.5,180.5C 270.544,174.356 257.878,167.689 245.5,160.5C 245.5,142.167 245.5,123.833 245.5,105.5C 246.833,105.5 248.167,105.5 249.5,105.5 Z"/></g>
<g><path style="opacity:1" fill="#29343a" d="M 258.5,129.5 C 265.733,128.892 270.899,131.892 274,138.5C 275.476,143.076 275.81,147.743 275,152.5C 272.185,158.169 267.685,160.002 261.5,158C 250.963,149.238 249.963,139.738 258.5,129.5 Z"/></g>
<g><path style="opacity:1" fill="#ecedee" d="M 257.5,135.5 C 258.239,135.369 258.906,135.536 259.5,136C 260.956,137.745 262.289,139.578 263.5,141.5C 265.149,140.352 266.649,139.019 268,137.5C 268.87,138.108 269.37,138.941 269.5,140C 268.375,141.963 267.041,143.796 265.5,145.5C 266.667,147.167 267.833,148.833 269,150.5C 269.781,151.944 269.614,153.277 268.5,154.5C 266.886,152.25 265.053,150.25 263,148.5C 261.756,150.576 259.923,151.576 257.5,151.5C 257.642,148.383 258.976,145.883 261.5,144C 259.218,141.603 257.884,138.769 257.5,135.5 Z"/></g>
<g><path style="opacity:1" fill="#444d52" d="M 249.5,105.5 C 248.167,105.5 246.833,105.5 245.5,105.5C 245.5,123.833 245.5,142.167 245.5,160.5C 244.503,142.007 244.17,123.341 244.5,104.5C 246.415,104.216 248.081,104.549 249.5,105.5 Z"/></g>
<g><path style="opacity:1" fill="#979c9e" d="M 242.5,92.5 C 241.167,92.5 239.833,92.5 238.5,92.5C 238.5,116.833 238.5,141.167 238.5,165.5C 237.502,141.006 237.169,116.339 237.5,91.5C 239.415,91.2155 241.081,91.5489 242.5,92.5 Z"/></g>
<g><path style="opacity:1" fill="#354046" d="M 151.5,182.5 C 152.167,183.167 152.833,183.833 153.5,184.5C 154.833,187.833 156.167,191.167 157.5,194.5C 157.5,195.167 157.5,195.833 157.5,196.5C 157.229,197.552 157.062,198.885 157,200.5C 156.623,199.058 155.79,198.058 154.5,197.5C 152.119,192.802 151.119,187.802 151.5,182.5 Z"/></g>
<g><path style="opacity:1" fill="#8d9396" d="M 249.5,186.5 C 251.749,187.08 253.415,188.413 254.5,190.5C 252.251,189.92 250.585,188.587 249.5,186.5 Z"/></g>
<g><path style="opacity:1" fill="#fcfcfc" d="M 49.5,189.5 C 54.1667,189.5 58.8333,189.5 63.5,189.5C 63.5,190.5 63.5,191.5 63.5,192.5C 63.5,193.5 63.5,194.5 63.5,195.5C 58.8333,195.5 54.1667,195.5 49.5,195.5C 49.5,193.5 49.5,191.5 49.5,189.5 Z"/></g>
<g><path style="opacity:1" fill="#899093" d="M 254.5,190.5 C 256.196,190.685 257.529,191.519 258.5,193C 256.588,193.279 255.254,192.446 254.5,190.5 Z"/></g>
<g><path style="opacity:1" fill="#7b8386" d="M 163.5,190.5 C 163.674,192.861 164.007,195.194 164.5,197.5C 163.735,196.34 162.735,195.34 161.5,194.5C 160.14,195.18 158.807,195.847 157.5,196.5C 157.5,195.833 157.5,195.167 157.5,194.5C 160.237,194.141 162.237,192.807 163.5,190.5 Z"/></g>
<g><path style="opacity:1" fill="#3e494e" d="M 208.5,188.5 C 208.833,188.5 209.167,188.5 209.5,188.5C 210.974,189.436 211.974,190.77 212.5,192.5C 209.626,192.451 206.792,192.784 204,193.5C 202.289,193.561 200.956,192.894 200,191.5C 199.53,192.577 199.697,193.577 200.5,194.5C 197.91,193.872 195.577,192.705 193.5,191C 198.501,190.749 203.501,190.916 208.5,191.5C 208.5,190.5 208.5,189.5 208.5,188.5 Z"/></g>
<g><path style="opacity:1" fill="#8d9497" d="M 213.5,189.5 C 215.914,190.911 217.581,192.911 218.5,195.5C 216.086,194.089 214.419,192.089 213.5,189.5 Z"/></g>
<g><path style="opacity:1" fill="#303b41" d="M 182.5,194.5 C 183.833,194.5 185.167,194.5 186.5,194.5C 187.478,194.811 188.145,195.478 188.5,196.5C 186.141,197.714 183.808,197.714 181.5,196.5C 181.833,195.833 182.167,195.167 182.5,194.5 Z"/></g>
<g><path style="opacity:1" fill="#eeeff0" d="M 209.5,188.5 C 209.56,187.957 209.893,187.624 210.5,187.5C 211.518,188.193 212.518,188.859 213.5,189.5C 214.419,192.089 216.086,194.089 218.5,195.5C 219.833,195.5 220.5,196.167 220.5,197.5C 221.08,199.749 222.413,201.415 224.5,202.5C 225.757,205.427 227.757,207.761 230.5,209.5C 231.757,212.427 233.757,214.761 236.5,216.5C 237.419,219.089 239.086,221.089 241.5,222.5C 242.833,222.5 243.5,223.167 243.5,224.5C 244.08,226.749 245.413,228.415 247.5,229.5C 248.833,229.5 249.5,230.167 249.5,231.5C 250.08,233.749 251.413,235.415 253.5,236.5C 236.953,241.384 220.12,245.717 203,249.5C 202.098,249.257 201.265,248.923 200.5,248.5C 199.662,248.158 199.328,247.492 199.5,246.5C 198.258,242.345 196.258,238.678 193.5,235.5C 191.659,233.151 190.326,230.485 189.5,227.5C 188.258,223.345 186.258,219.678 183.5,216.5C 181.659,214.151 180.326,211.485 179.5,208.5C 178.119,204.736 176.453,201.069 174.5,197.5C 174.957,196.702 175.624,196.369 176.5,196.5C 177.351,198.882 178.684,200.882 180.5,202.5C 180.5,202.833 180.5,203.167 180.5,203.5C 180.856,205.19 181.856,206.19 183.5,206.5C 183.5,206.833 183.5,207.167 183.5,207.5C 183.062,207.435 182.728,207.601 182.5,208C 183.078,209.417 184.078,210.25 185.5,210.5C 185.5,210.833 185.5,211.167 185.5,211.5C 184.884,212.202 184.884,213.202 185.5,214.5C 185.932,215.71 186.599,216.71 187.5,217.5C 187.973,218.906 188.973,219.573 190.5,219.5C 190.5,219.833 190.5,220.167 190.5,220.5C 190.062,220.435 189.728,220.601 189.5,221C 190.103,223.071 191.436,224.238 193.5,224.5C 193.5,224.833 193.5,225.167 193.5,225.5C 192.472,227.902 193.472,229.402 196.5,230C 195.833,230.333 195.167,230.667 194.5,231C 195.103,233.071 196.436,234.238 198.5,234.5C 198.5,234.833 198.5,235.167 198.5,235.5C 197.957,235.56 197.624,235.893 197.5,236.5C 198.994,238.574 200.327,240.74 201.5,243C 203.387,243.78 205.054,243.613 206.5,242.5C 206.833,242.5 207.167,242.5 207.5,242.5C 209.786,242.405 211.786,241.738 213.5,240.5C 213.833,240.5 214.167,240.5 214.5,240.5C 217.577,240.821 219.91,239.821 221.5,237.5C 224.104,238.53 226.771,238.53 229.5,237.5C 230.791,237.737 231.791,237.404 232.5,236.5C 234.848,236.408 236.514,235.408 237.5,233.5C 240.051,234.949 242.385,234.615 244.5,232.5C 243.812,231.145 242.812,230.145 241.5,229.5C 241.672,228.508 241.338,227.842 240.5,227.5C 239.738,225.738 238.404,224.738 236.5,224.5C 236.5,224.167 236.5,223.833 236.5,223.5C 236.938,223.565 237.272,223.399 237.5,223C 236.619,222.292 235.953,221.458 235.5,220.5C 235.158,219.662 234.492,219.328 233.5,219.5C 233.262,217.596 232.262,216.262 230.5,215.5C 230.672,214.508 230.338,213.842 229.5,213.5C 228.833,212.5 228.167,211.5 227.5,210.5C 227.167,209.5 226.5,208.833 225.5,208.5C 224.365,206.787 222.698,206.12 220.5,206.5C 220.5,206.167 220.5,205.833 220.5,205.5C 222.028,205.483 222.528,204.816 222,203.5C 220.644,202.62 219.144,202.286 217.5,202.5C 217.5,202.167 217.5,201.833 217.5,201.5C 218.239,201.631 218.906,201.464 219.5,201C 217.361,198.522 215.361,196.022 213.5,193.5C 213.5,192.833 213.167,192.5 212.5,192.5C 211.974,190.77 210.974,189.436 209.5,188.5 Z"/></g>
<g><path style="opacity:1" fill="#434d52" d="M 213.5,193.5 C 215.361,196.022 217.361,198.522 219.5,201C 218.906,201.464 218.239,201.631 217.5,201.5C 215.897,201.688 214.563,201.188 213.5,200C 214.167,199.667 214.833,199.333 215.5,199C 212.594,197.979 210.594,196.479 209.5,194.5C 210.689,193.571 212.022,193.238 213.5,193.5 Z"/></g>
<g><path style="opacity:1" fill="#f9f9f9" d="M 63.5,197.5 C 61.3559,212.076 59.6892,226.743 58.5,241.5C 57.0813,242.451 55.4147,242.784 53.5,242.5C 51.6156,227.221 50.2823,211.888 49.5,196.5C 54.3633,196.181 59.03,196.514 63.5,197.5 Z"/></g>
<g><path style="opacity:1" fill="#81888c" d="M 171.5,196.5 C 171.027,197.906 170.027,198.573 168.5,198.5C 168.973,197.094 169.973,196.427 171.5,196.5 Z"/></g>
<g><path style="opacity:1" fill="#2d393e" d="M 283.5,213.5 C 282.678,215.389 281.845,217.389 281,219.5C 280.329,220.252 279.496,220.586 278.5,220.5C 278.672,219.508 278.338,218.842 277.5,218.5C 272.167,212.5 266.5,206.833 260.5,201.5C 261.011,199.805 261.678,198.139 262.5,196.5C 269.833,201.841 276.833,207.508 283.5,213.5 Z"/></g>
<g><path style="opacity:1" fill="#3d484d" d="M 181.5,197.5 C 181.082,198.222 180.416,198.722 179.5,199C 183.943,199.848 184.276,201.014 180.5,202.5C 178.684,200.882 177.351,198.882 176.5,196.5C 178.357,195.235 180.024,195.568 181.5,197.5 Z"/></g>
<g><path style="opacity:1" fill="#899093" d="M 220.5,197.5 C 222.587,198.585 223.92,200.251 224.5,202.5C 222.413,201.415 221.08,199.749 220.5,197.5 Z"/></g>
<g><path style="opacity:1" fill="#798184" d="M 168.5,198.5 C 168.047,199.458 167.381,200.292 166.5,201C 167.966,204.058 166.966,205.891 163.5,206.5C 164.29,205.206 165.29,204.039 166.5,203C 165.663,201.989 165.33,200.822 165.5,199.5C 166.391,198.89 167.391,198.557 168.5,198.5 Z"/></g>
<g><path style="opacity:1" fill="#50565b" d="M 81.5,198.5 C 84.2339,204.203 86.0672,210.203 87,216.5C 84.4541,210.697 82.6208,204.697 81.5,198.5 Z"/></g>
<g><path style="opacity:1" fill="#909699" d="M 182.5,194.5 C 182.167,195.167 181.833,195.833 181.5,196.5C 181.5,196.833 181.5,197.167 181.5,197.5C 180.024,195.568 178.357,195.235 176.5,196.5C 175.624,196.369 174.957,196.702 174.5,197.5C 176.453,201.069 178.119,204.736 179.5,208.5C 176.833,204.5 174.167,200.5 171.5,196.5C 171.611,195.883 171.944,195.383 172.5,195C 175.817,194.502 179.15,194.335 182.5,194.5 Z"/></g>
<g><path style="opacity:1" fill="#2f3a40" d="M 217.5,202.5 C 219.144,202.286 220.644,202.62 222,203.5C 222.528,204.816 222.028,205.483 220.5,205.5C 217.506,205.854 216.506,204.854 217.5,202.5 Z"/></g>
<g><path style="opacity:1" fill="#2f3b41" d="M 183.5,206.5 C 181.856,206.19 180.856,205.19 180.5,203.5C 181.967,202.708 183.3,202.708 184.5,203.5C 184.709,204.086 185.043,204.586 185.5,205C 184.584,205.278 183.918,205.778 183.5,206.5 Z"/></g>
<g><path style="opacity:1" fill="#303b41" d="M 220.5,206.5 C 222.698,206.12 224.365,206.787 225.5,208.5C 223.267,211.188 221.267,211.021 219.5,208C 220.056,207.617 220.389,207.117 220.5,206.5 Z"/></g>
<g><path style="opacity:1" fill="#8d9396" d="M 224.5,202.5 C 227.243,204.239 229.243,206.573 230.5,209.5C 227.757,207.761 225.757,205.427 224.5,202.5 Z"/></g>
<g><path style="opacity:1" fill="#868d90" d="M 260.5,201.5 C 260.389,202.117 260.056,202.617 259.5,203C 255.203,204.158 250.869,205.158 246.5,206C 248.638,207.422 249.805,209.255 250,211.5C 247.418,209.772 245.918,207.439 245.5,204.5C 250.584,203.883 255.584,202.883 260.5,201.5 Z"/></g>
<g><path style="opacity:1" fill="#313c42" d="M 185.5,210.5 C 184.078,210.25 183.078,209.417 182.5,208C 182.728,207.601 183.062,207.435 183.5,207.5C 187.448,206.443 188.115,207.443 185.5,210.5 Z"/></g>
<g><path style="opacity:1" fill="#28343a" d="M 163.5,206.5 C 173.99,230.808 184.99,254.808 196.5,278.5C 197.234,279.708 197.567,281.041 197.5,282.5C 196.5,282.5 195.5,282.5 194.5,282.5C 191.402,280.108 188.069,277.942 184.5,276C 158.169,275.5 131.835,275.333 105.5,275.5C 110.237,272.957 114.903,270.123 119.5,267C 120.965,265.226 122.298,263.392 123.5,261.5C 121.766,257.298 120.433,252.965 119.5,248.5C 119.756,246.208 119.423,244.041 118.5,242C 121.71,239.283 125.044,236.783 128.5,234.5C 126.842,243.093 126.009,251.76 126,260.5C 140.745,253.307 156.245,248.64 172.5,246.5C 168.973,235.754 165.14,225.088 161,214.5C 160.578,212.574 159.411,211.574 157.5,211.5C 158.979,208.503 160.979,206.836 163.5,206.5 Z"/></g>
<g><path style="opacity:1" fill="#787f83" d="M 126.5,207.5 C 127.268,208.263 127.768,209.263 128,210.5C 129.33,209.418 130.83,208.751 132.5,208.5C 131.089,210.539 129.089,211.539 126.5,211.5C 126.5,210.167 126.5,208.833 126.5,207.5 Z"/></g>
<g><path style="opacity:1" fill="#2d393f" d="M 227.5,210.5 C 228.167,211.5 228.833,212.5 229.5,213.5C 227.901,215.729 225.901,216.062 223.5,214.5C 222.487,211.572 223.82,210.238 227.5,210.5 Z"/></g>
<g><path style="opacity:1" fill="#8c9295" d="M 120.5,177.5 C 121.152,178.449 121.486,179.615 121.5,181C 119.684,192.109 119.184,203.275 120,214.5C 120.21,212.942 120.71,211.609 121.5,210.5C 121.5,211.833 121.5,213.167 121.5,214.5C 119.951,216.405 118.118,216.739 116,215.5C 114.185,209.894 112.685,204.227 111.5,198.5C 113.599,203.286 115.432,208.286 117,213.5C 117.674,201.445 118.84,189.445 120.5,177.5 Z"/></g>
<g><path style="opacity:1" fill="#cecdcf" d="M 157.5,211.5 C 159.411,211.574 160.578,212.574 161,214.5C 165.14,225.088 168.973,235.754 172.5,246.5C 156.245,248.64 140.745,253.307 126,260.5C 126.009,251.76 126.842,243.093 128.5,234.5C 138.46,227.207 148.127,219.54 157.5,211.5 Z"/></g>
<g><path style="opacity:1" fill="#313c42" d="M 185.5,214.5 C 184.884,213.202 184.884,212.202 185.5,211.5C 188.371,210.014 189.705,211.014 189.5,214.5C 188.167,214.5 186.833,214.5 185.5,214.5 Z"/></g>
<g><path style="opacity:1" fill="#8c9295" d="M 230.5,209.5 C 233.243,211.239 235.243,213.573 236.5,216.5C 233.757,214.761 231.757,212.427 230.5,209.5 Z"/></g>
<g><path style="opacity:1" fill="#888e92" d="M 283.5,213.5 C 285.404,213.738 286.738,214.738 287.5,216.5C 285.596,216.262 284.262,215.262 283.5,213.5 Z"/></g>
<g><path style="opacity:1" fill="#2c383e" d="M 190.5,219.5 C 188.973,219.573 187.973,218.906 187.5,217.5C 189.126,214.922 190.792,215.088 192.5,218C 191.584,218.278 190.918,218.778 190.5,219.5 Z"/></g>
<g><path style="opacity:1" fill="#313c42" d="M 230.5,215.5 C 232.262,216.262 233.262,217.596 233.5,219.5C 230.723,220.528 228.39,220.195 226.5,218.5C 227.448,217.022 228.781,216.022 230.5,215.5 Z"/></g>
<g><path style="opacity:1" fill="#2d383e" d="M 226.5,218.5 C 226.441,220.722 225.275,221.722 223,221.5C 221.167,221.481 219.667,220.815 218.5,219.5C 221.004,217.874 223.67,217.541 226.5,218.5 Z"/></g>
<g><path style="opacity:1" fill="#8c9295" d="M 287.5,216.5 C 289.749,217.08 291.415,218.413 292.5,220.5C 290.251,219.92 288.585,218.587 287.5,216.5 Z"/></g>
<g><path style="opacity:1" fill="#fcfcfc" d="M 119.5,248.5 C 120.433,252.965 121.766,257.298 123.5,261.5C 112.327,266.759 100.994,271.426 89.5,275.5C 88.8333,275.5 88.1667,275.5 87.5,275.5C 87.4207,272.729 87.9207,270.063 89,267.5C 97.0161,256.017 95.5161,254.684 84.5,263.5C 84.0023,248.128 84.8356,232.794 87,217.5C 90.6875,229.2 95.1875,240.534 100.5,251.5C 102.098,252.485 103.765,252.651 105.5,252C 110.1,249.785 114.266,246.952 118,243.5C 118.198,245.382 118.698,247.048 119.5,248.5 Z"/></g>
<g><path style="opacity:1" fill="#2c383e" d="M 193.5,224.5 C 191.436,224.238 190.103,223.071 189.5,221C 189.728,220.601 190.062,220.435 190.5,220.5C 193.033,219.146 194.7,219.98 195.5,223C 194.584,223.278 193.918,223.778 193.5,224.5 Z"/></g>
<g><path style="opacity:1" fill="#2d393f" d="M 218.5,219.5 C 219.171,220.847 219.171,222.014 218.5,223C 215.829,223.833 213.496,223.333 211.5,221.5C 213.515,220.076 215.848,219.41 218.5,219.5 Z"/></g>
<g><path style="opacity:1" fill="#8e9497" d="M 236.5,216.5 C 238.914,217.911 240.581,219.911 241.5,222.5C 239.086,221.089 237.419,219.089 236.5,216.5 Z"/></g>
<g><path style="opacity:1" fill="#303b41" d="M 235.5,220.5 C 235.953,221.458 236.619,222.292 237.5,223C 237.272,223.399 236.938,223.565 236.5,223.5C 233.868,225.063 231.535,224.73 229.5,222.5C 230.99,220.72 232.99,220.054 235.5,220.5 Z"/></g>
<g><path style="opacity:1" fill="#8a9194" d="M 183.5,216.5 C 186.258,219.678 188.258,223.345 189.5,227.5C 186.742,224.322 184.742,220.655 183.5,216.5 Z"/></g>
<g><path style="opacity:1" fill="#2e3a3f" d="M 211.5,221.5 C 212.171,222.847 212.171,224.014 211.5,225C 209.342,225.909 207.342,226.075 205.5,225.5C 205.586,224.504 205.252,223.671 204.5,223C 206.677,221.798 209.011,221.298 211.5,221.5 Z"/></g>
<g><path style="opacity:1" fill="#8b9295" d="M 277.5,218.5 C 278.338,218.842 278.672,219.508 278.5,220.5C 273.074,221.701 267.574,222.701 262,223.5C 257.809,220.989 254.809,217.656 253,213.5C 259.668,222.372 267.835,224.039 277.5,218.5 Z"/></g>
<g><path style="opacity:1" fill="#8a9194" d="M 292.5,220.5 C 294.196,220.685 295.529,221.519 296.5,223C 294.588,223.279 293.254,222.446 292.5,220.5 Z"/></g>
<g><path style="opacity:1" fill="#b4b8ba" d="M 212.5,192.5 C 213.167,192.5 213.5,192.833 213.5,193.5C 212.022,193.238 210.689,193.571 209.5,194.5C 210.594,196.479 212.594,197.979 215.5,199C 214.833,199.333 214.167,199.667 213.5,200C 214.563,201.188 215.897,201.688 217.5,201.5C 217.5,201.833 217.5,202.167 217.5,202.5C 216.506,204.854 217.506,205.854 220.5,205.5C 220.5,205.833 220.5,206.167 220.5,206.5C 220.389,207.117 220.056,207.617 219.5,208C 221.267,211.021 223.267,211.188 225.5,208.5C 226.5,208.833 227.167,209.5 227.5,210.5C 223.82,210.238 222.487,211.572 223.5,214.5C 225.901,216.062 227.901,215.729 229.5,213.5C 230.338,213.842 230.672,214.508 230.5,215.5C 228.781,216.022 227.448,217.022 226.5,218.5C 223.67,217.541 221.004,217.874 218.5,219.5C 215.848,219.41 213.515,220.076 211.5,221.5C 209.011,221.298 206.677,221.798 204.5,223C 205.252,223.671 205.586,224.504 205.5,225.5C 204.21,224.942 203.377,223.942 203,222.5C 200.791,222.989 198.958,223.989 197.5,225.5C 196.167,224.167 194.833,224.167 193.5,225.5C 193.5,225.167 193.5,224.833 193.5,224.5C 193.918,223.778 194.584,223.278 195.5,223C 194.7,219.98 193.033,219.146 190.5,220.5C 190.5,220.167 190.5,219.833 190.5,219.5C 190.918,218.778 191.584,218.278 192.5,218C 190.792,215.088 189.126,214.922 187.5,217.5C 186.599,216.71 185.932,215.71 185.5,214.5C 186.833,214.5 188.167,214.5 189.5,214.5C 189.705,211.014 188.371,210.014 185.5,211.5C 185.5,211.167 185.5,210.833 185.5,210.5C 188.115,207.443 187.448,206.443 183.5,207.5C 183.5,207.167 183.5,206.833 183.5,206.5C 183.918,205.778 184.584,205.278 185.5,205C 185.043,204.586 184.709,204.086 184.5,203.5C 183.3,202.708 181.967,202.708 180.5,203.5C 180.5,203.167 180.5,202.833 180.5,202.5C 184.276,201.014 183.943,199.848 179.5,199C 180.416,198.722 181.082,198.222 181.5,197.5C 181.5,197.167 181.5,196.833 181.5,196.5C 183.808,197.714 186.141,197.714 188.5,196.5C 188.145,195.478 187.478,194.811 186.5,194.5C 188.167,193.167 189.833,193.167 191.5,194.5C 190.624,194.369 189.957,194.702 189.5,195.5C 190.376,196.251 191.376,196.751 192.5,197C 191.584,197.278 190.918,197.778 190.5,198.5C 192.831,199.791 194.997,199.458 197,197.5C 199.158,198.05 199.658,199.05 198.5,200.5C 200.635,201.966 202.635,201.8 204.5,200C 203.429,199.148 202.429,198.315 201.5,197.5C 201.443,196.391 201.11,195.391 200.5,194.5C 199.697,193.577 199.53,192.577 200,191.5C 200.956,192.894 202.289,193.561 204,193.5C 206.792,192.784 209.626,192.451 212.5,192.5 Z"/></g>
<g><path style="opacity:1" fill="#29353b" d="M 199.5,217.5 C 203.525,221.254 202.525,222.754 196.5,222C 195.663,220.989 195.33,219.822 195.5,218.5C 197.099,218.768 198.432,218.434 199.5,217.5 Z"/></g>
<g><path style="opacity:1" fill="#2b373c" d="M 206.5,215.5 C 210.629,218.958 209.795,220.958 204,221.5C 202.991,219.975 202.491,218.308 202.5,216.5C 204.099,216.768 205.432,216.434 206.5,215.5 Z"/></g>
<g><path style="opacity:1" fill="#2b373c" d="M 216.5,216.5 C 212.659,220.931 210.326,220.265 209.5,214.5C 212.188,214.166 214.521,214.832 216.5,216.5 Z"/></g>
<g><path style="opacity:1" fill="#2a363c" d="M 194.5,213.5 C 196.716,213.275 198.383,214.108 199.5,216C 196.862,218.108 194.528,217.941 192.5,215.5C 193.243,214.818 193.909,214.151 194.5,213.5 Z"/></g>
<g><path style="opacity:1" fill="#2b373d" d="M 223.5,214.5 C 221.802,217.175 219.468,217.842 216.5,216.5C 215.829,215.153 215.829,213.986 216.5,213C 219.171,212.167 221.504,212.667 223.5,214.5 Z"/></g>
<g><path style="opacity:1" fill="#2c383e" d="M 205.5,211.5 C 205.414,212.496 205.748,213.329 206.5,214C 203.862,216.108 201.528,215.941 199.5,213.5C 201.304,212.232 203.304,211.565 205.5,211.5 Z"/></g>
<g><path style="opacity:1" fill="#313c42" d="M 212.5,210.5 C 212.5,211.5 212.5,212.5 212.5,213.5C 209.812,213.834 207.479,213.168 205.5,211.5C 207.706,210.028 210.039,209.695 212.5,210.5 Z"/></g>
<g><path style="opacity:1" fill="#2f3a40" d="M 196.5,209.5 C 196.5,210.5 196.5,211.5 196.5,212.5C 195.07,212.421 193.736,212.754 192.5,213.5C 190.889,212.68 190.222,211.346 190.5,209.5C 192.703,209.065 194.703,209.065 196.5,209.5 Z"/></g>
<g><path style="opacity:1" fill="#2e3a3f" d="M 212.5,210.5 C 212.97,209.307 213.97,208.64 215.5,208.5C 217.319,208.342 218.652,209.009 219.5,210.5C 216.88,212.462 214.547,212.462 212.5,210.5 Z"/></g>
<g><path style="opacity:1" fill="#2e393f" d="M 203.5,208.5 C 201.557,211.64 199.224,211.974 196.5,209.5C 198.542,207.409 200.875,207.076 203.5,208.5 Z"/></g>
<g><path style="opacity:1" fill="#2c373d" d="M 203.5,208.5 C 204.184,206.815 205.517,205.815 207.5,205.5C 210.076,207.509 209.576,208.842 206,209.5C 205.098,209.257 204.265,208.923 203.5,208.5 Z"/></g>
<g><path style="opacity:1" fill="#273339" d="M 189.5,205.5 C 195.261,205.87 195.594,206.87 190.5,208.5C 188.197,208.124 187.863,207.124 189.5,205.5 Z"/></g>
<g><path style="opacity:1" fill="#333e44" d="M 208.5,200.5 C 212.203,200.646 214.87,202.48 216.5,206C 214.75,207.319 212.75,207.819 210.5,207.5C 210.36,205.876 211.027,204.71 212.5,204C 211.167,203.667 209.833,203.333 208.5,203C 207.402,202.23 207.402,201.397 208.5,200.5 Z"/></g>
<g><path style="opacity:1" fill="#2f3a40" d="M 196.5,203.5 C 197.833,203.5 199.167,203.5 200.5,203.5C 200.5,204.5 200.5,205.5 200.5,206.5C 198.25,206.819 196.25,206.319 194.5,205C 195.416,204.722 196.082,204.222 196.5,203.5 Z"/></g>
<g><path style="opacity:1" fill="#2a353b" d="M 201.5,202.5 C 207.737,202.319 208.403,203.319 203.5,205.5C 202.081,204.995 201.415,203.995 201.5,202.5 Z"/></g>
<g><path style="opacity:1" fill="#2b363c" d="M 187.5,201.5 C 189.429,201.231 191.095,201.731 192.5,203C 190.167,205 187.833,205 185.5,203C 186.416,202.722 187.082,202.222 187.5,201.5 Z"/></g>
<g><path style="opacity:1" fill="#2f3a40" d="M 198.5,200.5 C 196.591,203.656 194.591,203.823 192.5,201C 194.658,200.091 196.658,199.925 198.5,200.5 Z"/></g>
<g><path style="opacity:1" fill="#303b41" d="M 190.5,198.5 C 189.159,200.12 187.326,201.12 185,201.5C 184.383,200.551 184.549,199.718 185.5,199C 187.134,198.506 188.801,198.34 190.5,198.5 Z"/></g>
<g><path style="opacity:1" fill="#28343a" d="M 205.5,197.5 C 207.288,197.215 208.955,197.548 210.5,198.5C 209.667,198.833 208.833,199.167 208,199.5C 206.624,199.316 205.791,198.649 205.5,197.5 Z"/></g>
<g><path style="opacity:1" fill="#303b41" d="M 204.5,194.5 C 205.978,194.238 207.311,194.571 208.5,195.5C 206.926,196.631 205.259,196.798 203.5,196C 204.056,195.617 204.389,195.117 204.5,194.5 Z"/></g>
<g><path style="opacity:1" fill="#475157" d="M 191.5,194.5 C 194.704,195.901 198.037,196.901 201.5,197.5C 202.429,198.315 203.429,199.148 204.5,200C 202.635,201.8 200.635,201.966 198.5,200.5C 199.658,199.05 199.158,198.05 197,197.5C 194.997,199.458 192.831,199.791 190.5,198.5C 190.918,197.778 191.584,197.278 192.5,197C 191.376,196.751 190.376,196.251 189.5,195.5C 189.957,194.702 190.624,194.369 191.5,194.5 Z"/></g>
<g><path style="opacity:1" fill="#313c42" d="M 205.5,225.5 C 203.37,227.44 201.036,228.106 198.5,227.5C 198.672,226.508 198.338,225.842 197.5,225.5C 198.958,223.989 200.791,222.989 203,222.5C 203.377,223.942 204.21,224.942 205.5,225.5 Z"/></g>
<g><path style="opacity:1" fill="#2c383e" d="M 236.5,224.5 C 238.404,224.738 239.738,225.738 240.5,227.5C 239.01,229.28 237.01,229.946 234.5,229.5C 234.573,227.973 233.906,226.973 232.5,226.5C 233.833,225.833 235.167,225.167 236.5,224.5 Z"/></g>
<g><path style="opacity:1" fill="#2b373d" d="M 232.5,226.5 C 232.427,228.027 233.094,229.027 234.5,229.5C 231.665,231.918 228.831,231.918 226,229.5C 225.409,228.517 225.743,227.85 227,227.5C 228.766,226.767 230.599,226.433 232.5,226.5 Z"/></g>
<g><path style="opacity:1" fill="#8b9194" d="M 243.5,224.5 C 245.587,225.585 246.92,227.251 247.5,229.5C 245.413,228.415 244.08,226.749 243.5,224.5 Z"/></g>
<g><path style="opacity:1" fill="#b6babc" d="M 232.5,226.5 C 233.906,226.973 234.573,227.973 234.5,229.5C 233.094,229.027 232.427,228.027 232.5,226.5 Z"/></g>
<g><path style="opacity:1" fill="#394349" d="M 197.5,225.5 C 198.338,225.842 198.672,226.508 198.5,227.5C 198.389,228.117 198.056,228.617 197.5,229C 200.627,230.65 200.96,232.483 198.5,234.5C 196.436,234.238 195.103,233.071 194.5,231C 195.167,230.667 195.833,230.333 196.5,230C 193.472,229.402 192.472,227.902 193.5,225.5C 194.833,224.167 196.167,224.167 197.5,225.5 Z"/></g>
<g><path style="opacity:1" fill="#b1b6b8" d="M 226.5,218.5 C 228.39,220.195 230.723,220.528 233.5,219.5C 234.492,219.328 235.158,219.662 235.5,220.5C 232.99,220.054 230.99,220.72 229.5,222.5C 231.535,224.73 233.868,225.063 236.5,223.5C 236.5,223.833 236.5,224.167 236.5,224.5C 235.167,225.167 233.833,225.833 232.5,226.5C 230.599,226.433 228.766,226.767 227,227.5C 225.743,227.85 225.409,228.517 226,229.5C 228.831,231.918 231.665,231.918 234.5,229.5C 237.01,229.946 239.01,229.28 240.5,227.5C 241.338,227.842 241.672,228.508 241.5,229.5C 240.432,230.434 239.099,230.768 237.5,230.5C 237.5,231.5 237.5,232.5 237.5,233.5C 235.182,231.579 232.516,231.246 229.5,232.5C 229.088,234.973 230.088,236.306 232.5,236.5C 231.791,237.404 230.791,237.737 229.5,237.5C 228.174,233.176 225.507,232.176 221.5,234.5C 221.5,235.5 221.5,236.5 221.5,237.5C 219.561,235.662 217.228,235.495 214.5,237C 213.316,238.145 213.316,239.312 214.5,240.5C 214.167,240.5 213.833,240.5 213.5,240.5C 212.735,239.34 211.735,238.34 210.5,237.5C 209.264,238.246 207.93,238.579 206.5,238.5C 206.433,239.959 206.766,241.292 207.5,242.5C 207.167,242.5 206.833,242.5 206.5,242.5C 205.573,240.424 203.907,239.257 201.5,239C 202.756,238.583 203.423,237.75 203.5,236.5C 202.185,234.401 200.518,234.067 198.5,235.5C 198.5,235.167 198.5,234.833 198.5,234.5C 200.96,232.483 200.627,230.65 197.5,229C 198.056,228.617 198.389,228.117 198.5,227.5C 201.036,228.106 203.37,227.44 205.5,225.5C 207.342,226.075 209.342,225.909 211.5,225C 212.171,224.014 212.171,222.847 211.5,221.5C 213.496,223.333 215.829,223.833 218.5,223C 219.171,222.014 219.171,220.847 218.5,219.5C 219.667,220.815 221.167,221.481 223,221.5C 225.275,221.722 226.441,220.722 226.5,218.5 Z"/></g>
<g><path style="opacity:1" fill="#2d383e" d="M 218.5,232.5 C 218.586,231.504 218.252,230.671 217.5,230C 221.339,227.456 224.339,228.122 226.5,232C 223.881,233.696 221.214,233.863 218.5,232.5 Z"/></g>
<g><path style="opacity:1" fill="#2e3a40" d="M 204.5,227.5 C 208.808,229.849 208.474,231.516 203.5,232.5C 199.657,230.286 199.99,228.62 204.5,227.5 Z"/></g>
<g><path style="opacity:1" fill="#2b363c" d="M 212.5,225.5 C 216.904,228.664 216.237,230.331 210.5,230.5C 209.09,230.132 208.09,229.299 207.5,228C 209.175,227.015 210.842,226.181 212.5,225.5 Z"/></g>
<g><path style="opacity:1" fill="#29353b" d="M 222.5,225.5 C 221.685,227.302 220.185,228.302 218,228.5C 214.635,226.531 214.968,225.198 219,224.5C 220.256,224.648 221.423,224.982 222.5,225.5 Z"/></g>
<g><path style="opacity:1" fill="#313d42" d="M 229.5,222.5 C 229.414,223.496 229.748,224.329 230.5,225C 227.836,226.513 225.17,226.68 222.5,225.5C 222.414,224.504 222.748,223.671 223.5,223C 225.548,221.759 227.548,221.592 229.5,222.5 Z"/></g>
<g><path style="opacity:1" fill="#2c373d" d="M 218.5,232.5 C 217.852,234.586 216.352,235.586 214,235.5C 211.244,235.576 210.077,234.243 210.5,231.5C 213.516,230.246 216.182,230.579 218.5,232.5 Z"/></g>
<g><path style="opacity:1" fill="#2e3a3f" d="M 241.5,229.5 C 242.812,230.145 243.812,231.145 244.5,232.5C 242.385,234.615 240.051,234.949 237.5,233.5C 237.5,232.5 237.5,231.5 237.5,230.5C 239.099,230.768 240.432,230.434 241.5,229.5 Z"/></g>
<g><path style="opacity:1" fill="#2b373d" d="M 237.5,233.5 C 236.514,235.408 234.848,236.408 232.5,236.5C 230.088,236.306 229.088,234.973 229.5,232.5C 232.516,231.246 235.182,231.579 237.5,233.5 Z"/></g>
<g><path style="opacity:1" fill="#2b373d" d="M 203.5,236.5 C 203.5,235.5 203.5,234.5 203.5,233.5C 206.841,231.504 209.174,232.337 210.5,236C 208.214,237.664 205.881,237.83 203.5,236.5 Z"/></g>
<g><path style="opacity:1" fill="#899093" d="M 249.5,231.5 C 251.587,232.585 252.92,234.251 253.5,236.5C 251.413,235.415 250.08,233.749 249.5,231.5 Z"/></g>
<g><path style="opacity:1" fill="#2b373d" d="M 229.5,237.5 C 226.771,238.53 224.104,238.53 221.5,237.5C 221.5,236.5 221.5,235.5 221.5,234.5C 225.507,232.176 228.174,233.176 229.5,237.5 Z"/></g>
<g><path style="opacity:1" fill="#29353a" d="M 221.5,237.5 C 219.91,239.821 217.577,240.821 214.5,240.5C 213.316,239.312 213.316,238.145 214.5,237C 217.228,235.495 219.561,235.662 221.5,237.5 Z"/></g>
<g><path style="opacity:1" fill="#2c383d" d="M 213.5,240.5 C 211.786,241.738 209.786,242.405 207.5,242.5C 206.766,241.292 206.433,239.959 206.5,238.5C 207.93,238.579 209.264,238.246 210.5,237.5C 211.735,238.34 212.735,239.34 213.5,240.5 Z"/></g>
<g><path style="opacity:1" fill="#343f45" d="M 253.5,236.5 C 254.289,236.783 254.956,237.283 255.5,238C 254.663,239.011 254.33,240.178 254.5,241.5C 236.5,245.167 218.5,248.833 200.5,252.5C 200.5,251.167 200.5,249.833 200.5,248.5C 201.265,248.923 202.098,249.257 203,249.5C 220.12,245.717 236.953,241.384 253.5,236.5 Z"/></g>
<g><path style="opacity:0.624" fill="#3d474c" d="M 17.5,199.5 C 18.1667,200.167 18.8333,200.833 19.5,201.5C 19.3334,215.837 19.5001,230.171 20,244.5C 20.7682,255.05 22.6015,265.384 25.5,275.5C 24.8826,275.389 24.3826,275.056 24,274.5C 21.2206,265.713 19.554,256.713 19,247.5C 17.6461,231.482 17.1461,215.482 17.5,199.5 Z"/></g>
<g><path style="opacity:1" fill="#313c42" d="M 203.5,236.5 C 203.423,237.75 202.756,238.583 201.5,239C 203.907,239.257 205.573,240.424 206.5,242.5C 205.054,243.613 203.387,243.78 201.5,243C 200.327,240.74 198.994,238.574 197.5,236.5C 197.624,235.893 197.957,235.56 198.5,235.5C 200.518,234.067 202.185,234.401 203.5,236.5 Z"/></g>
<g><path style="opacity:1" fill="#8a9194" d="M 193.5,235.5 C 196.258,238.678 198.258,242.345 199.5,246.5C 196.742,243.322 194.742,239.655 193.5,235.5 Z"/></g>
<g><path style="opacity:1" fill="#ecedee" d="M 58.5,263.5 C 58.8432,265.483 58.1765,266.817 56.5,267.5C 55.6863,259.471 54.6863,251.471 53.5,243.5C 55.1667,243.5 56.8333,243.5 58.5,243.5C 58.5,250.167 58.5,256.833 58.5,263.5 Z"/></g>
<g><path style="opacity:0.89" fill="#3e484d" d="M 345.5,242.5 C 345.5,241.833 345.833,241.5 346.5,241.5C 359.014,249.589 371.348,257.922 383.5,266.5C 383.043,267.298 382.376,267.631 381.5,267.5C 369.953,258.709 357.953,250.375 345.5,242.5 Z"/></g>
<g><path style="opacity:1" fill="#848b8e" d="M 265.5,259.5 C 270.179,259.334 274.845,259.501 279.5,260C 271.828,260.097 264.328,261.264 257,263.5C 255.238,263.056 255.405,262.556 257.5,262C 260.379,261.454 263.046,260.621 265.5,259.5 Z"/></g>
<g><path style="opacity:1" fill="#888f92" d="M 287.5,268.5 C 285.735,267.539 283.735,267.205 281.5,267.5C 287.896,265.602 287.563,263.436 280.5,261C 285.962,260.951 288.295,263.451 287.5,268.5 Z"/></g>
<g><path style="opacity:1" fill="#8a898d" d="M 123.5,261.5 C 122.298,263.392 120.965,265.226 119.5,267C 114.903,270.123 110.237,272.957 105.5,275.5C 100.167,275.5 94.8333,275.5 89.5,275.5C 100.994,271.426 112.327,266.759 123.5,261.5 Z"/></g>
<g><path style="opacity:1" fill="#333e44" d="M 281.5,267.5 C 283.735,267.205 285.735,267.539 287.5,268.5C 287.047,269.458 286.381,270.292 285.5,271C 282.621,271.546 279.954,272.379 277.5,273.5C 270.52,274.165 263.52,274.498 256.5,274.5C 255.737,273.732 254.737,273.232 253.5,273C 262.771,270.854 272.105,269.021 281.5,267.5 Z"/></g>
<g><path style="opacity:1" fill="#8c9396" d="M 251.5,264.5 C 253.657,265.053 253.49,266.053 251,267.5C 250.915,269.085 250.749,270.418 250.5,271.5C 249.713,270.758 249.047,269.925 248.5,269C 249.386,267.385 250.386,265.885 251.5,264.5 Z"/></g>
</svg>
