<svg width="24" height="16" viewBox="0 0 24 16" fill="none" xmlns="http://www.w3.org/2000/svg">
<path d="M24 7.91631C24 12.0159 20.6833 15.3326 16.5837 15.3326C14.8532 15.3326 13.267 14.7352 12.0103 13.7464C13.7408 12.3867 14.8326 10.2854 14.8326 7.91631C14.8326 5.54721 13.7202 3.44593 12.0103 2.08627C13.267 1.09743 14.8532 0.5 16.5837 0.5C20.6833 0.5 24 3.83734 24 7.91631Z" fill="#F79E1B"/>
<path d="M12.0103 2.08627C12.0103 2.08627 12.0103 2.08627 12.0103 2.08627C13.7202 3.44593 14.8326 5.54721 14.8326 7.91631C14.8326 10.2854 13.7408 12.3867 12.0103 13.7464L11.9896 13.7464C10.2798 12.4073 9.16738 10.2854 9.16738 7.91635C9.16738 5.54725 10.2798 3.44597 11.9897 2.08631C11.9897 2.0863 11.9897 2.08633 11.9897 2.08631L12.0103 2.08627Z" fill="#FF5F00"/>
<path d="M9.16738 7.91635C9.16738 5.54725 10.2798 3.44597 11.9897 2.08631C10.733 1.09747 9.14678 0.500032 7.41631 0.500032C3.31674 0.500032 0 3.81677 0 7.91634C0 12.0159 3.31674 15.3327 7.41631 15.3327C9.14678 15.3327 10.733 14.7352 11.9896 13.7464C10.2798 12.4073 9.16738 10.2854 9.16738 7.91635Z" fill="#EB001B"/>
</svg>
