<?xml version="1.0" encoding="UTF-8"?>
<!DOCTYPE svg PUBLIC "-//W3C//DTD SVG 1.1//EN" "http://www.w3.org/Graphics/SVG/1.1/DTD/svg11.dtd">
<svg xmlns="http://www.w3.org/2000/svg" version="1.1" width="425px" height="404px" style="shape-rendering:geometricPrecision; text-rendering:geometricPrecision; image-rendering:optimizeQuality; fill-rule:evenodd; clip-rule:evenodd" xmlns:xlink="http://www.w3.org/1999/xlink">
<g><path style="opacity:0.966" fill="#e4e4e4" d="M 374.5,-0.5 C 375.833,-0.5 377.167,-0.5 378.5,-0.5C 378.5,0.5 378.5,1.5 378.5,2.5C 379.822,2.33003 380.989,2.66337 382,3.5C 381.917,6.11935 381.75,8.78602 381.5,11.5C 379.738,11.6427 378.071,11.3094 376.5,10.5C 375.378,11.6302 374.044,12.2969 372.5,12.5C 372.5,11.8333 372.167,11.5 371.5,11.5C 371.032,7.06384 372.032,3.06384 374.5,-0.5 Z"/></g>
<g><path style="opacity:0.992" fill="#d9d9d9" d="M 296.5,25.5 C 296.5,35.5 296.5,45.5 296.5,55.5C 301.167,55.5 305.833,55.5 310.5,55.5C 310.5,55.8333 310.5,56.1667 310.5,56.5C 305.833,56.5 301.167,56.5 296.5,56.5C 296.5,60.1667 296.5,63.8333 296.5,67.5C 293.5,67.5 290.5,67.5 287.5,67.5C 287.5,65.5 287.5,63.5 287.5,61.5C 283.351,62.0803 279.684,61.4136 276.5,59.5C 276.5,58.5 276.5,57.5 276.5,56.5C 280.167,56.5 283.833,56.5 287.5,56.5C 287.5,48.5 287.5,40.5 287.5,32.5C 283.833,32.5 280.167,32.5 276.5,32.5C 276.768,30.901 276.434,29.5676 275.5,28.5C 275.211,24.8936 275.544,21.3936 276.5,18C 280.152,17.5014 283.818,17.3347 287.5,17.5C 287.5,15.8333 287.5,14.1667 287.5,12.5C 290.5,12.5 293.5,12.5 296.5,12.5C 296.5,16.8333 296.5,21.1667 296.5,25.5 Z"/></g>
<g><path style="opacity:0.948" fill="#e3e3e3" d="M 361.5,18.5 C 360.833,18.5 360.5,18.8333 360.5,19.5C 359.504,19.5858 358.671,19.2524 358,18.5C 356.736,20.607 354.903,21.607 352.5,21.5C 352.214,19.7231 351.547,18.0564 350.5,16.5C 352.033,8.93595 355.533,8.60262 361,15.5C 361.483,16.448 361.649,17.448 361.5,18.5 Z"/></g>
<g><path style="opacity:0.699" fill="#a6a6a6" d="M 371.5,11.5 C 372.167,11.5 372.5,11.8333 372.5,12.5C 369.9,18.9343 369.066,25.601 370,32.5C 370.951,27.4326 373.117,23.0992 376.5,19.5C 377.167,19.5 377.5,19.8333 377.5,20.5C 374.569,24.0175 373.069,28.0175 373,32.5C 374.122,30.3762 375.622,28.5429 377.5,27C 378.483,26.4092 379.15,26.7425 379.5,28C 378.499,32.1862 376.832,36.0195 374.5,39.5C 371.167,39.5 367.833,39.5 364.5,39.5C 361.247,35.3368 359.414,30.6702 359,25.5C 359.893,26.7112 360.726,26.7112 361.5,25.5C 360.652,23.5914 360.318,21.5914 360.5,19.5C 360.5,18.8333 360.833,18.5 361.5,18.5C 364.051,20.5777 365.884,23.2444 367,26.5C 367.733,21.2292 369.233,16.2292 371.5,11.5 Z"/></g>
<g><path style="opacity:0.98" fill="#e2e2e2" d="M 381.5,11.5 C 383.199,11.3398 384.866,11.5065 386.5,12C 386.043,12.414 385.709,12.914 385.5,13.5C 386.383,14.548 387.05,15.7147 387.5,17C 386.115,18.5971 385.449,20.4305 385.5,22.5C 383.071,22.415 381.071,21.415 379.5,19.5C 378.817,19.8627 378.15,20.1961 377.5,20.5C 377.5,19.8333 377.167,19.5 376.5,19.5C 376.351,18.448 376.517,17.448 377,16.5C 378.707,14.9625 380.207,13.2959 381.5,11.5 Z"/></g>
<g><path style="opacity:0.957" fill="#a6a6a6" d="M 296.5,25.5 C 301.619,24.8969 306.285,25.5636 310.5,27.5C 310.5,28.8333 310.5,30.1667 310.5,31.5C 310.5,39.5 310.5,47.5 310.5,55.5C 305.833,55.5 301.167,55.5 296.5,55.5C 296.5,45.5 296.5,35.5 296.5,25.5 Z"/></g>
<g><path style="opacity:0.933" fill="#a6a6a6" d="M 275.5,28.5 C 276.434,29.5676 276.768,30.901 276.5,32.5C 276.5,33.8333 276.5,35.1667 276.5,36.5C 273.167,36.5 269.833,36.5 266.5,36.5C 266.5,33.8333 266.5,31.1667 266.5,28.5C 269.5,28.5 272.5,28.5 275.5,28.5 Z"/></g>
<g><path style="opacity:1" fill="#c6c6c6" d="M 276.5,32.5 C 280.167,32.5 283.833,32.5 287.5,32.5C 287.5,40.5 287.5,48.5 287.5,56.5C 283.833,56.5 280.167,56.5 276.5,56.5C 276.5,51.1667 276.5,45.8333 276.5,40.5C 273.167,40.5 269.833,40.5 266.5,40.5C 266.5,39.1667 266.5,37.8333 266.5,36.5C 269.833,36.5 273.167,36.5 276.5,36.5C 276.5,35.1667 276.5,33.8333 276.5,32.5 Z"/></g>
<g><path style="opacity:0.987" fill="#dadada" d="M 261.5,67.5 C 261.5,70.1667 261.5,72.8333 261.5,75.5C 262.386,82.4567 262.72,89.4567 262.5,96.5C 261.967,93.8785 260.967,91.3785 259.5,89C 260.554,87.6124 260.72,86.1124 260,84.5C 258.124,83.3913 256.291,82.3913 254.5,81.5C 254.824,74.6457 254.491,67.979 253.5,61.5C 255.298,52.2089 251.632,48.3756 242.5,50C 238.886,52.9442 237.553,56.7775 238.5,61.5C 167.5,61.5 96.5,61.5 25.5,61.5C 15.1446,59.3664 11.3112,53.033 14,42.5C 15.5,38.3333 18.3333,35.5 22.5,34C 95.1667,33.3333 167.833,33.3333 240.5,34C 256.559,39.2689 263.559,50.4356 261.5,67.5 Z"/></g>
<g><path style="opacity:0.976" fill="#dadada" d="M 364.5,39.5 C 367.833,39.5 371.167,39.5 374.5,39.5C 375.5,39.5 376.5,39.5 377.5,39.5C 379.05,48.8021 380.384,58.1355 381.5,67.5C 373.833,67.5 366.167,67.5 358.5,67.5C 359.829,58.869 360.996,50.2023 362,41.5C 362.417,40.244 363.25,39.5774 364.5,39.5 Z"/></g>
<g><path style="opacity:0.962" fill="#a8a8a8" d="M 266.5,40.5 C 269.833,40.5 273.167,40.5 276.5,40.5C 276.5,45.8333 276.5,51.1667 276.5,56.5C 276.5,57.5 276.5,58.5 276.5,59.5C 273.167,59.5 269.833,59.5 266.5,59.5C 266.5,53.1667 266.5,46.8333 266.5,40.5 Z"/></g>
<g><path style="opacity:0.867" fill="#c9c9c9" d="M 350.5,67.5 C 349.5,67.5 348.5,67.5 347.5,67.5C 335.802,54.8014 323.469,42.8014 310.5,31.5C 310.5,30.1667 310.5,28.8333 310.5,27.5C 311.962,26.5423 313.295,25.3756 314.5,24C 315.5,23.3333 316.5,23.3333 317.5,24C 330.167,36.6667 342.833,49.3333 355.5,62C 353.627,63.7038 351.96,65.5372 350.5,67.5 Z"/></g>
<g><path style="opacity:1" fill="#a5a5a5" d="M 253.5,61.5 C 248.5,61.5 243.5,61.5 238.5,61.5C 237.553,56.7775 238.886,52.9442 242.5,50C 251.632,48.3756 255.298,52.2089 253.5,61.5 Z"/></g>
<g><path style="opacity:1" fill="#b6b6b6" d="M 310.5,56.5 C 310.5,60.1667 310.5,63.8333 310.5,67.5C 305.833,67.5 301.167,67.5 296.5,67.5C 296.5,63.8333 296.5,60.1667 296.5,56.5C 301.167,56.5 305.833,56.5 310.5,56.5 Z"/></g>
<g><path style="opacity:1" fill="#bebebe" d="M 266.5,59.5 C 269.833,59.5 273.167,59.5 276.5,59.5C 279.684,61.4136 283.351,62.0803 287.5,61.5C 287.5,63.5 287.5,65.5 287.5,67.5C 280.5,67.5 273.5,67.5 266.5,67.5C 266.5,64.8333 266.5,62.1667 266.5,59.5 Z"/></g>
<g><path style="opacity:0.994" fill="#eaeaea" d="M 25.5,61.5 C 96.5,61.5 167.5,61.5 238.5,61.5C 237.528,70.75 237.195,80.0833 237.5,89.5C 236.315,90.8566 235.315,92.3566 234.5,94C 235.093,95.8817 236.427,96.8817 238.5,97C 232.898,99.2795 232.231,102.446 236.5,106.5C 235.181,108.532 235.181,110.532 236.5,112.5C 235.673,129.156 235.006,145.823 234.5,162.5C 234.393,164.903 235.393,166.736 237.5,168C 233.591,168.792 232.591,170.959 234.5,174.5C 231.902,233.449 229.902,292.449 228.5,351.5C 228.167,351.5 227.833,351.5 227.5,351.5C 226.596,350.791 226.263,349.791 226.5,348.5C 222.176,348.927 217.842,349.261 213.5,349.5C 213.5,350.5 213.5,351.5 213.5,352.5C 162.993,354.119 112.66,356.119 62.5,358.5C 55.5044,361.663 48.8377,365.329 42.5,369.5C 35.5573,371.316 35.224,373.316 41.5,375.5C 42.2975,375.043 42.6309,374.376 42.5,373.5C 43.2485,374.531 43.9152,375.698 44.5,377C 49.8333,379.667 55.1667,382.333 60.5,385C 62.265,385.64 63.9317,385.473 65.5,384.5C 70.1547,385.166 74.9881,385.499 80,385.5C 119.49,383.834 158.99,382.5 198.5,381.5C 205.111,381.139 211.611,381.806 218,383.5C 219.385,383.486 220.551,383.152 221.5,382.5C 222.918,380.692 224.918,380.025 227.5,380.5C 233.452,380.186 239.118,378.686 244.5,376C 248.234,372.301 249.901,367.801 249.5,362.5C 254.167,362.5 258.833,362.5 263.5,362.5C 263.5,359.5 263.5,356.5 263.5,353.5C 267.833,353.5 272.167,353.5 276.5,353.5C 277.833,353.833 279.167,354.167 280.5,354.5C 281.29,355.401 282.29,356.068 283.5,356.5C 283.158,357.338 282.492,357.672 281.5,357.5C 279.368,357.554 278.035,358.554 277.5,360.5C 276.167,360.5 275.5,361.167 275.5,362.5C 269.217,364.058 263.717,367.058 259,371.5C 258.505,373.473 258.338,375.473 258.5,377.5C 277.874,377.922 297.207,377.422 316.5,376C 317.917,369.128 318.917,362.294 319.5,355.5C 334.151,356.893 348.818,358.226 363.5,359.5C 362.158,362.166 360.325,364.499 358,366.5C 357.333,369.167 357.333,371.833 358,374.5C 358.414,374.957 358.914,375.291 359.5,375.5C 368.871,370.643 378.538,366.643 388.5,363.5C 399.989,364.763 410.823,368.096 421,373.5C 423.151,376.216 422.984,378.716 420.5,381C 414.916,384.307 408.916,386.641 402.5,388C 372.78,393.905 342.78,397.572 312.5,399C 245.5,402.327 178.5,402.327 111.5,399C 79.4997,397.556 47.8331,393.556 16.5,387C 10.6406,385.83 5.4739,383.33 1,379.5C 0.365282,377.365 0.698616,375.365 2,373.5C 13.2184,368.069 25.0518,364.569 37.5,363C 30.1742,362.5 22.8409,362.334 15.5,362.5C 15.296,352.14 15.6293,341.806 16.5,331.5C 16.5,330.833 16.5,330.167 16.5,329.5C 19.4082,240.163 22.4082,150.83 25.5,61.5 Z"/></g>
<g><path style="opacity:1" fill="#bdbdbd" d="M 238.5,61.5 C 243.5,61.5 248.5,61.5 253.5,61.5C 254.491,67.979 254.824,74.6457 254.5,81.5C 248.939,80.8024 243.773,81.8024 239,84.5C 238.28,86.1124 238.446,87.6124 239.5,89C 238.906,89.4643 238.239,89.631 237.5,89.5C 237.195,80.0833 237.528,70.75 238.5,61.5 Z"/></g>
<g><path style="opacity:0.915" fill="#e9e9e9" d="M 261.5,67.5 C 263.167,67.5 264.833,67.5 266.5,67.5C 273.5,67.5 280.5,67.5 287.5,67.5C 290.5,67.5 293.5,67.5 296.5,67.5C 301.167,67.5 305.833,67.5 310.5,67.5C 322.833,67.5 335.167,67.5 347.5,67.5C 348.5,67.5 349.5,67.5 350.5,67.5C 353.167,67.5 355.833,67.5 358.5,67.5C 366.167,67.5 373.833,67.5 381.5,67.5C 390.5,67.5 399.5,67.5 408.5,67.5C 408.5,70.1667 408.5,72.8333 408.5,75.5C 405.5,75.5 402.5,75.5 399.5,75.5C 399.5,83.5 399.5,91.5 399.5,99.5C 396.5,99.5 393.5,99.5 390.5,99.5C 390.5,91.5 390.5,83.5 390.5,75.5C 347.5,75.5 304.5,75.5 261.5,75.5C 261.5,72.8333 261.5,70.1667 261.5,67.5 Z"/></g>
<g><path style="opacity:0.971" fill="#263036" d="M 337.5,142.5 C 336.59,140.981 335.757,139.315 335,137.5C 334.667,137.833 334.333,138.167 334,138.5C 333.508,137.451 333.674,136.451 334.5,135.5C 332.254,130.674 329.754,126.008 327,121.5C 324.914,118.906 322.414,116.906 319.5,115.5C 319.335,112.482 319.502,109.482 320,106.5C 323.936,104.737 326.103,101.737 326.5,97.5C 324.94,97.5191 323.44,97.8524 322,98.5C 320.217,96.6035 318.217,94.9368 316,93.5C 313.726,94.8112 311.56,94.8112 309.5,93.5C 308.934,91.2004 307.267,89.2004 304.5,87.5C 303.16,88.8665 301.827,90.1999 300.5,91.5C 300.211,84.8954 303.211,80.7287 309.5,79C 316.249,77.5677 322.416,78.7344 328,82.5C 329.751,84.4899 330.751,86.8232 331,89.5C 331.794,97.2616 333.127,104.928 335,112.5C 339.267,119.625 341.267,127.292 341,135.5C 340.33,138.174 339.163,140.507 337.5,142.5 Z"/></g>
<g><path style="opacity:1" fill="#ab5b4e" d="M 309.5,93.5 C 308.85,93.1961 308.183,92.8627 307.5,92.5C 306.824,93.6016 306.158,94.6016 305.5,95.5C 305.649,94.448 305.483,93.448 305,92.5C 303.644,93.3802 302.144,93.7135 300.5,93.5C 300.5,92.8333 300.5,92.1667 300.5,91.5C 301.827,90.1999 303.16,88.8665 304.5,87.5C 307.267,89.2004 308.934,91.2004 309.5,93.5 Z"/></g>
<g><path style="opacity:0.984" fill="#da6957" d="M 254.5,81.5 C 256.291,82.3913 258.124,83.3913 260,84.5C 260.72,86.1124 260.554,87.6124 259.5,89C 260.967,91.3785 261.967,93.8785 262.5,96.5C 266.987,105.473 271.487,114.473 276,123.5C 277.828,124.752 279.661,124.752 281.5,123.5C 283.832,128.828 286.165,134.162 288.5,139.5C 289.234,140.708 289.567,142.041 289.5,143.5C 281.815,148.736 273.482,150.403 264.5,148.5C 261.324,144.807 258.657,140.807 256.5,136.5C 255.698,133.426 254.698,130.426 253.5,127.5C 255.144,127.714 256.644,127.38 258,126.5C 258.641,122.845 258.141,119.345 256.5,116C 256.773,114.467 257.106,112.967 257.5,111.5C 255.974,112.492 255.307,113.992 255.5,116C 256.244,119.197 256.744,122.364 257,125.5C 256.439,126.022 255.772,126.355 255,126.5C 253.357,125.685 251.857,124.685 250.5,123.5C 249.841,120.545 249.508,117.545 249.5,114.5C 250.186,113.152 251.186,111.985 252.5,111C 249.633,110.199 246.966,110.366 244.5,111.5C 241.873,112.092 239.206,112.425 236.5,112.5C 235.181,110.532 235.181,108.532 236.5,106.5C 232.231,102.446 232.898,99.2795 238.5,97C 236.427,96.8817 235.093,95.8817 234.5,94C 235.315,92.3566 236.315,90.8566 237.5,89.5C 238.239,89.631 238.906,89.4643 239.5,89C 238.446,87.6124 238.28,86.1124 239,84.5C 243.773,81.8024 248.939,80.8024 254.5,81.5 Z"/></g>
<g><path style="opacity:0.984" fill="#d36755" d="M 305.5,95.5 C 306.158,94.6016 306.824,93.6016 307.5,92.5C 308.183,92.8627 308.85,93.1961 309.5,93.5C 311.56,94.8112 313.726,94.8112 316,93.5C 318.217,94.9368 320.217,96.6035 322,98.5C 323.44,97.8524 324.94,97.5191 326.5,97.5C 326.103,101.737 323.936,104.737 320,106.5C 319.502,109.482 319.335,112.482 319.5,115.5C 318.76,119.38 316.426,121.713 312.5,122.5C 311.584,122.457 310.917,122.124 310.5,121.5C 310.192,119.076 310.526,116.743 311.5,114.5C 313.517,113.826 315.183,112.659 316.5,111C 308.574,113.366 302.907,110.866 299.5,103.5C 299.253,100.061 299.586,96.728 300.5,93.5C 302.144,93.7135 303.644,93.3802 305,92.5C 305.483,93.448 305.649,94.448 305.5,95.5 Z"/></g>
<g><path style="opacity:1" fill="#895048" d="M 244.5,94.5 C 249.267,94.1908 253.934,94.6908 258.5,96C 252.833,96.6667 247.167,96.6667 241.5,96C 242.737,95.7679 243.737,95.2679 244.5,94.5 Z"/></g>
<g><path style="opacity:1" fill="#c2c2c2" d="M 114.5,97.5 C 131.886,97.24 149.219,98.0733 166.5,100C 152.993,100.062 139.493,99.5624 126,98.5C 118.832,99.1397 111.666,99.3064 104.5,99C 108.025,98.8213 111.359,98.3213 114.5,97.5 Z"/></g>
<g><path style="opacity:1" fill="#764a45" d="M 305.5,95.5 C 305.5,97.5 305.5,99.5 305.5,101.5C 309.243,101.459 309.41,102.126 306,103.5C 304.374,101.083 302.874,98.5829 301.5,96C 302.793,95.51 304.127,95.3433 305.5,95.5 Z"/></g>
<g><path style="opacity:1" fill="#7a4c46" d="M 257.5,111.5 C 257.877,109.742 258.544,108.075 259.5,106.5C 259.167,105.833 258.833,105.167 258.5,104.5C 252.476,103.473 246.476,103.306 240.5,104C 243.515,102.621 246.681,101.788 250,101.5C 253.405,102.523 256.738,102.523 260,101.5C 260.19,103.973 260.19,106.64 260,109.5C 259.292,110.381 258.458,111.047 257.5,111.5 Z"/></g>
<g><path style="opacity:0.991" fill="#2b3238" d="M 299.5,103.5 C 302.907,110.866 308.574,113.366 316.5,111C 315.183,112.659 313.517,113.826 311.5,114.5C 310.526,116.743 310.192,119.076 310.5,121.5C 309.549,120.081 309.216,118.415 309.5,116.5C 304.874,116.692 300.707,118.026 297,120.5C 295.044,120.216 292.877,120.216 290.5,120.5C 293.245,114.675 296.245,109.008 299.5,103.5 Z"/></g>
<g><path style="opacity:1" fill="#6f5e5d" d="M 244.5,111.5 C 246.966,110.366 249.633,110.199 252.5,111C 251.186,111.985 250.186,113.152 249.5,114.5C 249.5,113.5 249.5,112.5 249.5,111.5C 247.833,111.5 246.167,111.5 244.5,111.5 Z"/></g>
<g><path style="opacity:1" fill="#8c8b8e" d="M 58.5,156.5 C 58.1667,156.5 57.8333,156.5 57.5,156.5C 58.5239,129.164 59.6906,101.831 61,74.5C 60.8974,101.908 60.064,129.242 58.5,156.5 Z"/></g>
<g><path style="opacity:0.997" fill="#16141b" d="M 319.5,115.5 C 322.414,116.906 324.914,118.906 327,121.5C 329.754,126.008 332.254,130.674 334.5,135.5C 333.674,136.451 333.508,137.451 334,138.5C 334.333,138.167 334.667,137.833 335,137.5C 335.757,139.315 336.59,140.981 337.5,142.5C 342.346,153.674 345.68,165.007 347.5,176.5C 334.037,177.204 320.704,177.871 307.5,178.5C 307.167,178.5 306.833,178.5 306.5,178.5C 304.81,178.242 302.81,178.242 300.5,178.5C 307.919,172.886 313.586,165.719 317.5,157C 312.572,152.91 307.239,149.41 301.5,146.5C 299.736,148.278 297.736,149.611 295.5,150.5C 295.443,149.391 295.11,148.391 294.5,147.5C 295.841,140.958 298.008,134.958 301,129.5C 301.667,128.167 302.333,128.167 303,129.5C 303.667,128.167 303.667,126.833 303,125.5C 298.575,131.443 293.742,136.109 288.5,139.5C 286.165,134.162 283.832,128.828 281.5,123.5C 284.341,122.331 287.341,121.331 290.5,120.5C 292.877,120.216 295.044,120.216 297,120.5C 300.707,118.026 304.874,116.692 309.5,116.5C 309.216,118.415 309.549,120.081 310.5,121.5C 310.917,122.124 311.584,122.457 312.5,122.5C 316.426,121.713 318.76,119.38 319.5,115.5 Z"/></g>
<g><path style="opacity:1" fill="#463b3c" d="M 257.5,111.5 C 257.106,112.967 256.773,114.467 256.5,116C 258.141,119.345 258.641,122.845 258,126.5C 256.644,127.38 255.144,127.714 253.5,127.5C 252.833,127.5 252.167,127.5 251.5,127.5C 251.167,126.167 250.833,124.833 250.5,123.5C 251.857,124.685 253.357,125.685 255,126.5C 255.772,126.355 256.439,126.022 257,125.5C 256.744,122.364 256.244,119.197 255.5,116C 255.307,113.992 255.974,112.492 257.5,111.5 Z"/></g>
<g><path style="opacity:1" fill="#1b181e" d="M 251.5,127.5 C 252.167,127.5 252.833,127.5 253.5,127.5C 254.698,130.426 255.698,133.426 256.5,136.5C 256.5,144.5 256.5,152.5 256.5,160.5C 254.5,159.167 252.5,157.833 250.5,156.5C 250.638,146.825 250.971,137.158 251.5,127.5 Z"/></g>
<g><path style="opacity:1" fill="#c4c4c4" d="M 91.5,127.5 C 101.652,127.824 111.986,127.824 122.5,127.5C 128.853,128.671 135.186,130.004 141.5,131.5C 147.132,130.289 152.799,129.789 158.5,130C 148.784,133.01 139.118,133.01 129.5,130C 116.771,129.73 104.104,128.896 91.5,127.5 Z"/></g>
<g><path style="opacity:1" fill="#252e34" d="M 294.5,147.5 C 293.922,145.557 292.922,145.223 291.5,146.5C 290.575,145.643 289.908,144.643 289.5,143.5C 289.567,142.041 289.234,140.708 288.5,139.5C 293.742,136.109 298.575,131.443 303,125.5C 303.667,126.833 303.667,128.167 303,129.5C 302.333,128.167 301.667,128.167 301,129.5C 298.008,134.958 295.841,140.958 294.5,147.5 Z"/></g>
<g><path style="opacity:0.974" fill="#d6d5d4" d="M 256.5,136.5 C 258.657,140.807 261.324,144.807 264.5,148.5C 265.272,152.452 265.605,156.452 265.5,160.5C 262.396,161.775 259.396,161.775 256.5,160.5C 256.5,152.5 256.5,144.5 256.5,136.5 Z"/></g>
<g><path style="opacity:1" fill="#bebdbd" d="M 244.5,111.5 C 246.167,111.5 247.833,111.5 249.5,111.5C 249.5,112.5 249.5,113.5 249.5,114.5C 249.508,117.545 249.841,120.545 250.5,123.5C 250.833,124.833 251.167,126.167 251.5,127.5C 250.971,137.158 250.638,146.825 250.5,156.5C 250.5,158.167 250.5,159.833 250.5,161.5C 245.073,161.218 239.74,161.551 234.5,162.5C 235.006,145.823 235.673,129.156 236.5,112.5C 239.206,112.425 241.873,112.092 244.5,111.5 Z"/></g>
<g><path style="opacity:1" fill="#c6c6c6" d="M 93.5,145.5 C 105.245,145.232 116.912,146.066 128.5,148C 120.628,148.328 112.795,147.828 105,146.5C 92.8444,147.522 80.6777,147.689 68.5,147C 77.0101,146.829 85.3434,146.329 93.5,145.5 Z"/></g>
<g><path style="opacity:1" fill="#bfbfbf" d="M 157.5,147.5 C 159.473,146.837 161.639,146.504 164,146.5C 176.82,147.547 189.653,148.38 202.5,149C 187.449,149.72 172.449,149.22 157.5,147.5 Z"/></g>
<g><path style="opacity:0.99" fill="#db6957" d="M 300.5,178.5 C 298.716,178.893 297.05,179.559 295.5,180.5C 286.16,184.252 276.493,186.919 266.5,188.5C 263.615,188.194 260.948,188.527 258.5,189.5C 255.518,189.963 252.518,190.296 249.5,190.5C 245.484,191.1 241.984,190.1 239,187.5C 238.308,186.563 238.475,185.897 239.5,185.5C 245.859,185.913 252.192,185.079 258.5,183C 252.227,183.369 245.893,183.536 239.5,183.5C 233.594,181.56 233.26,179.06 238.5,176C 237.255,175.209 235.922,174.709 234.5,174.5C 232.591,170.959 233.591,168.792 237.5,168C 235.393,166.736 234.393,164.903 234.5,162.5C 239.74,161.551 245.073,161.218 250.5,161.5C 250.5,159.833 250.5,158.167 250.5,156.5C 252.5,157.833 254.5,159.167 256.5,160.5C 259.396,161.775 262.396,161.775 265.5,160.5C 274.365,159.977 283.032,158.477 291.5,156C 293.439,154.568 294.772,152.735 295.5,150.5C 297.736,149.611 299.736,148.278 301.5,146.5C 307.239,149.41 312.572,152.91 317.5,157C 313.586,165.719 307.919,172.886 300.5,178.5 Z"/></g>
<g><path style="opacity:1" fill="#c1c1c1" d="M 77.5,161.5 C 80.9841,160.835 84.6508,160.501 88.5,160.5C 102.141,161.697 115.808,162.531 129.5,163C 112.131,163.494 94.7975,162.994 77.5,161.5 Z"/></g>
<g><path style="opacity:1" fill="#4d3d3e" d="M 239.5,169.5 C 239.735,168.903 240.235,168.57 241,168.5C 244.794,169.23 248.627,169.73 252.5,170C 248.113,170.706 243.78,170.54 239.5,169.5 Z"/></g>
<g><path style="opacity:0.862" fill="#e8e8e8" d="M 390.5,196.5 C 390.167,196.5 389.833,196.5 389.5,196.5C 384.312,192.641 379.145,188.641 374,184.5C 371.95,181.852 370.784,178.852 370.5,175.5C 372.54,172.866 374.707,172.866 377,175.5C 377.47,174.423 377.303,173.423 376.5,172.5C 376.418,170.748 377.251,169.748 379,169.5C 388.387,176.261 392.221,185.261 390.5,196.5 Z"/></g>
<g><path style="opacity:0.593" fill="#a4a5a5" d="M 376.5,172.5 C 377.303,173.423 377.47,174.423 377,175.5C 374.707,172.866 372.54,172.866 370.5,175.5C 368.66,179.554 368.16,183.887 369,188.5C 373.031,195.956 375.198,203.956 375.5,212.5C 375.34,214.153 374.674,215.486 373.5,216.5C 372.879,207.896 371.046,199.562 368,191.5C 367.721,199.684 367.221,207.851 366.5,216C 366.833,217.167 367.167,218.333 367.5,219.5C 369.78,220.136 371.78,221.136 373.5,222.5C 371.801,222.38 370.135,222.046 368.5,221.5C 366.595,222.625 364.928,223.291 363.5,223.5C 362.833,223.5 362.5,223.833 362.5,224.5C 361.263,225.965 360.263,227.632 359.5,229.5C 358.566,228.432 358.232,227.099 358.5,225.5C 359.785,223.548 361.451,221.882 363.5,220.5C 365.283,209.559 365.783,198.559 365,187.5C 362.096,185.773 358.93,185.107 355.5,185.5C 354.833,185.833 354.167,186.167 353.5,186.5C 352.833,186.5 352.5,186.833 352.5,187.5C 351.513,192.305 351.179,197.305 351.5,202.5C 350.511,197.025 350.178,191.358 350.5,185.5C 355.316,182.379 360.316,182.046 365.5,184.5C 366.73,180.85 367.896,177.184 369,173.5C 371.242,171.285 373.742,170.952 376.5,172.5 Z"/></g>
<g><path style="opacity:1" fill="#594240" d="M 254.5,175.5 C 258.893,175.457 259.226,175.957 255.5,177C 250.5,177.667 245.5,177.667 240.5,177C 245.351,176.826 250.018,176.326 254.5,175.5 Z"/></g>
<g><path style="opacity:0.994" fill="#36464e" d="M 347.5,176.5 C 349.095,179.285 350.095,182.285 350.5,185.5C 350.178,191.358 350.511,197.025 351.5,202.5C 351.875,204.698 352.542,206.698 353.5,208.5C 355.015,214.228 356.681,219.895 358.5,225.5C 358.232,227.099 358.566,228.432 359.5,229.5C 360.721,234.745 362.387,239.745 364.5,244.5C 364.216,246.415 364.549,248.081 365.5,249.5C 366.267,253.149 367.6,256.482 369.5,259.5C 369.229,261.38 369.896,262.713 371.5,263.5C 372.167,264.5 372.833,265.5 373.5,266.5C 379.079,277.998 385.412,288.998 392.5,299.5C 395.488,304.806 398.488,310.139 401.5,315.5C 400.643,316.425 399.643,317.092 398.5,317.5C 387.096,321.373 376.096,326.04 365.5,331.5C 350.291,331.569 334.958,331.569 319.5,331.5C 319.721,334.279 319.388,336.946 318.5,339.5C 306.42,339.188 294.42,339.521 282.5,340.5C 281.5,340.5 280.5,340.5 279.5,340.5C 279.5,337.5 279.5,334.5 279.5,331.5C 273.833,331.5 268.167,331.5 262.5,331.5C 262.5,330.833 262.5,330.167 262.5,329.5C 268.167,329.5 273.833,329.5 279.5,329.5C 280.649,309.846 281.815,290.179 283,270.5C 286.841,240.445 291.008,210.445 295.5,180.5C 297.05,179.559 298.716,178.893 300.5,178.5C 302.81,178.242 304.81,178.242 306.5,178.5C 307.497,182.137 307.997,185.804 308,189.5C 307,188.5 306,187.5 305,186.5C 304.833,186.833 304.667,187.167 304.5,187.5C 305.748,189.459 307.415,190.959 309.5,192C 308.451,192.492 307.451,192.326 306.5,191.5C 306.167,192.333 305.833,193.167 305.5,194C 310.469,219.677 315.469,245.177 320.5,270.5C 320.189,290.167 319.856,309.834 319.5,329.5C 326.167,329.5 332.833,329.5 339.5,329.5C 346.754,330.63 354.087,330.796 361.5,330C 353.344,314.851 345.344,299.684 337.5,284.5C 336.89,283.609 336.557,282.609 336.5,281.5C 335.736,278.982 334.736,276.649 333.5,274.5C 331.539,270.018 329.872,265.351 328.5,260.5C 328.41,256.786 327.41,253.452 325.5,250.5C 325.204,248.597 324.537,246.93 323.5,245.5C 319.996,229.314 315.663,213.314 310.5,197.5C 310.667,196.833 310.833,196.167 311,195.5C 311.718,196.451 312.551,196.617 313.5,196C 311.785,195.223 310.785,193.89 310.5,192C 309.688,187.439 308.688,182.939 307.5,178.5C 320.704,177.871 334.037,177.204 347.5,176.5 Z M 323.5,245.5 C 324.537,246.93 325.204,248.597 325.5,250.5C 324.56,254.463 324.393,258.463 325,262.5C 326.113,261.695 327.279,261.028 328.5,260.5C 329.872,265.351 331.539,270.018 333.5,274.5C 333.5,276.833 333.5,279.167 333.5,281.5C 334.5,281.5 335.5,281.5 336.5,281.5C 336.557,282.609 336.89,283.609 337.5,284.5C 338.401,299.489 339.068,314.489 339.5,329.5C 332.833,329.5 326.167,329.5 319.5,329.5C 319.856,309.834 320.189,290.167 320.5,270.5C 321.565,262.185 322.565,253.851 323.5,245.5 Z"/></g>
<g><path style="opacity:1" fill="#666469" d="M 57.5,156.5 C 57.8333,156.5 58.1667,156.5 58.5,156.5C 58.3265,171.171 57.9931,185.838 57.5,200.5C 57.1667,200.5 56.8333,200.5 56.5,200.5C 56.5867,185.826 56.92,171.16 57.5,156.5 Z"/></g>
<g><path style="opacity:1" fill="#c2c2c2" d="M 234.5,174.5 C 235.922,174.709 237.255,175.209 238.5,176C 233.26,179.06 233.594,181.56 239.5,183.5C 239.5,184.167 239.5,184.833 239.5,185.5C 238.475,185.897 238.308,186.563 239,187.5C 241.984,190.1 245.484,191.1 249.5,190.5C 247.064,245.148 245.064,299.815 243.5,354.5C 238.716,352.462 233.716,351.462 228.5,351.5C 229.902,292.449 231.902,233.449 234.5,174.5 Z"/></g>
<g><path style="opacity:1" fill="#8a524b" d="M 239.5,185.5 C 239.5,184.833 239.5,184.167 239.5,183.5C 245.893,183.536 252.227,183.369 258.5,183C 252.192,185.079 245.859,185.913 239.5,185.5 Z"/></g>
<g><path style="opacity:0.925" fill="#eaeaea" d="M 355.5,185.5 C 363.519,187.135 365.686,191.802 362,199.5C 359.666,203 356.832,206 353.5,208.5C 352.542,206.698 351.875,204.698 351.5,202.5C 351.179,197.305 351.513,192.305 352.5,187.5C 353.167,187.5 353.5,187.167 353.5,186.5C 354.167,186.167 354.833,185.833 355.5,185.5 Z"/></g>
<g><path style="opacity:0.968" fill="#d7d6d7" d="M 266.5,188.5 C 268.367,235.176 270.367,281.842 272.5,328.5C 269.167,328.5 265.833,328.5 262.5,328.5C 260.274,282.255 258.94,235.921 258.5,189.5C 260.948,188.527 263.615,188.194 266.5,188.5 Z"/></g>
<g><path style="opacity:0.94" fill="#e8e8e8" d="M 379.5,252.5 C 379.027,251.094 378.027,250.427 376.5,250.5C 375.71,249.599 374.71,248.932 373.5,248.5C 373.573,246.973 372.906,245.973 371.5,245.5C 369.473,244.139 367.806,242.473 366.5,240.5C 366.34,238.847 365.674,237.514 364.5,236.5C 362.746,232.742 362.079,228.742 362.5,224.5C 363.167,224.5 363.5,224.167 363.5,223.5C 364.928,223.291 366.595,222.625 368.5,221.5C 370.135,222.046 371.801,222.38 373.5,222.5C 373.954,220.741 373.954,218.741 373.5,216.5C 374.674,215.486 375.34,214.153 375.5,212.5C 375.833,212.5 376.167,212.5 376.5,212.5C 377.5,212.5 378.5,212.5 379.5,212.5C 380.967,213.292 382.3,213.292 383.5,212.5C 381.846,208.069 382.513,204.069 385.5,200.5C 387.5,200.167 389.5,199.833 391.5,199.5C 392.873,199.657 394.207,199.49 395.5,199C 394.944,198.617 394.611,198.117 394.5,197.5C 395.381,188.455 399.714,186.288 407.5,191C 412.428,196.687 415.928,203.187 418,210.5C 420.298,218.022 421.798,225.689 422.5,233.5C 411.22,231.853 400.887,227.853 391.5,221.5C 392.531,224.602 394.031,227.935 396,231.5C 400.223,242.522 401.39,253.855 399.5,265.5C 392.464,261.654 385.797,257.321 379.5,252.5 Z"/></g>
<g><path style="opacity:1" fill="#bebebe" d="M 101.5,189.5 C 113.543,189.162 125.543,189.662 137.5,191C 123.671,190.186 109.837,190.353 96,191.5C 92.1667,191.333 88.3333,191.167 84.5,191C 90.3482,190.827 96.0149,190.327 101.5,189.5 Z"/></g>
<g><path style="opacity:1" fill="#b8b8b8" d="M 167.5,191.5 C 179.347,190.463 191.347,190.63 203.5,192C 191.502,192.167 179.502,192 167.5,191.5 Z"/></g>
<g><path style="opacity:0.999" fill="#17151b" d="M 258.5,189.5 C 258.94,235.921 260.274,282.255 262.5,328.5C 262.5,328.833 262.5,329.167 262.5,329.5C 262.5,330.167 262.5,330.833 262.5,331.5C 263.038,338.822 263.371,346.155 263.5,353.5C 262.527,355.948 262.194,358.615 262.5,361.5C 258.167,361.5 253.833,361.5 249.5,361.5C 248.2,358.568 246.2,356.234 243.5,354.5C 245.064,299.815 247.064,245.148 249.5,190.5C 252.518,190.296 255.518,189.963 258.5,189.5 Z"/></g>
<g><path style="opacity:1" fill="#273339" d="M 306.5,178.5 C 306.833,178.5 307.167,178.5 307.5,178.5C 308.688,182.939 309.688,187.439 310.5,192C 310.785,193.89 311.785,195.223 313.5,196C 312.551,196.617 311.718,196.451 311,195.5C 310.833,196.167 310.667,196.833 310.5,197.5C 315.663,213.314 319.996,229.314 323.5,245.5C 322.565,253.851 321.565,262.185 320.5,270.5C 315.469,245.177 310.469,219.677 305.5,194C 305.833,193.167 306.167,192.333 306.5,191.5C 307.451,192.326 308.451,192.492 309.5,192C 307.415,190.959 305.748,189.459 304.5,187.5C 304.667,187.167 304.833,186.833 305,186.5C 306,187.5 307,188.5 308,189.5C 307.997,185.804 307.497,182.137 306.5,178.5 Z"/></g>
<g><path style="opacity:0.536" fill="#a5a5a5" d="M 389.5,196.5 C 389.833,196.5 390.167,196.5 390.5,196.5C 391.568,197.434 392.901,197.768 394.5,197.5C 394.611,198.117 394.944,198.617 395.5,199C 394.207,199.49 392.873,199.657 391.5,199.5C 389.32,198.206 387.32,198.539 385.5,200.5C 381.063,203.071 379.063,207.071 379.5,212.5C 378.5,212.5 377.5,212.5 376.5,212.5C 377.146,208.202 378.646,204.202 381,200.5C 383.421,198.303 386.255,196.97 389.5,196.5 Z"/></g>
<g><path style="opacity:1" fill="#c1c1c1" d="M 78.5,203.5 C 82.3188,202.834 86.3188,202.501 90.5,202.5C 102.505,203.223 114.505,204.056 126.5,205C 110.507,204.669 94.5073,204.169 78.5,203.5 Z"/></g>
<g><path style="opacity:1" fill="#c3c3c3" d="M 130.5,204.5 C 133.984,203.835 137.651,203.501 141.5,203.5C 153.498,204.04 165.498,204.54 177.5,205C 161.828,205.455 146.162,205.289 130.5,204.5 Z"/></g>
<g><path style="opacity:1" fill="#7a797d" d="M 56.5,200.5 C 56.8333,200.5 57.1667,200.5 57.5,200.5C 57.6282,204.881 57.2949,209.215 56.5,213.5C 56.1667,213.5 55.8333,213.5 55.5,213.5C 55.2307,209.069 55.564,204.735 56.5,200.5 Z"/></g>
<g><path style="opacity:1" fill="#c4c4c4" d="M 137.5,233.5 C 154.356,233.053 171.356,232.886 188.5,233C 181.868,233.943 175.202,234.443 168.5,234.5C 158.173,233.921 147.84,233.588 137.5,233.5 Z"/></g>
<g><path style="opacity:0.939" fill="#a6a6a6" d="M 364.5,236.5 C 365.674,237.514 366.34,238.847 366.5,240.5C 365.701,243.43 365.368,246.43 365.5,249.5C 364.549,248.081 364.216,246.415 364.5,244.5C 364.5,241.833 364.5,239.167 364.5,236.5 Z"/></g>
<g><path style="opacity:0.614" fill="#a4a4a4" d="M 371.5,245.5 C 372.906,245.973 373.573,246.973 373.5,248.5C 372.647,253.47 371.98,258.47 371.5,263.5C 369.896,262.713 369.229,261.38 369.5,259.5C 370.074,254.817 370.74,250.15 371.5,245.5 Z"/></g>
<g><path style="opacity:0.756" fill="#a6a6a6" d="M 376.5,250.5 C 378.027,250.427 379.027,251.094 379.5,252.5C 379.353,257.214 379.686,261.881 380.5,266.5C 379.5,266.5 378.5,266.5 377.5,266.5C 377.431,261.146 377.098,255.813 376.5,250.5 Z"/></g>
<g><path style="opacity:0.736" fill="#e1e2e2" d="M 325.5,250.5 C 327.41,253.452 328.41,256.786 328.5,260.5C 327.279,261.028 326.113,261.695 325,262.5C 324.393,258.463 324.56,254.463 325.5,250.5 Z"/></g>
<g><path style="opacity:1" fill="#5e5d62" d="M 55.5,213.5 C 55.8333,213.5 56.1667,213.5 56.5,213.5C 56.4317,230.178 55.9317,246.845 55,263.5C 54.4526,246.826 54.6192,230.16 55.5,213.5 Z"/></g>
<g><path style="opacity:1" fill="#d5d5d5" d="M 373.5,266.5 C 374.833,266.5 376.167,266.5 377.5,266.5C 378.5,266.5 379.5,266.5 380.5,266.5C 386.167,266.5 391.833,266.5 397.5,266.5C 397.5,271.5 397.5,276.5 397.5,281.5C 396.167,281.5 394.833,281.5 393.5,281.5C 393.575,287.529 393.241,293.529 392.5,299.5C 385.412,288.998 379.079,277.998 373.5,266.5 Z"/></g>
<g><path style="opacity:0.739" fill="#cbcccc" d="M 333.5,274.5 C 334.736,276.649 335.736,278.982 336.5,281.5C 335.5,281.5 334.5,281.5 333.5,281.5C 333.5,279.167 333.5,276.833 333.5,274.5 Z"/></g>
<g><path style="opacity:0.976" fill="#d6d6d6" d="M 337.5,284.5 C 345.344,299.684 353.344,314.851 361.5,330C 354.087,330.796 346.754,330.63 339.5,329.5C 339.068,314.489 338.401,299.489 337.5,284.5 Z"/></g>
<g><path style="opacity:0.983" fill="#d86b5a" d="M 398.5,317.5 C 399.11,318.391 399.443,319.391 399.5,320.5C 388.59,325.129 377.923,330.129 367.5,335.5C 366.326,334.486 365.66,333.153 365.5,331.5C 376.096,326.04 387.096,321.373 398.5,317.5 Z"/></g>
<g><path style="opacity:1" fill="#faf5f5" d="M 399.5,320.5 C 401.071,322.635 402.404,324.968 403.5,327.5C 397.74,330.713 391.74,333.38 385.5,335.5C 383.099,333.938 381.099,334.271 379.5,336.5C 378.164,338.307 376.497,339.807 374.5,341C 372.16,341.748 370.16,341.248 368.5,339.5C 368.167,338.167 367.833,336.833 367.5,335.5C 377.923,330.129 388.59,325.129 399.5,320.5 Z"/></g>
<g><path style="opacity:0.067" fill="#2b2f3a" d="M -0.5,329.5 C 5.16667,329.5 10.8333,329.5 16.5,329.5C 16.5,330.167 16.5,330.833 16.5,331.5C 10.8333,331.5 5.16667,331.5 -0.5,331.5C -0.5,330.833 -0.5,330.167 -0.5,329.5 Z"/></g>
<g><path style="opacity:1" fill="#17151c" d="M 403.5,327.5 C 403.611,328.117 403.944,328.617 404.5,329C 411.158,329.5 417.825,329.666 424.5,329.5C 424.5,329.833 424.5,330.167 424.5,330.5C 418.247,331.293 411.914,331.793 405.5,332C 408.101,337.874 410.435,343.874 412.5,350C 404.672,354.779 396.672,359.279 388.5,363.5C 378.538,366.643 368.871,370.643 359.5,375.5C 358.914,375.291 358.414,374.957 358,374.5C 357.333,371.833 357.333,369.167 358,366.5C 360.325,364.499 362.158,362.166 363.5,359.5C 364.167,358.167 365.167,357.167 366.5,356.5C 369.284,353.954 372.617,352.454 376.5,352C 375.167,351.667 373.833,351.333 372.5,351C 374.577,350.808 376.577,350.308 378.5,349.5C 377.45,347.898 378.117,347.065 380.5,347C 379.167,346.667 377.833,346.333 376.5,346C 378.5,345.667 380.5,345.333 382.5,345C 382.043,344.586 381.709,344.086 381.5,343.5C 383.905,341.358 385.238,338.691 385.5,335.5C 391.74,333.38 397.74,330.713 403.5,327.5 Z"/></g>
<g><path style="opacity:1" fill="#262d33" d="M 385.5,335.5 C 385.238,338.691 383.905,341.358 381.5,343.5C 381.709,344.086 382.043,344.586 382.5,345C 380.5,345.333 378.5,345.667 376.5,346C 377.833,346.333 379.167,346.667 380.5,347C 378.117,347.065 377.45,347.898 378.5,349.5C 376.577,350.308 374.577,350.808 372.5,351C 373.833,351.333 375.167,351.667 376.5,352C 372.617,352.454 369.284,353.954 366.5,356.5C 366.862,352.797 368.529,349.797 371.5,347.5C 369.234,346.686 366.9,346.186 364.5,346C 361.945,344.742 361.278,342.909 362.5,340.5C 364.396,339.534 366.396,339.201 368.5,339.5C 370.16,341.248 372.16,341.748 374.5,341C 376.497,339.807 378.164,338.307 379.5,336.5C 381.099,334.271 383.099,333.938 385.5,335.5 Z M 364.5,341.5 C 367.226,341.264 369.559,342.097 371.5,344C 369.5,344.667 367.5,344.667 365.5,344C 364.748,343.329 364.414,342.496 364.5,341.5 Z"/></g>
<g><path style="opacity:1" fill="#d2d2d3" d="M 379.5,336.5 C 384.023,335.351 384.357,336.017 380.5,338.5C 379.702,338.043 379.369,337.376 379.5,336.5 Z"/></g>
<g><path style="opacity:1" fill="#a09fa1" d="M 52.5,295.5 C 53.166,300.322 53.4993,305.322 53.5,310.5C 53.0512,324.169 52.5512,337.835 52,351.5C 51.5667,332.83 51.7334,314.163 52.5,295.5 Z"/></g>
<g><path style="opacity:1" fill="#d16756" d="M 318.5,339.5 C 319.742,341.611 319.742,343.611 318.5,345.5C 318.5,345.167 318.5,344.833 318.5,344.5C 306.678,343.505 294.678,343.172 282.5,343.5C 282.5,342.5 282.5,341.5 282.5,340.5C 294.42,339.521 306.42,339.188 318.5,339.5 Z"/></g>
<g><path style="opacity:1" fill="#e59487" d="M 282.5,343.5 C 294.678,343.172 306.678,343.505 318.5,344.5C 306.833,344.5 295.167,344.5 283.5,344.5C 283.5,346.167 283.5,347.833 283.5,349.5C 282.662,349.158 282.328,348.492 282.5,347.5C 282.5,346.167 282.5,344.833 282.5,343.5 Z"/></g>
<g><path style="opacity:1" fill="#fdfdfd" d="M 318.5,344.5 C 318.5,344.833 318.5,345.167 318.5,345.5C 318.5,347.5 318.5,349.5 318.5,351.5C 311.8,351.83 305.134,351.497 298.5,350.5C 298.113,349.28 297.28,348.613 296,348.5C 292.181,350.927 288.014,351.927 283.5,351.5C 283.5,350.833 283.5,350.167 283.5,349.5C 283.5,347.833 283.5,346.167 283.5,344.5C 295.167,344.5 306.833,344.5 318.5,344.5 Z"/></g>
<g><path style="opacity:1" fill="#455962" d="M 227.5,351.5 C 227.5,361.167 227.5,370.833 227.5,380.5C 224.918,380.025 222.918,380.692 221.5,382.5C 218.789,382.815 216.456,382.148 214.5,380.5C 214.827,370.985 214.494,361.652 213.5,352.5C 213.5,351.5 213.5,350.5 213.5,349.5C 217.842,349.261 222.176,348.927 226.5,348.5C 226.263,349.791 226.596,350.791 227.5,351.5 Z"/></g>
<g><path style="opacity:0.302" fill="#263238" d="M 282.5,347.5 C 282.328,348.492 282.662,349.158 283.5,349.5C 283.5,350.167 283.5,350.833 283.5,351.5C 283.167,351.5 282.833,351.5 282.5,351.5C 281.185,350.524 279.852,349.524 278.5,348.5C 277.248,351.288 278.248,352.954 281.5,353.5C 281.5,354.167 281.167,354.5 280.5,354.5C 279.167,354.167 277.833,353.833 276.5,353.5C 273.14,346.855 275.14,344.855 282.5,347.5 Z"/></g>
<g><path style="opacity:1" fill="#616166" d="M 318.5,351.5 C 311.6,352.199 304.6,352.866 297.5,353.5C 293.03,352.514 288.363,352.181 283.5,352.5C 283.5,353.833 283.5,355.167 283.5,356.5C 282.29,356.068 281.29,355.401 280.5,354.5C 281.167,354.5 281.5,354.167 281.5,353.5C 282.338,353.158 282.672,352.492 282.5,351.5C 282.833,351.5 283.167,351.5 283.5,351.5C 288.014,351.927 292.181,350.927 296,348.5C 297.28,348.613 298.113,349.28 298.5,350.5C 305.134,351.497 311.8,351.83 318.5,351.5 Z"/></g>
<g><path style="opacity:1" fill="#151319" d="M 213.5,352.5 C 214.494,361.652 214.827,370.985 214.5,380.5C 208.974,380.179 203.64,380.512 198.5,381.5C 158.99,382.5 119.49,383.834 80,385.5C 74.9881,385.499 70.1547,385.166 65.5,384.5C 66.0431,384.44 66.3764,384.107 66.5,383.5C 65.7366,382.281 64.7366,381.281 63.5,380.5C 67.3776,378.599 67.3776,376.766 63.5,375C 64.5,374 65.5,373 66.5,372C 65.5,371 64.5,370 63.5,369C 64.5,368 65.5,367 66.5,366C 62.9561,364.747 62.6228,362.913 65.5,360.5C 64.6431,359.575 63.6431,358.908 62.5,358.5C 112.66,356.119 162.993,354.119 213.5,352.5 Z"/></g>
<g><path style="opacity:1" fill="#db6b58" d="M 227.5,351.5 C 227.833,351.5 228.167,351.5 228.5,351.5C 233.716,351.462 238.716,352.462 243.5,354.5C 246.2,356.234 248.2,358.568 249.5,361.5C 249.5,361.833 249.5,362.167 249.5,362.5C 249.901,367.801 248.234,372.301 244.5,376C 239.118,378.686 233.452,380.186 227.5,380.5C 227.5,370.833 227.5,361.167 227.5,351.5 Z"/></g>
<g><path style="opacity:1" fill="#18161c" d="M 318.5,351.5 C 319.434,352.568 319.768,353.901 319.5,355.5C 318.917,362.294 317.917,369.128 316.5,376C 297.207,377.422 277.874,377.922 258.5,377.5C 258.338,375.473 258.505,373.473 259,371.5C 263.717,367.058 269.217,364.058 275.5,362.5C 276.117,362.389 276.617,362.056 277,361.5C 279.746,362.65 282.579,363.15 285.5,363C 284.167,362.333 282.833,361.667 281.5,361C 283.5,361 285.5,361 287.5,361C 285.122,360.026 285.456,359.359 288.5,359C 287.833,358.667 287.167,358.333 286.5,358C 288.5,358 290.5,358 292.5,358C 291.833,357.667 291.167,357.333 290.5,357C 293.445,356.861 295.779,355.694 297.5,353.5C 304.6,352.866 311.6,352.199 318.5,351.5 Z"/></g>
<g><path style="opacity:1" fill="#1f252c" d="M 297.5,353.5 C 295.779,355.694 293.445,356.861 290.5,357C 291.167,357.333 291.833,357.667 292.5,358C 290.5,358 288.5,358 286.5,358C 287.167,358.333 287.833,358.667 288.5,359C 285.456,359.359 285.122,360.026 287.5,361C 285.5,361 283.5,361 281.5,361C 282.833,361.667 284.167,362.333 285.5,363C 282.579,363.15 279.746,362.65 277,361.5C 276.617,362.056 276.117,362.389 275.5,362.5C 275.5,361.167 276.167,360.5 277.5,360.5C 279.632,360.446 280.965,359.446 281.5,357.5C 282.492,357.672 283.158,357.338 283.5,356.5C 283.5,355.167 283.5,353.833 283.5,352.5C 288.363,352.181 293.03,352.514 297.5,353.5 Z"/></g>
<g><path style="opacity:1" fill="#fbfbfb" d="M 62.5,358.5 C 63.6431,358.908 64.6431,359.575 65.5,360.5C 62.6228,362.913 62.9561,364.747 66.5,366C 65.5,367 64.5,368 63.5,369C 64.5,370 65.5,371 66.5,372C 65.5,373 64.5,374 63.5,375C 67.3776,376.766 67.3776,378.599 63.5,380.5C 64.7366,381.281 65.7366,382.281 66.5,383.5C 66.3764,384.107 66.0431,384.44 65.5,384.5C 63.9317,385.473 62.265,385.64 60.5,385C 55.1667,382.333 49.8333,379.667 44.5,377C 43.9152,375.698 43.2485,374.531 42.5,373.5C 42.5,372.167 42.5,370.833 42.5,369.5C 48.8377,365.329 55.5044,361.663 62.5,358.5 Z"/></g>
<g><path style="opacity:1" fill="#8a8e90" d="M 281.5,357.5 C 280.965,359.446 279.632,360.446 277.5,360.5C 278.035,358.554 279.368,357.554 281.5,357.5 Z"/></g>
<g><path style="opacity:1" fill="#959598" d="M 263.5,353.5 C 263.5,356.5 263.5,359.5 263.5,362.5C 258.833,362.5 254.167,362.5 249.5,362.5C 249.5,362.167 249.5,361.833 249.5,361.5C 253.833,361.5 258.167,361.5 262.5,361.5C 262.194,358.615 262.527,355.948 263.5,353.5 Z"/></g>
<g><path style="opacity:1" fill="#3d4d54" d="M 42.5,369.5 C 42.5,370.833 42.5,372.167 42.5,373.5C 42.6309,374.376 42.2975,375.043 41.5,375.5C 35.224,373.316 35.5573,371.316 42.5,369.5 Z"/></g>
<g><path style="opacity:1" fill="#a6aaad" d="M 198.5,381.5 C 203.64,380.512 208.974,380.179 214.5,380.5C 216.456,382.148 218.789,382.815 221.5,382.5C 220.551,383.152 219.385,383.486 218,383.5C 211.611,381.806 205.111,381.139 198.5,381.5 Z"/></g>
</svg>
