<?xml version="1.0" encoding="UTF-8"?>
<!DOCTYPE svg PUBLIC "-//W3C//DTD SVG 1.1//EN" "http://www.w3.org/Graphics/SVG/1.1/DTD/svg11.dtd">
<svg xmlns="http://www.w3.org/2000/svg" version="1.1" width="388px" height="347px" style="shape-rendering:geometricPrecision; text-rendering:geometricPrecision; image-rendering:optimizeQuality; fill-rule:evenodd; clip-rule:evenodd" xmlns:xlink="http://www.w3.org/1999/xlink">
<g><path style="opacity:0.905" fill="#efefef" d="M 334.5,5.5 C 339.206,4.88107 341.873,6.88107 342.5,11.5C 347.151,12.1742 348.651,14.8408 347,19.5C 346.5,20.6667 345.667,21.5 344.5,22C 336.833,22.6667 329.167,22.6667 321.5,22C 319.527,18.2421 320.527,16.0755 324.5,15.5C 324.343,14.1266 324.51,12.7932 325,11.5C 328.186,9.42928 331.352,7.42928 334.5,5.5 Z"/></g>
<g><path style="opacity:0.978" fill="#f8f8f8" d="M 45.5,42.5 C 48.977,41.6773 52.6437,41.1773 56.5,41C 59.9759,35.8595 58.6426,33.0262 52.5,32.5C 52.6315,28.7794 51.6315,25.4461 49.5,22.5C 57.099,10.8788 67.7657,6.71209 81.5,10C 94.5781,14.9239 101.245,24.4239 101.5,38.5C 105.525,39.3056 109.525,40.4723 113.5,42C 114.726,44.5273 116.392,46.694 118.5,48.5C 119.76,50.3529 119.76,52.1862 118.5,54C 110.833,54.3333 103.167,54.6667 95.5,55C 82.34,67.6843 68.34,68.6843 53.5,58C 49.2826,53.6207 46.616,48.4541 45.5,42.5 Z"/></g>
<g><path style="opacity:0.953" fill="#f0f0f0" d="M 49.5,22.5 C 51.6315,25.4461 52.6315,28.7794 52.5,32.5C 58.6426,33.0262 59.9759,35.8595 56.5,41C 52.6437,41.1773 48.977,41.6773 45.5,42.5C 37.4931,42.6664 29.4931,42.4997 21.5,42C 15.9051,39.646 14.0718,35.4793 16,29.5C 16.3742,28.5838 16.8742,27.7504 17.5,27C 22.1667,25.6667 25.1667,22.6667 26.5,18C 28.5883,16.9704 30.755,16.1371 33,15.5C 38.1378,18.6824 43.6378,21.0158 49.5,22.5 Z"/></g>
<g><path style="opacity:0.911" fill="#ececec" d="M 260.5,32.5 C 247.167,33.8333 233.833,33.8333 220.5,32.5C 224.695,29.7795 229.362,28.2795 234.5,28C 240.726,21.9423 247.726,20.9423 255.5,25C 257.797,27.0987 259.464,29.5987 260.5,32.5 Z"/></g>
<g><path style="opacity:0.999" fill="#2a363c" d="M 199.5,-0.5 C 199.833,-0.5 200.167,-0.5 200.5,-0.5C 200.333,11.8378 200.5,24.1712 201,36.5C 202.8,34.683 204.966,33.5163 207.5,33C 211.821,32.501 216.154,32.3343 220.5,32.5C 233.833,33.8333 247.167,33.8333 260.5,32.5C 293.168,32.3334 325.835,32.5 358.5,33C 362.896,33.7297 365.73,36.2297 367,40.5C 367.5,111.499 367.667,182.499 367.5,253.5C 374.167,253.5 380.833,253.5 387.5,253.5C 387.5,253.833 387.5,254.167 387.5,254.5C 380.833,254.5 374.167,254.5 367.5,254.5C 367.5,262.833 367.5,271.167 367.5,279.5C 366.167,286.167 366.167,292.833 367.5,299.5C 367.5,304.5 367.5,309.5 367.5,314.5C 374.167,314.5 380.833,314.5 387.5,314.5C 387.5,314.833 387.5,315.167 387.5,315.5C 380.833,315.5 374.167,315.5 367.5,315.5C 367.5,319.5 367.5,323.5 367.5,327.5C 365.277,330.886 362.277,333.386 358.5,335C 307.833,335.667 257.167,335.667 206.5,335C 200.435,332.098 197.768,327.265 198.5,320.5C 198.5,313.5 198.5,306.5 198.5,299.5C 199.833,292.833 199.833,286.167 198.5,279.5C 198.5,272.5 198.5,265.5 198.5,258.5C 198.783,257.711 199.283,257.044 200,256.5C 200.167,252.333 200.333,248.167 200.5,244C 200.491,239.443 199.825,235.276 198.5,231.5C 198.5,225.5 198.5,219.5 198.5,213.5C 199.775,200.534 200.441,187.534 200.5,174.5C 201.124,172.246 202.457,170.579 204.5,169.5C 204.333,221.501 204.5,273.501 205,325.5C 205.374,326.416 205.874,327.25 206.5,328C 257.5,328.667 308.5,328.667 359.5,328C 360.126,327.25 360.626,326.416 361,325.5C 361.5,276.168 361.667,226.834 361.5,177.5C 361.667,132.499 361.5,87.4988 361,42.5C 360.626,41.5838 360.126,40.7504 359.5,40C 357.19,39.5034 354.857,39.3367 352.5,39.5C 341.495,39.3335 330.495,39.5002 319.5,40C 318.692,42.0876 317.692,44.0876 316.5,46C 294.167,46.6667 271.833,46.6667 249.5,46C 248.692,43.9124 247.692,41.9124 246.5,40C 233.167,39.3333 219.833,39.3333 206.5,40C 205.874,40.7504 205.374,41.5838 205,42.5C 204.5,64.4975 204.333,86.4975 204.5,108.5C 202.421,108.029 200.421,107.363 198.5,106.5C 198.581,70.8304 198.914,35.1638 199.5,-0.5 Z"/></g>
<g><path style="opacity:1" fill="#9a9fa2" d="M 278.5,38.5 C 279.833,38.5 281.167,38.5 282.5,38.5C 282.778,40.3464 282.111,41.6798 280.5,42.5C 278.889,41.6798 278.222,40.3464 278.5,38.5 Z"/></g>
<g><path style="opacity:1" fill="#2a282f" d="M 352.5,39.5 C 352.233,41.9653 351.566,44.2986 350.5,46.5C 348.5,46.5 346.5,46.5 344.5,46.5C 344.5,48.1667 344.5,49.8333 344.5,51.5C 345.833,51.5 347.167,51.5 348.5,51.5C 347.637,53.4214 346.971,55.4214 346.5,57.5C 299.833,57.5 253.167,57.5 206.5,57.5C 205.833,74.5 205.167,91.5 204.5,108.5C 204.333,86.4975 204.5,64.4975 205,42.5C 205.374,41.5838 205.874,40.7504 206.5,40C 219.833,39.3333 233.167,39.3333 246.5,40C 247.692,41.9124 248.692,43.9124 249.5,46C 271.833,46.6667 294.167,46.6667 316.5,46C 317.692,44.0876 318.692,42.0876 319.5,40C 330.495,39.5002 341.495,39.3335 352.5,39.5 Z"/></g>
<g><path style="opacity:1" fill="#14131a" d="M 352.5,39.5 C 354.857,39.3367 357.19,39.5034 359.5,40C 360.126,40.7504 360.626,41.5838 361,42.5C 361.5,87.4988 361.667,132.499 361.5,177.5C 360.5,177.5 359.5,177.5 358.5,177.5C 358.5,137.5 358.5,97.5 358.5,57.5C 354.5,57.5 350.5,57.5 346.5,57.5C 346.971,55.4214 347.637,53.4214 348.5,51.5C 350.167,51.5 351.833,51.5 353.5,51.5C 353.5,49.8333 353.5,48.1667 353.5,46.5C 352.5,46.5 351.5,46.5 350.5,46.5C 351.566,44.2986 352.233,41.9653 352.5,39.5 Z"/></g>
<g><path style="opacity:1" fill="#959598" d="M 212.5,45.5 C 213.693,45.9704 214.36,46.9704 214.5,48.5C 214.167,49.5 213.833,50.5 213.5,51.5C 212.534,49.604 212.201,47.604 212.5,45.5 Z"/></g>
<g><path style="opacity:1" fill="#8e8d91" d="M 215.5,46.5 C 216.649,46.7911 217.316,47.6244 217.5,49C 217.167,49.8333 216.833,50.6667 216.5,51.5C 215.548,49.9547 215.215,48.288 215.5,46.5 Z"/></g>
<g><path style="opacity:1" fill="#969498" d="M 350.5,46.5 C 351.5,46.5 352.5,46.5 353.5,46.5C 353.5,48.1667 353.5,49.8333 353.5,51.5C 351.833,51.5 350.167,51.5 348.5,51.5C 347.167,51.5 345.833,51.5 344.5,51.5C 344.5,49.8333 344.5,48.1667 344.5,46.5C 346.5,46.5 348.5,46.5 350.5,46.5 Z"/></g>
<g><path style="opacity:1" fill="#706f73" d="M 218.5,47.5 C 220.5,47.8333 222.5,48.1667 224.5,48.5C 224.5,49.5 224.5,50.5 224.5,51.5C 222.5,51.5 220.5,51.5 218.5,51.5C 218.5,50.1667 218.5,48.8333 218.5,47.5 Z"/></g>
<g><path style="opacity:1" fill="#49474d" d="M 206.5,57.5 C 206.5,57.8333 206.5,58.1667 206.5,58.5C 206.5,75.8333 206.5,93.1667 206.5,110.5C 205.5,110.167 204.833,109.5 204.5,108.5C 205.167,91.5 205.833,74.5 206.5,57.5 Z"/></g>
<g><path style="opacity:1" fill="#969598" d="M 206.5,58.5 C 252.835,58.3333 299.168,58.5 345.5,59C 344.663,60.0113 344.33,61.1779 344.5,62.5C 299.664,62.1679 254.997,62.5013 210.5,63.5C 210.5,70.5 210.5,77.5 210.5,84.5C 251.33,85.4986 292.33,85.832 333.5,85.5C 333.389,86.1174 333.056,86.6174 332.5,87C 339.679,87.1715 346.679,87.6715 353.5,88.5C 305.833,88.5 258.167,88.5 210.5,88.5C 209.67,96.9903 209.17,105.657 209,114.5C 207.905,113.307 207.072,111.973 206.5,110.5C 206.5,93.1667 206.5,75.8333 206.5,58.5 Z"/></g>
<g><path style="opacity:1" fill="#7c7b7f" d="M 206.5,58.5 C 206.5,58.1667 206.5,57.8333 206.5,57.5C 253.167,57.5 299.833,57.5 346.5,57.5C 350.5,57.5 354.5,57.5 358.5,57.5C 358.5,97.5 358.5,137.5 358.5,177.5C 358.832,223.67 358.499,269.67 357.5,315.5C 357.5,269.833 357.5,224.167 357.5,178.5C 356.5,178.5 355.5,178.5 354.5,178.5C 354.817,182.702 354.483,186.702 353.5,190.5C 353.5,183.167 353.5,175.833 353.5,168.5C 305.833,168.5 258.167,168.5 210.5,168.5C 233.67,167.833 257.004,167.167 280.5,166.5C 280.863,165.817 281.196,165.15 281.5,164.5C 305.833,164.5 330.167,164.5 354.5,164.5C 354.829,151.989 354.495,139.655 353.5,127.5C 339.167,126.833 324.833,126.167 310.5,125.5C 325.167,125.5 339.833,125.5 354.5,125.5C 354.829,112.989 354.495,100.655 353.5,88.5C 346.679,87.6715 339.679,87.1715 332.5,87C 333.056,86.6174 333.389,86.1174 333.5,85.5C 340.5,85.5 347.5,85.5 354.5,85.5C 354.825,77.9809 354.492,70.6476 353.5,63.5C 305.833,63.5 258.167,63.5 210.5,63.5C 254.997,62.5013 299.664,62.1679 344.5,62.5C 344.33,61.1779 344.663,60.0113 345.5,59C 299.168,58.5 252.835,58.3333 206.5,58.5 Z"/></g>
<g><path style="opacity:1" fill="#141219" d="M 210.5,63.5 C 258.167,63.5 305.833,63.5 353.5,63.5C 353.5,70.5 353.5,77.5 353.5,84.5C 305.833,84.5 258.167,84.5 210.5,84.5C 210.5,77.5 210.5,70.5 210.5,63.5 Z"/></g>
<g><path style="opacity:0.978" fill="#273238" d="M 179.5,83.5 C 177.278,83.178 175.444,83.8446 174,85.5C 171.817,81.4866 168.651,78.4866 164.5,76.5C 161.99,76.833 159.823,77.833 158,79.5C 157.902,82.5224 157.068,85.1891 155.5,87.5C 153.557,86.7089 152.557,85.2089 152.5,83C 153.054,80.1764 153.554,77.343 154,74.5C 155.066,71.4369 157.233,69.9369 160.5,70C 164.16,69.4533 167.827,68.9533 171.5,68.5C 177.322,68.6526 180.656,71.6526 181.5,77.5C 181.023,79.5965 180.357,81.5965 179.5,83.5 Z"/></g>
<g><path style="opacity:1" fill="#cfced0" d="M 294.5,68.5 C 295.765,69.5145 296.431,71.0145 296.5,73C 296.167,74.5 295.833,76 295.5,77.5C 294.516,74.5719 294.183,71.5719 294.5,68.5 Z"/></g>
<g><path style="opacity:1" fill="#d9d9da" d="M 277.5,74.5 C 276.265,74.2786 275.265,73.6119 274.5,72.5C 273.571,73.6888 273.238,75.0222 273.5,76.5C 274.5,76.5 275.5,76.5 276.5,76.5C 274.395,77.8189 272.395,77.4856 270.5,75.5C 267.807,77.2702 264.807,77.9368 261.5,77.5C 261.5,74.8333 261.5,72.1667 261.5,69.5C 263.857,69.3367 266.19,69.5034 268.5,70C 269.701,70.9025 270.535,72.0692 271,73.5C 273.864,70.5983 276.031,70.9316 277.5,74.5 Z"/></g>
<g><path style="opacity:1" fill="#f3f3f4" d="M 279.5,69.5 C 280.309,70.4687 281.309,71.3021 282.5,72C 279.833,73.6667 279.833,75.3333 282.5,77C 281.552,77.4828 280.552,77.6495 279.5,77.5C 279.031,74.6613 279.031,71.9946 279.5,69.5 Z"/></g>
<g><path style="opacity:1" fill="#222127" d="M 263.5,70.5 C 268.159,70.0146 269.492,71.848 267.5,76C 266.207,76.49 264.873,76.6567 263.5,76.5C 263.5,74.5 263.5,72.5 263.5,70.5 Z"/></g>
<g><path style="opacity:1" fill="#a8a7aa" d="M 291.5,71.5 C 292.693,71.9704 293.36,72.9704 293.5,74.5C 293.167,75.5 292.833,76.5 292.5,77.5C 291.534,75.604 291.201,73.604 291.5,71.5 Z"/></g>
<g><path style="opacity:1" fill="#d4d3d5" d="M 298.5,71.5 C 302.893,71.4568 303.226,71.9568 299.5,73C 304.814,75.7072 304.481,77.0405 298.5,77C 299.5,76.6667 300.5,76.3333 301.5,76C 298.418,75.4785 297.418,73.9785 298.5,71.5 Z"/></g>
<g><path style="opacity:1" fill="#68676c" d="M 277.5,74.5 C 277.167,75.1667 276.833,75.8333 276.5,76.5C 275.5,76.5 274.5,76.5 273.5,76.5C 273.238,75.0222 273.571,73.6888 274.5,72.5C 275.265,73.6119 276.265,74.2786 277.5,74.5 Z"/></g>
<g><path style="opacity:1" fill="#5f5d62" d="M 284.5,71.5 C 285.209,72.404 286.209,72.7373 287.5,72.5C 287.666,76.3734 286.666,77.0401 284.5,74.5C 283.375,73.3478 283.375,72.3478 284.5,71.5 Z"/></g>
<g><path style="opacity:1" fill="#dbdbdc" d="M 284.5,71.5 C 288.908,71.062 290.575,73.062 289.5,77.5C 287.801,77.6602 286.134,77.4935 284.5,77C 283.226,76.0228 283.226,75.1894 284.5,74.5C 286.666,77.0401 287.666,76.3734 287.5,72.5C 286.209,72.7373 285.209,72.404 284.5,71.5 Z"/></g>
<g><path style="opacity:0.982" fill="#b15951" d="M 179.5,83.5 C 180.693,87.0722 180.359,90.5722 178.5,94C 178.897,98.5086 180.231,102.675 182.5,106.5C 180.183,110.482 177.183,113.815 173.5,116.5C 173.167,116.5 172.833,116.5 172.5,116.5C 171.5,116.167 170.833,115.5 170.5,114.5C 170.822,112.525 170.822,110.858 170.5,109.5C 171.778,107.456 171.612,105.456 170,103.5C 161.228,101.889 156.395,96.5557 155.5,87.5C 157.068,85.1891 157.902,82.5224 158,79.5C 159.823,77.833 161.99,76.833 164.5,76.5C 168.651,78.4866 171.817,81.4866 174,85.5C 175.444,83.8446 177.278,83.178 179.5,83.5 Z"/></g>
<g><path style="opacity:0.966" fill="#efefef" d="M 139.5,129.5 C 138.596,128.791 138.263,127.791 138.5,126.5C 140.435,125.85 142.435,125.517 144.5,125.5C 143.512,120.035 142.012,114.702 140,109.5C 137.379,109.296 134.545,109.296 131.5,109.5C 131.575,112.206 131.908,114.873 132.5,117.5C 130.377,121.693 130.044,126.027 131.5,130.5C 112.497,130.667 93.4971,130.5 74.5,130C 66.0291,124.958 65.3624,118.958 72.5,112C 74.8098,111.503 77.1432,111.337 79.5,111.5C 79.6996,96.4677 87.3663,88.9677 102.5,89C 107.978,82.2849 114.978,79.9516 123.5,82C 130.4,84.8992 134.234,90.0659 135,97.5C 147.814,100.137 152.814,107.803 150,120.5C 147.995,125.251 144.495,128.251 139.5,129.5 Z"/></g>
<g><path style="opacity:1" fill="#2e2d32" d="M 353.5,63.5 C 354.492,70.6476 354.825,77.9809 354.5,85.5C 347.5,85.5 340.5,85.5 333.5,85.5C 292.33,85.832 251.33,85.4986 210.5,84.5C 258.167,84.5 305.833,84.5 353.5,84.5C 353.5,77.5 353.5,70.5 353.5,63.5 Z"/></g>
<g><path style="opacity:1" fill="#fcfcfc" d="M 210.5,88.5 C 258.167,88.5 305.833,88.5 353.5,88.5C 354.495,100.655 354.829,112.989 354.5,125.5C 339.833,125.5 325.167,125.5 310.5,125.5C 278.5,125.5 246.5,125.5 214.5,125.5C 213.243,122.904 212.076,120.237 211,117.5C 210.5,107.839 210.334,98.1724 210.5,88.5 Z"/></g>
<g><path style="opacity:1" fill="#605f64" d="M 247.5,106.5 C 244.15,106.335 240.817,106.502 237.5,107C 238.623,108.044 239.956,108.71 241.5,109C 238.23,110.942 235.23,110.442 232.5,107.5C 228.893,106.511 225.226,106.177 221.5,106.5C 221.5,107.5 221.5,108.5 221.5,109.5C 219.597,102.83 222.263,98.6635 229.5,97C 235.268,95.7754 240.601,96.7754 245.5,100C 247.905,101.897 248.572,104.064 247.5,106.5 Z"/></g>
<g><path style="opacity:1" fill="#222127" d="M 314.5,100.5 C 319.955,99.8882 323.288,102.222 324.5,107.5C 323.634,111.532 321.134,113.532 317,113.5C 313.111,113.447 310.945,111.447 310.5,107.5C 311.071,104.687 312.404,102.354 314.5,100.5 Z"/></g>
<g><path style="opacity:1" fill="#1e1d23" d="M 334.5,100.5 C 339.955,99.8882 343.288,102.222 344.5,107.5C 342.02,113.729 337.853,115.062 332,111.5C 329.826,107.193 330.659,103.526 334.5,100.5 Z"/></g>
<g><path style="opacity:1" fill="#a5a5a5" d="M 261.5,102.5 C 268.583,102.743 269.249,104.91 263.5,109C 264.833,109.333 266.167,109.667 267.5,110C 261.276,111.166 260.276,109.666 264.5,105.5C 263.007,104.859 262.007,103.859 261.5,102.5 Z"/></g>
<g><path style="opacity:0.971" fill="#faf8f7" d="M 182.5,106.5 C 183.492,106.328 184.158,106.662 184.5,107.5C 184.531,113.946 181.531,117.779 175.5,119C 174.619,118.292 173.953,117.458 173.5,116.5C 177.183,113.815 180.183,110.482 182.5,106.5 Z"/></g>
<g><path style="opacity:1" fill="#9a9a9a" d="M 254.5,104.5 C 255.75,104.577 256.583,105.244 257,106.5C 257.667,105.833 258.333,105.167 259,104.5C 258.333,106.5 258.333,108.5 259,110.5C 257.575,109.788 256.075,109.621 254.5,110C 255.536,108.224 255.536,106.391 254.5,104.5 Z"/></g>
<g><path style="opacity:1" fill="#a09fa2" d="M 316.5,103.5 C 318.048,103.821 318.715,104.821 318.5,106.5C 322.5,106.833 322.5,107.167 318.5,107.5C 317.833,112.833 317.167,112.833 316.5,107.5C 312.5,107.167 312.5,106.833 316.5,106.5C 316.5,105.5 316.5,104.5 316.5,103.5 Z"/></g>
<g><path style="opacity:1" fill="#b8b7b9" d="M 187.5,-0.5 C 187.833,-0.5 188.167,-0.5 188.5,-0.5C 188.333,35.5015 188.5,71.5015 189,107.5C 192.057,106.549 195.223,106.216 198.5,106.5C 200.421,107.363 202.421,108.029 204.5,108.5C 204.833,109.5 205.5,110.167 206.5,110.5C 207.072,111.973 207.905,113.307 209,114.5C 209.17,105.657 209.67,96.9903 210.5,88.5C 210.334,98.1724 210.5,107.839 211,117.5C 212.076,120.237 213.243,122.904 214.5,125.5C 213.561,126.327 213.895,126.994 215.5,127.5C 215.634,129.292 215.301,130.958 214.5,132.5C 213.85,132.196 213.183,131.863 212.5,131.5C 209.55,132.705 206.55,133.705 203.5,134.5C 202.193,135.153 200.86,135.82 199.5,136.5C 198.259,144.848 198.259,153.181 199.5,161.5C 199.443,162.609 199.11,163.609 198.5,164.5C 185.829,165.1 173.162,165.767 160.5,166.5C 158.543,157.884 156.876,149.217 155.5,140.5C 152.794,137.479 149.461,135.479 145.5,134.5C 147.651,125.012 152.651,117.512 160.5,112C 163.768,110.85 167.101,110.016 170.5,109.5C 170.822,110.858 170.822,112.525 170.5,114.5C 169.732,113.737 169.232,112.737 169,111.5C 166.916,115.016 167.25,118.35 170,121.5C 171.094,119.922 171.928,118.255 172.5,116.5C 172.833,116.5 173.167,116.5 173.5,116.5C 173.953,117.458 174.619,118.292 175.5,119C 181.531,117.779 184.531,113.946 184.5,107.5C 185.5,107.5 186.5,107.5 187.5,107.5C 187.5,71.5 187.5,35.5 187.5,-0.5 Z"/></g>
<g><path style="opacity:1" fill="#747377" d="M 333.5,106.5 C 336.247,106.187 338.914,106.52 341.5,107.5C 340.167,107.833 338.833,108.167 337.5,108.5C 335.667,108.415 334.334,107.748 333.5,106.5 Z"/></g>
<g><path style="opacity:1" fill="#676e72" d="M 138.5,126.5 C 140.793,121.878 139.627,118.544 135,116.5C 134.098,116.743 133.265,117.077 132.5,117.5C 131.908,114.873 131.575,112.206 131.5,109.5C 134.545,109.296 137.379,109.296 140,109.5C 142.012,114.702 143.512,120.035 144.5,125.5C 142.435,125.517 140.435,125.85 138.5,126.5 Z"/></g>
<g><path style="opacity:1" fill="#23252b" d="M 247.5,106.5 C 247.167,107.833 246.833,109.167 246.5,110.5C 245.411,112.117 243.744,112.95 241.5,113C 243.167,113.333 244.833,113.667 246.5,114C 245.5,114.167 244.5,114.333 243.5,114.5C 236.283,113.334 229.283,112.001 222.5,110.5C 222.5,109.833 222.167,109.5 221.5,109.5C 221.5,108.5 221.5,107.5 221.5,106.5C 225.226,106.177 228.893,106.511 232.5,107.5C 235.23,110.442 238.23,110.942 241.5,109C 239.956,108.71 238.623,108.044 237.5,107C 240.817,106.502 244.15,106.335 247.5,106.5 Z"/></g>
<g><path style="opacity:1" fill="#f9f8f8" d="M 170.5,114.5 C 170.833,115.5 171.5,116.167 172.5,116.5C 171.928,118.255 171.094,119.922 170,121.5C 167.25,118.35 166.916,115.016 169,111.5C 169.232,112.737 169.732,113.737 170.5,114.5 Z"/></g>
<g><path style="opacity:1" fill="#57585d" d="M 222.5,110.5 C 229.283,112.001 236.283,113.334 243.5,114.5C 244.5,114.333 245.5,114.167 246.5,114C 244.833,113.667 243.167,113.333 241.5,113C 243.744,112.95 245.411,112.117 246.5,110.5C 247.468,112.607 247.802,114.941 247.5,117.5C 238.827,117.666 230.16,117.5 221.5,117C 221.043,116.586 220.709,116.086 220.5,115.5C 221.028,113.664 221.694,111.997 222.5,110.5 Z"/></g>
<g><path style="opacity:1" fill="#1f1e23" d="M 222.5,114.5 C 227.316,113.35 232.316,113.184 237.5,114C 232.581,115.778 227.581,115.945 222.5,114.5 Z"/></g>
<g><path style="opacity:1" fill="#9d9c9f" d="M 214.5,125.5 C 246.5,125.5 278.5,125.5 310.5,125.5C 324.833,126.167 339.167,126.833 353.5,127.5C 307.5,127.5 261.5,127.5 215.5,127.5C 213.895,126.994 213.561,126.327 214.5,125.5 Z"/></g>
<g><path style="opacity:1" fill="#fbfbfb" d="M 185.5,126.5 C 186.833,126.5 188.167,126.5 189.5,126.5C 189.823,130.226 189.489,133.893 188.5,137.5C 185.916,138.393 183.249,138.726 180.5,138.5C 180.5,134.833 180.5,131.167 180.5,127.5C 182.415,127.784 184.081,127.451 185.5,126.5 Z"/></g>
<g><path style="opacity:1" fill="#fcfcfc" d="M 215.5,127.5 C 261.5,127.5 307.5,127.5 353.5,127.5C 354.495,139.655 354.829,151.989 354.5,164.5C 330.167,164.5 305.833,164.5 281.5,164.5C 257.833,164.5 234.167,164.5 210.5,164.5C 210.5,163.167 210.5,161.833 210.5,160.5C 212.321,156.188 214.154,151.855 216,147.5C 216.571,142.397 216.071,137.397 214.5,132.5C 215.301,130.958 215.634,129.292 215.5,127.5 Z"/></g>
<g><path style="opacity:0.988" fill="#b55c53" d="M 138.5,126.5 C 138.263,127.791 138.596,128.791 139.5,129.5C 140.092,132.691 141.259,135.691 143,138.5C 143.662,137.016 144.496,135.683 145.5,134.5C 149.461,135.479 152.794,137.479 155.5,140.5C 153.316,144.701 150.316,148.201 146.5,151C 140.156,152.351 135.989,149.851 134,143.5C 132.369,139.312 131.536,134.979 131.5,130.5C 130.044,126.027 130.377,121.693 132.5,117.5C 133.265,117.077 134.098,116.743 135,116.5C 139.627,118.544 140.793,121.878 138.5,126.5 Z"/></g>
<g><path style="opacity:1" fill="#b45c53" d="M 214.5,132.5 C 216.071,137.397 216.571,142.397 216,147.5C 214.154,151.855 212.321,156.188 210.5,160.5C 208.674,162.147 207.34,164.147 206.5,166.5C 205.5,166.833 204.833,167.5 204.5,168.5C 204.5,168.833 204.5,169.167 204.5,169.5C 202.457,170.579 201.124,172.246 200.5,174.5C 198.436,173.942 196.77,172.775 195.5,171C 196.377,168.747 197.377,166.581 198.5,164.5C 199.11,163.609 199.443,162.609 199.5,161.5C 202.621,156.245 204.955,150.578 206.5,144.5C 205.895,141.02 204.895,137.686 203.5,134.5C 206.55,133.705 209.55,132.705 212.5,131.5C 213.183,131.863 213.85,132.196 214.5,132.5 Z"/></g>
<g><path style="opacity:1" fill="#2d343a" d="M 203.5,134.5 C 204.895,137.686 205.895,141.02 206.5,144.5C 204.955,150.578 202.621,156.245 199.5,161.5C 198.259,153.181 198.259,144.848 199.5,136.5C 200.86,135.82 202.193,135.153 203.5,134.5 Z"/></g>
<g><path style="opacity:1" fill="#9f9ea1" d="M 240.5,140.5 C 234.833,140.5 229.167,140.5 223.5,140.5C 225.958,134.793 230.291,132.959 236.5,135C 238.439,136.432 239.772,138.265 240.5,140.5 Z"/></g>
<g><path style="opacity:1" fill="#1a191f" d="M 312.5,139.5 C 320.845,139.691 323.178,143.524 319.5,151C 311.809,154.306 308.309,151.806 309,143.5C 309.69,141.65 310.856,140.316 312.5,139.5 Z"/></g>
<g><path style="opacity:1" fill="#222026" d="M 332.5,139.5 C 340.845,139.691 343.178,143.524 339.5,151C 331.809,154.306 328.309,151.806 329,143.5C 329.69,141.65 330.856,140.316 332.5,139.5 Z"/></g>
<g><path style="opacity:1" fill="#727175" d="M 223.5,140.5 C 229.167,140.5 234.833,140.5 240.5,140.5C 241.097,140.735 241.43,141.235 241.5,142C 240.984,144.669 240.317,147.169 239.5,149.5C 239.5,147.5 239.5,145.5 239.5,143.5C 234.167,143.5 228.833,143.5 223.5,143.5C 222.167,142.5 222.167,141.5 223.5,140.5 Z"/></g>
<g><path style="opacity:1" fill="#7e7f7e" d="M 258.5,142.5 C 259.209,141.596 260.209,141.263 261.5,141.5C 261.664,144.187 261.497,146.854 261,149.5C 261.03,146.639 260.197,144.305 258.5,142.5 Z"/></g>
<g><path style="opacity:1" fill="#f9f9f9" d="M 314.5,142.5 C 315.404,143.209 315.737,144.209 315.5,145.5C 319.5,145.833 319.5,146.167 315.5,146.5C 315.167,150.5 314.833,150.5 314.5,146.5C 310.5,146.167 310.5,145.833 314.5,145.5C 314.5,144.5 314.5,143.5 314.5,142.5 Z"/></g>
<g><path style="opacity:1" fill="#131118" d="M 223.5,143.5 C 228.833,143.5 234.167,143.5 239.5,143.5C 239.5,145.5 239.5,147.5 239.5,149.5C 239.5,150.833 239.5,152.167 239.5,153.5C 238.539,155.265 238.205,157.265 238.5,159.5C 234.167,159.5 229.833,159.5 225.5,159.5C 225.737,158.209 225.404,157.209 224.5,156.5C 224.769,152.069 224.436,147.735 223.5,143.5 Z"/></g>
<g><path style="opacity:1" fill="#929292" d="M 252.5,143.5 C 254.106,144.359 255.773,144.526 257.5,144C 256.174,146.158 254.507,147.992 252.5,149.5C 253.505,147.855 253.505,145.855 252.5,143.5 Z"/></g>
<g><path style="opacity:1" fill="#58575c" d="M 239.5,153.5 C 239.5,155.833 239.5,158.167 239.5,160.5C 234.5,160.5 229.5,160.5 224.5,160.5C 224.5,159.167 224.5,157.833 224.5,156.5C 225.404,157.209 225.737,158.209 225.5,159.5C 229.833,159.5 234.167,159.5 238.5,159.5C 238.205,157.265 238.539,155.265 239.5,153.5 Z"/></g>
<g><path style="opacity:0.994" fill="#131118" d="M 198.5,164.5 C 197.377,166.581 196.377,168.747 195.5,171C 196.77,172.775 198.436,173.942 200.5,174.5C 200.441,187.534 199.775,200.534 198.5,213.5C 196.872,219.268 195.872,225.268 195.5,231.5C 194.883,231.611 194.383,231.944 194,232.5C 191.929,237.299 192.096,241.966 194.5,246.5C 193.25,246.577 192.417,247.244 192,248.5C 189.971,258.81 188.138,269.144 186.5,279.5C 183.782,285.755 182.449,292.422 182.5,299.5C 181.833,302.833 181.167,306.167 180.5,309.5C 175.595,310.445 170.595,310.779 165.5,310.5C 165.724,306.821 166.058,303.154 166.5,299.5C 167.46,292.922 167.793,286.255 167.5,279.5C 167.543,271.152 167.876,262.819 168.5,254.5C 168.5,254.167 168.5,253.833 168.5,253.5C 168.5,252.5 168.5,251.5 168.5,250.5C 162.178,251.014 155.845,251.347 149.5,251.5C 146.5,251.5 143.5,251.5 140.5,251.5C 128.52,249.218 124.52,242.218 128.5,230.5C 130.548,226.074 132.882,221.74 135.5,217.5C 139.307,211.711 142.64,205.711 145.5,199.5C 150.313,193.235 155.146,186.902 160,180.5C 160.499,175.845 160.666,171.179 160.5,166.5C 173.162,165.767 185.829,165.1 198.5,164.5 Z M 169.5,215.5 C 170.004,220.98 170.004,226.647 169.5,232.5C 166.492,232.701 163.492,233.034 160.5,233.5C 158.192,233.635 156.192,232.969 154.5,231.5C 159.062,225.669 164.062,220.336 169.5,215.5 Z"/></g>
<g><path style="opacity:1" fill="#49464c" d="M 206.5,166.5 C 206.5,186.167 206.5,205.833 206.5,225.5C 205.833,206.5 205.167,187.5 204.5,168.5C 204.833,167.5 205.5,166.833 206.5,166.5 Z"/></g>
<g><path style="opacity:1" fill="#15131a" d="M 210.5,168.5 C 258.167,168.5 305.833,168.5 353.5,168.5C 353.5,175.833 353.5,183.167 353.5,190.5C 305.833,190.5 258.167,190.5 210.5,190.5C 210.5,183.167 210.5,175.833 210.5,168.5 Z"/></g>
<g><path style="opacity:1" fill="#e7e7e7" d="M 255.5,174.5 C 257.527,174.338 259.527,174.505 261.5,175C 262.022,175.561 262.355,176.228 262.5,177C 260.88,179.454 258.713,181.287 256,182.5C 255.503,179.854 255.336,177.187 255.5,174.5 Z"/></g>
<g><path style="opacity:1" fill="#fbfbfb" d="M 306.5,175.5 C 307.473,175.987 308.473,176.487 309.5,177C 306.833,178.667 306.833,180.333 309.5,182C 308.552,182.483 307.552,182.649 306.5,182.5C 306.15,179.959 306.15,177.626 306.5,175.5 Z"/></g>
<g><path style="opacity:1" fill="#4d4b51" d="M 256.5,175.5 C 258.346,175.222 259.68,175.889 260.5,177.5C 259.68,179.111 258.346,179.778 256.5,179.5C 256.5,178.167 256.5,176.833 256.5,175.5 Z"/></g>
<g><path style="opacity:1" fill="#c1c1c3" d="M 297.5,176.5 C 303.36,175.074 305.36,177.074 303.5,182.5C 302.036,176.053 300.37,176.053 298.5,182.5C 297.534,180.604 297.201,178.604 297.5,176.5 Z"/></g>
<g><path style="opacity:1" fill="#f0f0f0" d="M 264.5,179.5 C 265.738,179.81 265.738,180.31 264.5,181C 265.448,181.483 266.448,181.649 267.5,181.5C 267.768,179.901 267.434,178.568 266.5,177.5C 265.448,177.649 264.448,177.483 263.5,177C 265.134,176.506 266.801,176.34 268.5,176.5C 268.5,178.5 268.5,180.5 268.5,182.5C 266.833,182.5 265.167,182.5 263.5,182.5C 263.263,181.209 263.596,180.209 264.5,179.5 Z"/></g>
<g><path style="opacity:1" fill="#dad9db" d="M 277.5,176.5 C 280.85,176.335 284.183,176.502 287.5,177C 288.76,178.814 288.76,180.647 287.5,182.5C 285.998,176.001 284.498,176.001 283,182.5C 281.502,176.001 280.002,176.001 278.5,182.5C 277.534,180.604 277.201,178.604 277.5,176.5 Z"/></g>
<g><path style="opacity:1" fill="#2a282f" d="M 204.5,168.5 C 205.167,187.5 205.833,206.5 206.5,225.5C 206.5,255.5 206.5,285.5 206.5,315.5C 256.833,315.5 307.167,315.5 357.5,315.5C 358.499,269.67 358.832,223.67 358.5,177.5C 359.5,177.5 360.5,177.5 361.5,177.5C 361.667,226.834 361.5,276.168 361,325.5C 360.626,326.416 360.126,327.25 359.5,328C 308.5,328.667 257.5,328.667 206.5,328C 205.874,327.25 205.374,326.416 205,325.5C 204.5,273.501 204.333,221.501 204.5,169.5C 204.5,169.167 204.5,168.833 204.5,168.5 Z"/></g>
<g><path style="opacity:1" fill="#6b6a6e" d="M 266.5,177.5 C 267.434,178.568 267.768,179.901 267.5,181.5C 266.448,181.649 265.448,181.483 264.5,181C 265.738,180.31 265.738,179.81 264.5,179.5C 265.167,178.833 265.833,178.167 266.5,177.5 Z"/></g>
<g><path style="opacity:1" fill="#c7c7c8" d="M 270.5,176.5 C 271.712,177.23 272.712,178.23 273.5,179.5C 274.167,178.5 274.833,177.5 275.5,176.5C 275.833,176.833 276.167,177.167 276.5,177.5C 275.375,180.781 273.542,183.448 271,185.5C 270.5,185.167 270,184.833 269.5,184.5C 270.5,183.833 271.5,183.167 272.5,182.5C 271.253,180.677 270.586,178.677 270.5,176.5 Z"/></g>
<g><path style="opacity:1" fill="#949396" d="M 210.5,160.5 C 210.5,161.833 210.5,163.167 210.5,164.5C 234.167,164.5 257.833,164.5 281.5,164.5C 281.196,165.15 280.863,165.817 280.5,166.5C 257.004,167.167 233.67,167.833 210.5,168.5C 210.5,175.833 210.5,183.167 210.5,190.5C 258.167,190.5 305.833,190.5 353.5,190.5C 354.483,186.702 354.817,182.702 354.5,178.5C 355.5,178.5 356.5,178.5 357.5,178.5C 357.5,224.167 357.5,269.833 357.5,315.5C 307.167,315.5 256.833,315.5 206.5,315.5C 206.5,285.5 206.5,255.5 206.5,225.5C 206.5,205.833 206.5,186.167 206.5,166.5C 207.34,164.147 208.674,162.147 210.5,160.5 Z"/></g>
<g><path style="opacity:1" fill="#a3a2a5" d="M 291.5,176.5 C 295.903,175.893 297.236,177.56 295.5,181.5C 293.389,182.848 291.555,182.515 290,180.5C 289.7,178.934 290.2,177.601 291.5,176.5 Z"/></g>
<g><path style="opacity:0.992" fill="#efefef" d="M 122.5,197.5 C 124.51,208.547 126.51,219.547 128.5,230.5C 124.52,242.218 128.52,249.218 140.5,251.5C 140.5,253.167 140.5,254.833 140.5,256.5C 126.167,256.5 111.833,256.5 97.5,256.5C 97.3336,247.494 97.5002,238.494 98,229.5C 98.6667,228.833 99.3333,228.167 100,227.5C 100.499,222.177 100.666,216.844 100.5,211.5C 97.8333,211.5 95.1667,211.5 92.5,211.5C 92.1712,217.206 92.5046,222.872 93.5,228.5C 94.086,228.709 94.586,229.043 95,229.5C 95.4998,238.494 95.6664,247.494 95.5,256.5C 81.1667,256.5 66.8333,256.5 52.5,256.5C 52.8315,247.475 52.4982,238.475 51.5,229.5C 49.0454,228.09 48.0454,225.923 48.5,223C 50.5279,214.416 52.8612,205.916 55.5,197.5C 57.8333,197.5 60.1667,197.5 62.5,197.5C 60.4397,205.576 58.7731,213.743 57.5,222C 56.8878,228.757 59.3878,230.59 65,227.5C 66.1338,217.334 67.9672,207.334 70.5,197.5C 71.8333,197.5 73.1667,197.5 74.5,197.5C 74.5,194.167 74.5,190.833 74.5,187.5C 89.1667,187.5 103.833,187.5 118.5,187.5C 118.5,190.833 118.5,194.167 118.5,197.5C 119.833,197.5 121.167,197.5 122.5,197.5 Z"/></g>
<g><path style="opacity:1" fill="#fdfdfd" d="M 210.5,193.5 C 258.5,193.5 306.5,193.5 354.5,193.5C 354.5,207.167 354.5,220.833 354.5,234.5C 306.5,234.5 258.5,234.5 210.5,234.5C 210.5,220.833 210.5,207.167 210.5,193.5 Z"/></g>
<g><path style="opacity:0.989" fill="#e0e0e0" d="M 62.5,197.5 C 65.1667,197.5 67.8333,197.5 70.5,197.5C 67.9672,207.334 66.1338,217.334 65,227.5C 59.3878,230.59 56.8878,228.757 57.5,222C 58.7731,213.743 60.4397,205.576 62.5,197.5 Z"/></g>
<g><path style="opacity:0.992" fill="#dedede" d="M 122.5,197.5 C 124.833,197.5 127.167,197.5 129.5,197.5C 130.902,204.461 132.902,211.127 135.5,217.5C 132.882,221.74 130.548,226.074 128.5,230.5C 126.51,219.547 124.51,208.547 122.5,197.5 Z"/></g>
<g><path style="opacity:0.999" fill="#f0f0f0" d="M 129.5,197.5 C 135.271,196.887 140.604,197.554 145.5,199.5C 142.64,205.711 139.307,211.711 135.5,217.5C 132.902,211.127 130.902,204.461 129.5,197.5 Z"/></g>
<g><path style="opacity:1" fill="#aaaaaa" d="M 292.5,211.5 C 294.339,212.752 296.172,212.752 298,211.5C 298.75,212.126 299.584,212.626 300.5,213C 299.167,213.667 299.167,214.333 300.5,215C 298.137,215.663 295.637,216.163 293,216.5C 292.25,215.874 291.416,215.374 290.5,215C 289.952,213.404 290.618,212.237 292.5,211.5 Z"/></g>
<g><path style="opacity:1" fill="#aaaaaa" d="M 316.5,211.5 C 318.339,212.752 320.172,212.752 322,211.5C 322.75,212.126 323.584,212.626 324.5,213C 323.167,213.667 323.167,214.333 324.5,215C 322.137,215.663 319.637,216.163 317,216.5C 316.25,215.874 315.416,215.374 314.5,215C 313.952,213.404 314.618,212.237 316.5,211.5 Z"/></g>
<g><path style="opacity:1" fill="#9b9b9b" d="M 280.5,212.5 C 281.873,212.343 283.207,212.51 284.5,213C 283.167,213.667 283.167,214.333 284.5,215C 281.691,217.056 280.358,216.223 280.5,212.5 Z"/></g>
<g><path style="opacity:1" fill="#a1a1a1" d="M 285.5,213.5 C 286.568,212.566 287.901,212.232 289.5,212.5C 289.778,214.346 289.111,215.68 287.5,216.5C 285.698,215.725 285.031,214.725 285.5,213.5 Z"/></g>
<g><path style="opacity:1" fill="#9b9b9b" d="M 304.5,212.5 C 305.873,212.343 307.207,212.51 308.5,213C 307.167,213.667 307.167,214.333 308.5,215C 305.691,217.056 304.358,216.223 304.5,212.5 Z"/></g>
<g><path style="opacity:1" fill="#a1a1a1" d="M 309.5,213.5 C 310.568,212.566 311.901,212.232 313.5,212.5C 313.778,214.346 313.111,215.68 311.5,216.5C 309.698,215.725 309.031,214.725 309.5,213.5 Z"/></g>
<g><path style="opacity:1" fill="#9b9b9b" d="M 328.5,212.5 C 329.873,212.343 331.207,212.51 332.5,213C 331.167,213.667 331.167,214.333 332.5,215C 329.691,217.056 328.358,216.223 328.5,212.5 Z"/></g>
<g><path style="opacity:1" fill="#a1a1a1" d="M 333.5,213.5 C 334.568,212.566 335.901,212.232 337.5,212.5C 337.778,214.346 337.111,215.68 335.5,216.5C 333.698,215.725 333.031,214.725 333.5,213.5 Z"/></g>
<g><path style="opacity:1" fill="#9f9f9f" d="M 340.5,211.5 C 343.923,212.407 344.09,214.074 341,216.5C 340.25,215.874 339.416,215.374 338.5,215C 337.952,213.404 338.618,212.237 340.5,211.5 Z"/></g>
<g><path style="opacity:1" fill="#100f14" d="M 222.5,205.5 C 230.174,205.334 237.841,205.5 245.5,206C 246.637,211.082 246.804,216.249 246,221.5C 238.246,222.647 230.413,222.814 222.5,222C 221.189,216.5 221.189,211 222.5,205.5 Z"/></g>
<g><path style="opacity:1" fill="#c0c0c1" d="M 240.5,210.5 C 243.548,210.494 244.048,211.494 242,213.5C 240.961,212.756 240.461,211.756 240.5,210.5 Z"/></g>
<g><path style="opacity:0.994" fill="#e3e3e3" d="M 55.5,197.5 C 52.8612,205.916 50.5279,214.416 48.5,223C 48.0454,225.923 49.0454,228.09 51.5,229.5C 52.4982,238.475 52.8315,247.475 52.5,256.5C 66.8333,256.5 81.1667,256.5 95.5,256.5C 95.6664,247.494 95.4998,238.494 95,229.5C 94.586,229.043 94.086,228.709 93.5,228.5C 92.5046,222.872 92.1712,217.206 92.5,211.5C 95.1667,211.5 97.8333,211.5 100.5,211.5C 100.666,216.844 100.499,222.177 100,227.5C 99.3333,228.167 98.6667,228.833 98,229.5C 97.5002,238.494 97.3336,247.494 97.5,256.5C 111.833,256.5 126.167,256.5 140.5,256.5C 140.5,254.833 140.5,253.167 140.5,251.5C 143.5,251.5 146.5,251.5 149.5,251.5C 155.412,253.456 161.745,254.123 168.5,253.5C 168.5,253.833 168.5,254.167 168.5,254.5C 162.167,254.5 155.833,254.5 149.5,254.5C 148.507,262.65 148.174,270.983 148.5,279.5C 117.995,279.169 87.6621,279.502 57.5,280.5C 54.0507,279.29 51.2173,280.29 49,283.5C 48.8333,283.167 48.6667,282.833 48.5,282.5C 51.5319,277.965 54.3653,273.298 57,268.5C 57.7581,266.231 57.5914,264.064 56.5,262C 54.6133,261.837 53.1133,262.671 52,264.5C 50.2113,267.741 48.7113,271.074 47.5,274.5C 46.5269,272.052 46.1936,269.385 46.5,266.5C 47.0015,260.322 47.6682,254.155 48.5,248C 48.1667,246.167 47.8333,244.333 47.5,242.5C 45.0217,243.722 44.0217,245.722 44.5,248.5C 44.1667,248.5 43.8333,248.5 43.5,248.5C 43.6662,242.491 43.4995,236.491 43,230.5C 42,229.833 41,229.167 40,228.5C 39.3333,225.167 39.3333,221.833 40,218.5C 42.4017,211.795 44.9017,205.128 47.5,198.5C 50.0865,197.52 52.7531,197.187 55.5,197.5 Z"/></g>
<g><path style="opacity:1" fill="#8d9296" d="M 195.5,231.5 C 196.5,231.5 197.5,231.5 198.5,231.5C 199.825,235.276 200.491,239.443 200.5,244C 200.333,248.167 200.167,252.333 200,256.5C 199.283,257.044 198.783,257.711 198.5,258.5C 197.883,258.389 197.383,258.056 197,257.5C 196.351,253.75 195.518,250.083 194.5,246.5C 192.096,241.966 191.929,237.299 194,232.5C 194.383,231.944 194.883,231.611 195.5,231.5 Z"/></g>
<g><path style="opacity:0.994" fill="#18171d" d="M 43.5,252.5 C 42.9285,253.973 42.9285,255.64 43.5,257.5C 42.5318,259.607 42.1984,261.941 42.5,264.5C 43.404,263.791 43.7373,262.791 43.5,261.5C 44.4849,257.366 44.8182,253.032 44.5,248.5C 44.0217,245.722 45.0217,243.722 47.5,242.5C 47.8333,244.333 48.1667,246.167 48.5,248C 47.6682,254.155 47.0015,260.322 46.5,266.5C 45.1944,269.687 45.1944,273.02 46.5,276.5C 47.2975,276.043 47.6309,275.376 47.5,274.5C 48.7113,271.074 50.2113,267.741 52,264.5C 53.1133,262.671 54.6133,261.837 56.5,262C 57.5914,264.064 57.7581,266.231 57,268.5C 54.3653,273.298 51.5319,277.965 48.5,282.5C 48.6667,282.833 48.8333,283.167 49,283.5C 51.2173,280.29 54.0507,279.29 57.5,280.5C 58.2854,285.125 56.6188,288.958 52.5,292C 48.6391,293.226 46.3057,295.726 45.5,299.5C 44.1084,302.007 43.1084,304.673 42.5,307.5C 40.8333,307.5 39.1667,307.5 37.5,307.5C 37.5,307.167 37.5,306.833 37.5,306.5C 36.6814,304.228 36.0147,301.894 35.5,299.5C 34.5508,294.119 31.5508,290.286 26.5,288C 23.5766,285.584 21.2433,282.75 19.5,279.5C 19.5106,277.983 20.1772,276.816 21.5,276C 23.7612,275.761 25.7612,275.594 27.5,275.5C 25.1365,272.301 22.9698,268.968 21,265.5C 20.5026,262.854 20.3359,260.187 20.5,257.5C 22.4672,257.261 24.3005,257.594 26,258.5C 28.1056,261.608 29.7723,264.941 31,268.5C 31.5639,263.806 31.3973,259.14 30.5,254.5C 20.1667,254.5 9.83333,254.5 -0.5,254.5C -0.5,254.167 -0.5,253.833 -0.5,253.5C 9.83871,253.666 20.172,253.5 30.5,253C 28.7581,248.322 28.2581,243.488 29,238.5C 31.9294,237.724 33.596,239.057 34,242.5C 34.1747,246.211 34.6747,249.878 35.5,253.5C 37.7725,252.625 38.7725,250.958 38.5,248.5C 39.8333,248.5 41.1667,248.5 42.5,248.5C 42.2322,250.099 42.5655,251.432 43.5,252.5 Z M 42.5,264.5 C 42.8186,266.75 42.3186,268.75 41,270.5C 40.8794,268.316 41.3794,266.316 42.5,264.5 Z"/></g>
<g><path style="opacity:0.698" fill="#5d5c61" d="M 43.5,248.5 C 43.8333,248.5 44.1667,248.5 44.5,248.5C 44.8182,253.032 44.4849,257.366 43.5,261.5C 43.5,260.167 43.5,258.833 43.5,257.5C 42.9285,255.64 42.9285,253.973 43.5,252.5C 43.5,251.167 43.5,249.833 43.5,248.5 Z"/></g>
<g><path style="opacity:1" fill="#15131a" d="M 245.5,257.5 C 269.502,257.333 293.502,257.5 317.5,258C 329.256,262.669 332.089,270.502 326,281.5C 324.048,283.894 321.548,285.394 318.5,286C 293.833,286.667 269.167,286.667 244.5,286C 235.304,280.461 233.138,272.961 238,263.5C 240.114,260.879 242.614,258.879 245.5,257.5 Z"/></g>
<g><path style="opacity:1" fill="#ddddde" d="M 255.5,265.5 C 264.487,264.665 266.82,268.165 262.5,276C 253.43,277.136 251.096,273.636 255.5,265.5 Z"/></g>
<g><path style="opacity:1" fill="#dbdbdc" d="M 267.5,265.5 C 270.602,265.154 273.435,265.821 276,267.5C 276.756,269.809 276.256,271.809 274.5,273.5C 274.977,274.478 275.643,275.311 276.5,276C 275.5,276.667 274.5,276.667 273.5,276C 272.692,274.294 271.359,273.461 269.5,273.5C 269.719,274.675 269.386,275.675 268.5,276.5C 267.511,272.893 267.177,269.226 267.5,265.5 Z"/></g>
<g><path style="opacity:1" fill="#e3e3e4" d="M 278.5,265.5 C 282.516,264.9 286.016,265.9 289,268.5C 289.319,275.653 285.819,278.319 278.5,276.5C 278.5,272.833 278.5,269.167 278.5,265.5 Z"/></g>
<g><path style="opacity:1" fill="#e2e2e3" d="M 291.5,265.5 C 294.247,265.187 296.914,265.52 299.5,266.5C 297.604,267.466 295.604,267.799 293.5,267.5C 293.5,268.5 293.5,269.5 293.5,270.5C 300.049,270.907 300.049,271.907 293.5,273.5C 295.5,274.167 297.5,274.833 299.5,275.5C 296.914,276.48 294.247,276.813 291.5,276.5C 291.5,272.833 291.5,269.167 291.5,265.5 Z"/></g>
<g><path style="opacity:1" fill="#7a797e" d="M 302.5,265.5 C 302.335,269.182 302.501,272.848 303,276.5C 303.232,275.263 303.732,274.263 304.5,273.5C 304.5,274.833 304.5,276.167 304.5,277.5C 303.5,277.5 302.5,277.5 301.5,277.5C 301.183,273.298 301.517,269.298 302.5,265.5 Z"/></g>
<g><path style="opacity:1" fill="#d8d8d9" d="M 302.5,265.5 C 305.602,265.154 308.435,265.821 311,267.5C 310.553,270.659 310.053,273.659 309.5,276.5C 308.305,274.703 306.638,273.703 304.5,273.5C 303.732,274.263 303.232,275.263 303,276.5C 302.501,272.848 302.335,269.182 302.5,265.5 Z"/></g>
<g><path style="opacity:1" fill="#17161c" d="M 257.5,267.5 C 261.976,267.8 263.31,269.967 261.5,274C 255.36,274.808 254.027,272.641 257.5,267.5 Z"/></g>
<g><path style="opacity:1" fill="#1f1e24" d="M 269.5,267.5 C 271.665,267.116 273.332,267.783 274.5,269.5C 273.332,271.217 271.665,271.884 269.5,271.5C 269.5,270.167 269.5,268.833 269.5,267.5 Z"/></g>
<g><path style="opacity:1" fill="#1c1b21" d="M 280.5,267.5 C 283.885,266.79 286.219,267.956 287.5,271C 286.219,274.044 283.885,275.21 280.5,274.5C 280.5,272.167 280.5,269.833 280.5,267.5 Z"/></g>
<g><path style="opacity:1" fill="#19181e" d="M 304.5,267.5 C 305.833,267.5 307.167,267.5 308.5,267.5C 308.5,268.833 308.5,270.167 308.5,271.5C 307.167,271.5 305.833,271.5 304.5,271.5C 304.5,270.167 304.5,268.833 304.5,267.5 Z"/></g>
<g><path style="opacity:1" fill="#7c7a7e" d="M 46.5,266.5 C 46.1936,269.385 46.5269,272.052 47.5,274.5C 47.6309,275.376 47.2975,276.043 46.5,276.5C 45.1944,273.02 45.1944,269.687 46.5,266.5 Z"/></g>
<g><path style="opacity:0.888" fill="#ebebeb" d="M 19.5,279.5 C 21.2433,282.75 23.5766,285.584 26.5,288C 31.5508,290.286 34.5508,294.119 35.5,299.5C 23.5,299.5 11.5,299.5 -0.5,299.5C -0.5,293.833 -0.5,288.167 -0.5,282.5C 0.309426,281.531 1.30943,280.698 2.5,280C 8.15688,279.501 13.8236,279.334 19.5,279.5 Z"/></g>
<g><path style="opacity:0.893" fill="#eeeeee" d="M 149.5,254.5 C 149.5,262.833 149.5,271.167 149.5,279.5C 155.5,279.5 161.5,279.5 167.5,279.5C 167.793,286.255 167.46,292.922 166.5,299.5C 126.167,299.5 85.8333,299.5 45.5,299.5C 46.3057,295.726 48.6391,293.226 52.5,292C 56.6188,288.958 58.2854,285.125 57.5,280.5C 87.6621,279.502 117.995,279.169 148.5,279.5C 148.174,270.983 148.507,262.65 149.5,254.5 Z"/></g>
<g><path style="opacity:0.908" fill="#e2e2e2" d="M 186.5,279.5 C 190.5,279.5 194.5,279.5 198.5,279.5C 199.833,286.167 199.833,292.833 198.5,299.5C 193.167,299.5 187.833,299.5 182.5,299.5C 182.449,292.422 183.782,285.755 186.5,279.5 Z"/></g>
<g><path style="opacity:0.902" fill="#e7e7e7" d="M 367.5,279.5 C 373.176,279.334 378.843,279.501 384.5,280C 385,280.5 385.5,281 386,281.5C 386.173,287.348 386.673,293.015 387.5,298.5C 387.5,298.833 387.5,299.167 387.5,299.5C 380.833,299.5 374.167,299.5 367.5,299.5C 366.167,292.833 366.167,286.167 367.5,279.5 Z"/></g>
<g><path style="opacity:0.121" fill="#eaeaea" d="M -0.5,306.5 C 12.1667,306.5 24.8333,306.5 37.5,306.5C 37.5,306.833 37.5,307.167 37.5,307.5C 31.642,307.178 25.9753,307.511 20.5,308.5C 13.5,308.5 6.5,308.5 -0.5,308.5C -0.5,307.833 -0.5,307.167 -0.5,306.5 Z"/></g>
<g><path style="opacity:0.995" fill="#2a353b" d="M 57.5,324.5 C 56.8018,327.897 56.1352,331.397 55.5,335C 44.8385,335.5 34.1719,335.667 23.5,335.5C 23.8064,332.615 23.4731,329.948 22.5,327.5C 21.6873,321.185 21.0206,314.852 20.5,308.5C 25.9753,307.511 31.642,307.178 37.5,307.5C 39.1667,307.5 40.8333,307.5 42.5,307.5C 48.1953,306.539 53.862,306.539 59.5,307.5C 58.8333,313.167 58.1667,318.833 57.5,324.5 Z"/></g>
<g><path style="opacity:0.982" fill="#626a6f" d="M 180.5,309.5 C 182.237,313.338 180.904,315.338 176.5,315.5C 173.5,315.5 170.5,315.5 167.5,315.5C 166.5,315.5 165.5,315.5 164.5,315.5C 164.5,314.5 164.5,313.5 164.5,312.5C 135.165,312.667 105.831,312.5 76.5,312C 106.238,311.825 135.905,311.325 165.5,310.5C 170.595,310.779 175.595,310.445 180.5,309.5 Z"/></g>
<g><path style="opacity:0.986" fill="#ab564d" d="M 167.5,315.5 C 170.5,315.5 173.5,315.5 176.5,315.5C 175.85,317.435 175.517,319.435 175.5,321.5C 174.549,322.919 174.216,324.585 174.5,326.5C 172.167,326.5 169.833,326.5 167.5,326.5C 167.5,324.833 167.5,323.167 167.5,321.5C 167.5,319.5 167.5,317.5 167.5,315.5 Z"/></g>
<g><path style="opacity:0.954" fill="#f4f4f4" d="M 198.5,320.5 C 197.768,327.265 200.435,332.098 206.5,335C 257.167,335.667 307.833,335.667 358.5,335C 362.277,333.386 365.277,330.886 367.5,327.5C 374.31,327.635 380.977,328.635 387.5,330.5C 387.5,332.167 387.5,333.833 387.5,335.5C 355.681,340.035 323.681,342.535 291.5,343C 212.473,345.399 133.473,344.732 54.5,341C 37.3278,340.375 20.3278,338.375 3.5,335C 0.73626,332.301 1.40293,330.634 5.5,330C 11.0764,328.515 16.7431,327.682 22.5,327.5C 23.4731,329.948 23.8064,332.615 23.5,335.5C 34.1719,335.667 44.8385,335.5 55.5,335C 56.1352,331.397 56.8018,327.897 57.5,324.5C 94.1263,322.257 130.793,321.257 167.5,321.5C 167.5,323.167 167.5,324.833 167.5,326.5C 166.448,326.649 165.448,326.483 164.5,326C 165.696,325.346 165.696,324.846 164.5,324.5C 163.05,325.85 162.383,327.516 162.5,329.5C 159.762,329.851 157.096,330.518 154.5,331.5C 153.269,332.651 153.269,333.817 154.5,335C 162.159,335.5 169.826,335.666 177.5,335.5C 177.862,331.919 176.862,328.919 174.5,326.5C 174.216,324.585 174.549,322.919 175.5,321.5C 183.17,321.222 190.836,320.889 198.5,320.5 Z"/></g>
<g><path style="opacity:1" fill="#979b9e" d="M 167.5,326.5 C 169.833,326.5 172.167,326.5 174.5,326.5C 176.862,328.919 177.862,331.919 177.5,335.5C 169.826,335.666 162.159,335.5 154.5,335C 153.269,333.817 153.269,332.651 154.5,331.5C 157.096,330.518 159.762,329.851 162.5,329.5C 162.383,327.516 163.05,325.85 164.5,324.5C 165.696,324.846 165.696,325.346 164.5,326C 165.448,326.483 166.448,326.649 167.5,326.5 Z"/></g>
</svg>
