<svg width="14" height="17" viewBox="0 0 14 17" fill="none" xmlns="http://www.w3.org/2000/svg">
<path fill-rule="evenodd" clip-rule="evenodd" d="M12.4892 4.23796C12.4746 4.33222 12.4577 4.42855 12.4389 4.52753C11.7901 7.87232 9.57027 9.02782 6.73528 9.02782H5.29178C4.94504 9.02782 4.65281 9.28052 4.59889 9.62393L3.65052 15.664C3.6154 15.8895 3.78848 16.0927 4.01503 16.0927H6.57528C6.87838 16.0927 7.13593 15.8716 7.18368 15.5714L7.2088 15.4408L7.69085 12.3694L7.72185 12.2009C7.76902 11.8997 8.02716 11.6784 8.33026 11.6784H8.71313C11.1936 11.6784 13.1355 10.6673 13.703 7.74118C13.94 6.51886 13.8173 5.49819 13.19 4.78038C13.0001 4.56397 12.7646 4.3843 12.4892 4.23796Z" fill="#298FC2"/>
<path fill-rule="evenodd" clip-rule="evenodd" d="M11.8102 3.96628C11.711 3.93722 11.6087 3.91096 11.5038 3.88721C11.3983 3.86405 11.2904 3.84354 11.1791 3.82555C10.7899 3.76241 10.3634 3.73246 9.90665 3.73246H6.05041C5.95535 3.73246 5.86514 3.754 5.78448 3.79295C5.60656 3.8788 5.47447 4.04786 5.44245 4.25482L4.62204 9.47189L4.59853 9.62398C4.65245 9.28056 4.94468 9.02787 5.29141 9.02787H6.73491C9.56991 9.02787 11.7897 7.87178 12.4385 4.52758C12.4579 4.4286 12.4742 4.33227 12.4888 4.238C12.3247 4.15053 12.1469 4.07574 11.9555 4.01201C11.9082 3.99622 11.8594 3.98103 11.8102 3.96628Z" fill="#22284F"/>
<path fill-rule="evenodd" clip-rule="evenodd" d="M5.44245 4.25482C5.47447 4.04786 5.60675 3.87881 5.78467 3.79355C5.86592 3.75446 5.95554 3.73292 6.0506 3.73292H9.90684C10.3636 3.73292 10.7901 3.76301 11.1793 3.82615C11.2905 3.844 11.3985 3.86465 11.504 3.88781C11.6089 3.91142 11.7112 3.93782 11.8104 3.96673C11.8596 3.98149 11.9083 3.99683 11.9561 4.01202C12.1475 4.07575 12.3255 4.15113 12.4896 4.23802C12.6826 3.00198 12.488 2.16039 11.8224 1.39832C11.0885 0.559251 9.76418 0.200195 8.06944 0.200195H3.14934C2.8032 0.200195 2.50788 0.452891 2.4544 0.7969L0.405147 13.8393C0.364744 14.0973 0.56294 14.3301 0.822109 14.3301H3.85956L5.44245 4.25482Z" fill="#28356A"/>
</svg>
