<svg width="28" height="10" viewBox="0 0 28 10" fill="none" xmlns="http://www.w3.org/2000/svg">
<path d="M20.3742 0.87013C19.9308 0.694223 19.2275 0.5 18.3579 0.5C16.138 0.5 14.5748 1.68378 14.5652 3.37622C14.5467 4.6249 15.6844 5.31845 16.5353 5.7348C17.405 6.16024 17.7007 6.43793 17.7007 6.81716C17.6918 7.39958 16.9979 7.66805 16.3507 7.66805C15.4532 7.66805 14.9723 7.52964 14.2415 7.20561L13.9455 7.0667L13.6309 9.01827C14.1582 9.25847 15.1295 9.47162 16.138 9.48096C18.4967 9.48096 20.0323 8.3155 20.0505 6.51194C20.0595 5.52226 19.4587 4.76393 18.1636 4.14426C17.3774 3.74647 16.8959 3.47825 16.8959 3.07124C16.9051 2.70123 17.3031 2.32225 18.1906 2.32225C18.9214 2.30369 19.4584 2.47935 19.8651 2.65514L20.0685 2.74745L20.3742 0.87013Z" fill="#3362AB"/>
<path d="M12.2252 9.35139H9.97722L11.3833 0.657591H13.6311L12.2252 9.35139Z" fill="#3362AB"/>
<path fill-rule="evenodd" clip-rule="evenodd" d="M26.1367 0.657591H24.3979C23.8617 0.657591 23.4543 0.81469 23.223 1.37892L19.8839 9.35127H22.2426C22.2426 9.35127 22.631 8.27825 22.7144 8.04715H25.6006C25.6651 8.35238 25.8688 9.35127 25.8688 9.35127H27.9502L26.1367 0.657591ZM23.3619 6.27149C23.547 5.77204 24.2593 3.83903 24.2593 3.83903C24.2556 3.84648 24.2846 3.76616 24.3278 3.64641L24.3283 3.64494L24.3286 3.64398C24.3932 3.4651 24.489 3.19959 24.5551 3.0067L24.7122 3.75581C24.7122 3.75581 25.1379 5.83682 25.2303 6.27149H23.3619Z" fill="#3362AB"/>
<path d="M8.09965 0.657591L5.89818 6.58594L5.65761 5.3836L5.65739 5.38285L4.87138 1.38838C4.74194 0.833129 4.34415 0.675907 3.85392 0.657591H0.237196L0.200195 0.833252C1.0823 1.05882 1.87126 1.38387 2.56256 1.78803L4.56615 9.34218H6.94329L10.4767 0.657591H8.09965Z" fill="#3362AB"/>
</svg>
